<?xml version="1.0" encoding="UTF-8" standalone="no"?>
<svg
   xmlns:dc="http://purl.org/dc/elements/1.1/"
   xmlns:cc="http://creativecommons.org/ns#"
   xmlns:rdf="http://www.w3.org/1999/02/22-rdf-syntax-ns#"
   xmlns:svg="http://www.w3.org/2000/svg"
   xmlns="http://www.w3.org/2000/svg"
   xmlns:sodipodi="http://sodipodi.sourceforge.net/DTD/sodipodi-0.dtd"
   xmlns:inkscape="http://www.inkscape.org/namespaces/inkscape"
   version="1.1"
   id="Layer_1"
   x="0px"
   y="0px"
   width="98"
   height="70.18644"
   viewBox="0 0 98 70.18644"
   enable-background="new 0 0 100 100"
   xml:space="preserve"
   inkscape:version="0.48.3.1 r9886"
   sodipodi:docname="code.svg"><metadata
   id="metadata3038"><rdf:RDF><cc:Work
       rdf:about=""><dc:format>image/svg+xml</dc:format><dc:type
         rdf:resource="http://purl.org/dc/dcmitype/StillImage" /></cc:Work></rdf:RDF></metadata><defs
   id="defs3036" /><sodipodi:namedview
   pagecolor="#ffffff"
   bordercolor="#666666"
   borderopacity="1"
   objecttolerance="10"
   gridtolerance="10"
   guidetolerance="10"
   inkscape:pageopacity="0"
   inkscape:pageshadow="2"
   inkscape:window-width="740"
   inkscape:window-height="480"
   id="namedview3034"
   showgrid="false"
   inkscape:zoom="2.36"
   inkscape:cx="50"
   inkscape:cy="20.186441"
   inkscape:window-x="0"
   inkscape:window-y="24"
   inkscape:window-maximized="0"
   inkscape:current-layer="g3014"
   fit-margin-top="0"
   fit-margin-left="0"
   fit-margin-right="0"
   fit-margin-bottom="0" />
<g
   id="g3014">
	<circle
   cx="49.493999"
   cy="6.6030002"
   r="2.128"
   id="circle3016"
   sodipodi:cx="49.493999"
   sodipodi:cy="6.6030002"
   sodipodi:rx="2.128"
   sodipodi:ry="2.128" />
	<path
   d="m 18.267,34.851 6.123,-7.465 c 0.518,-0.63 0.425,-1.56 -0.204,-2.076 -0.629,-0.517 -1.56,-0.424 -2.076,0.204 l -6.972,8.499 c -0.481,0.586 -0.439,1.443 0.098,1.979 l 7.593,7.591 c 0.288,0.289 0.665,0.433 1.042,0.433 0.378,0 0.755,-0.144 1.043,-0.433 0.576,-0.576 0.576,-1.51 0,-2.086 l -6.647,-6.646 z"
   id="path3018"
   style="fill:#d42c2c;fill-opacity:1"
   inkscape:connector-curvature="0" />
	<path
   d="M 44.093,32.998 36.5,25.406 c -0.576,-0.576 -1.509,-0.576 -2.086,0 -0.576,0.577 -0.576,1.511 0,2.087 l 6.647,6.646 -6.123,7.465 c -0.516,0.63 -0.424,1.56 0.206,2.077 0.274,0.225 0.605,0.334 0.935,0.334 0.427,0 0.851,-0.185 1.142,-0.54 l 6.97,-8.499 c 0.48,-0.586 0.439,-1.442 -0.098,-1.978 z"
   id="path3020"
   style="fill:#d42c2c;fill-opacity:1"
   inkscape:connector-curvature="0" />
	<path
   d="M 88.568,0 9.432,0 C 4.491,0 0,4.02 0,8.96 l 0,51.794441 c 0,4.942 4.491,9.432 9.432,9.432 l 79.136,0 c 4.94,0 9.432,-4.49 9.432,-9.432 L 98,8.96 C 98,4.02 93.508,0 88.568,0 z M 95,61.166441 c 0,3.326 -3.695,6.02 -7.02,6.02 l -78.96,0 c -3.325,0 -6.02,-2.693 -6.02,-6.02 L 3,9.019 C 3,5.695 5.695,3 9.02,3 L 87.98,3 C 91.305,3 95,5.695 95,9.019 z"
   id="path3022"
   inkscape:connector-curvature="0"
   sodipodi:nodetypes="ssssccssssssssssss" />
	<path
   d="M 88.529,12 H 9.471 C 8.659,12 8,12.659 8,13.471 V 57.529 C 8,58.342 8.659,59 9.471,59 H 88.529 C 89.342,59 90,58.342 90,57.529 V 13.471 C 90,12.659 89.342,12 88.529,12 z M 11,15 H 48 V 56 H 11 V 15 z M 87,56 H 51 V 15 h 36 v 41 z"
   id="path3024"
   style="fill:#000000;fill-opacity:1"
   inkscape:connector-curvature="0" />
	<path
   d="m 54.5,36 h 29 c 0.828,0 1.5,-0.671 1.5,-1.5 v -16 C 85,17.671 84.328,17 83.5,17 h -29 C 53.672,17 53,17.671 53,18.5 v 16 c 0,0.829 0.672,1.5 1.5,1.5 z M 56,20 H 82 V 33 H 56 V 20 z"
   id="path3026"
   style="fill:#d42c2c;fill-opacity:1"
   inkscape:connector-curvature="0" />
	<path
   d="M 83,39 H 55 c -0.828,0 -1.5,0.671 -1.5,1.5 0,0.829 0.672,1.5 1.5,1.5 h 28 c 0.828,0 1.5,-0.671 1.5,-1.5 C 84.5,39.671 83.828,39 83,39 z"
   id="path3028"
   style="fill:#d42c2c;fill-opacity:1"
   inkscape:connector-curvature="0" />
	<path
   d="M 83,45 H 55 c -0.828,0 -1.5,0.671 -1.5,1.5 0,0.829 0.672,1.5 1.5,1.5 h 28 c 0.828,0 1.5,-0.671 1.5,-1.5 C 84.5,45.671 83.828,45 83,45 z"
   id="path3030"
   style="fill:#d42c2c;fill-opacity:1"
   inkscape:connector-curvature="0" />
	<path
   d="M 83,51 H 55 c -0.828,0 -1.5,0.672 -1.5,1.5 0,0.828 0.672,1.5 1.5,1.5 h 28 c 0.828,0 1.5,-0.672 1.5,-1.5 C 84.5,51.672 83.828,51 83,51 z"
   id="path3032"
   style="fill:#d42c2c;fill-opacity:1"
   inkscape:connector-curvature="0" />
</g>
</svg>