<?xml version="1.0" encoding="UTF-8" standalone="no"?>
<svg
   xmlns:dc="http://purl.org/dc/elements/1.1/"
   xmlns:cc="http://creativecommons.org/ns#"
   xmlns:rdf="http://www.w3.org/1999/02/22-rdf-syntax-ns#"
   xmlns:svg="http://www.w3.org/2000/svg"
   xmlns="http://www.w3.org/2000/svg"
   xmlns:sodipodi="http://sodipodi.sourceforge.net/DTD/sodipodi-0.dtd"
   xmlns:inkscape="http://www.inkscape.org/namespaces/inkscape"
   version="1.0"
   id="Livello_1"
   x="0px"
   y="0px"
   width="79.388"
   height="53.917999"
   viewBox="0 0 79.388 53.917999"
   enable-background="new 0 0 100 100"
   xml:space="preserve"
   inkscape:version="0.48.3.1 r9886"
   sodipodi:docname="icon_27615.svg"><metadata
   id="metadata3077"><rdf:RDF><cc:Work
       rdf:about=""><dc:format>image/svg+xml</dc:format><dc:type
         rdf:resource="http://purl.org/dc/dcmitype/StillImage" /></cc:Work></rdf:RDF></metadata><defs
   id="defs3075" /><sodipodi:namedview
   pagecolor="#ffffff"
   bordercolor="#666666"
   borderopacity="1"
   objecttolerance="10"
   gridtolerance="10"
   guidetolerance="10"
   inkscape:pageopacity="0"
   inkscape:pageshadow="2"
   inkscape:window-width="740"
   inkscape:window-height="480"
   id="namedview3073"
   showgrid="false"
   inkscape:zoom="1.668772"
   inkscape:cx="-7.6952331"
   inkscape:cy="32.971641"
   inkscape:window-x="0"
   inkscape:window-y="24"
   inkscape:window-maximized="0"
   inkscape:current-layer="Livello_1"
   fit-margin-top="0"
   fit-margin-left="0"
   fit-margin-right="0"
   fit-margin-bottom="0" />
<g
   id="g3041"
   transform="translate(-10.306,-23.041)">
	<rect
   x="22.514999"
   y="43.023998"
   width="30.49"
   height="17.237"
   id="rect3043"
   style="fill:#d42c2c;fill-opacity:1" />
	<path
   d="M 17.528,70.572 V 25.62 c 0,-0.104 0.082,-0.186 0.184,-0.186 h 59.516 c 0.103,0 0.185,0.082 0.185,0.186 v 9.021 h 7.175 v -8.256 c 0,-1.847 -1.497,-3.344 -3.343,-3.344 H 13.652 c -1.846,0 -3.346,1.497 -3.346,3.344 v 43.259 c 0,1.845 1.499,3.345 3.346,3.345 h 53.061 v -2.231 h -49 c -0.103,0 -0.185,-0.084 -0.185,-0.186 z M 13.827,49.974 c -1.085,0 -1.964,-0.88 -1.964,-1.966 0,-1.086 0.879,-1.966 1.964,-1.966 1.086,0 1.966,0.88 1.966,1.966 0,1.084 -0.881,1.966 -1.966,1.966 z"
   id="path3045"
   inkscape:connector-curvature="0"
   style="fill:#000000" />
	<rect
   x="22.514999"
   y="63.466"
   width="44.198002"
   height="1.906"
   id="rect3047"
   style="fill:#d42c2c;fill-opacity:1" />
	<rect
   x="57.133999"
   y="58.355"
   width="9.5790005"
   height="1.906"
   id="rect3049"
   style="fill:#d42c2c;fill-opacity:1" />
	<rect
   x="57.133999"
   y="53.244999"
   width="9.5790005"
   height="1.906"
   id="rect3051"
   style="fill:#d42c2c;fill-opacity:1" />
	<rect
   x="57.133999"
   y="48.133999"
   width="9.5790005"
   height="1.906"
   id="rect3053"
   style="fill:#d42c2c;fill-opacity:1" />
	<path
   d="M 72.379,30.695 H 22.515 v 5.082 h 46.696 c 0.902,-0.651 1.99,-1.055 3.169,-1.119 v -3.963 z"
   id="path3055"
   style="fill:#d42c2c;fill-opacity:1"
   inkscape:connector-curvature="0" />
	<rect
   x="57.133999"
   y="43.023998"
   width="9.5790005"
   height="1.906"
   id="rect3057"
   style="fill:#d42c2c;fill-opacity:1" />
	<path
   d="M 86.606,37.546 H 72.707 c -1.706,0 -3.089,1.382 -3.089,3.088 V 73.87 c 0,1.706 1.383,3.089 3.089,3.089 h 13.898 c 1.706,0 3.089,-1.383 3.089,-3.089 V 40.635 c 0,-1.706 -1.383,-3.089 -3.088,-3.089 z m -6.95,37.746 c -1.066,0 -1.931,-0.864 -1.931,-1.93 0,-1.067 0.864,-1.931 1.931,-1.931 1.066,0 1.93,0.864 1.93,1.931 0.001,1.067 -0.863,1.93 -1.93,1.93 z M 88.15,70.057 H 71.163 V 44.447 H 88.15 v 25.61 z"
   id="path3059"
   inkscape:connector-curvature="0"
   style="fill:#000000" />
	<rect
   x="73.471001"
   y="52.158001"
   width="12.37"
   height="6.993"
   id="rect3061"
   style="fill:#d42c2c;fill-opacity:1" />
	<rect
   x="73.471001"
   y="60.452"
   width="12.37"
   height="0.773"
   id="rect3063"
   style="fill:#d42c2c;fill-opacity:1" />
	<rect
   x="73.471001"
   y="62.525002"
   width="12.37"
   height="0.773"
   id="rect3065"
   style="fill:#d42c2c;fill-opacity:1" />
	<rect
   x="73.471001"
   y="64.598"
   width="12.37"
   height="0.773"
   id="rect3067"
   style="fill:#d42c2c;fill-opacity:1" />
	<rect
   x="73.471001"
   y="66.671997"
   width="8.4200001"
   height="0.773"
   id="rect3069"
   style="fill:#d42c2c;fill-opacity:1" />
	<rect
   x="73.471001"
   y="46.631001"
   width="12.37"
   height="2.062"
   id="rect3071"
   style="fill:#d42c2c;fill-opacity:1" />
</g>
</svg>