<?xml version="1.0" encoding="UTF-8" standalone="no"?>
<svg
   xmlns:dc="http://purl.org/dc/elements/1.1/"
   xmlns:cc="http://creativecommons.org/ns#"
   xmlns:rdf="http://www.w3.org/1999/02/22-rdf-syntax-ns#"
   xmlns:svg="http://www.w3.org/2000/svg"
   xmlns="http://www.w3.org/2000/svg"
   xmlns:sodipodi="http://sodipodi.sourceforge.net/DTD/sodipodi-0.dtd"
   xmlns:inkscape="http://www.inkscape.org/namespaces/inkscape"
   version="1.1"
   x="0px"
   y="0px"
   width="96.796387"
   height="94.556999"
   viewBox="0 0 96.796387 94.556999"
   enable-background="new 0 0 100 100"
   xml:space="preserve"
   id="svg2"
   inkscape:version="0.48.3.1 r9886"
   sodipodi:docname="icon_16422.svg"><metadata
   id="metadata28"><rdf:RDF><cc:Work
       rdf:about=""><dc:format>image/svg+xml</dc:format><dc:type
         rdf:resource="http://purl.org/dc/dcmitype/StillImage" /></cc:Work></rdf:RDF></metadata><defs
   id="defs26" /><sodipodi:namedview
   pagecolor="#ffffff"
   bordercolor="#666666"
   borderopacity="1"
   objecttolerance="10"
   gridtolerance="10"
   guidetolerance="10"
   inkscape:pageopacity="0"
   inkscape:pageshadow="2"
   inkscape:window-width="640"
   inkscape:window-height="480"
   id="namedview24"
   showgrid="false"
   fit-margin-top="0"
   fit-margin-left="0"
   fit-margin-right="0"
   fit-margin-bottom="0"
   inkscape:zoom="2.36"
   inkscape:cx="48.258062"
   inkscape:cy="46.199"
   inkscape:window-x="0"
   inkscape:window-y="24"
   inkscape:window-maximized="0"
   inkscape:current-layer="svg2" />
<g
   id="Captions"
   transform="translate(-1.7419377,-1.642)">
</g>
<g
   id="Your_Icon"
   transform="translate(-1.7419377,-1.642)">
	<g
   id="g6">
		<path
   d="M 95.758,46.942 C 92.559,41.182 87.965,35.886 85.299,33.033 l 3.8,-0.479 c 0.679,-0.086 1.214,-0.62 1.299,-1.298 0.087,-0.679 -0.295,-1.329 -0.931,-1.583 -4.187,-1.676 -6.04,-5.33 -8.605,-10.389 -0.955,-1.885 -2.04,-4.022 -3.359,-6.263 -5.832,-9.9 -21.218,-11.379 -29.87,-11.379 -10.21,0 -22.667,2.862 -27.478,10.846 -4.142,1.491 -5.3,4.427 -5.35,4.557 -0.211,0.558 -0.072,1.188 0.353,1.604 0.425,0.417 1.058,0.542 1.61,0.32 0.479,-0.193 0.81,-0.28 1.026,-0.319 -0.025,0.164 -0.069,0.357 -0.125,0.523 -1.277,2.124 -14.961,25.138 -15.812,36.277 -0.4,5.243 0.244,9.422 1.915,12.42 1.351,2.426 2.929,3.192 3.104,3.271 0.488,0.221 1.057,0.162 1.491,-0.148 0.436,-0.312 0.671,-0.835 0.62,-1.369 -0.066,-0.681 0.041,-1.902 0.481,-2.363 0.065,-0.067 0.219,-0.229 0.697,-0.201 1.181,0.062 2.09,0.504 2.704,1.313 0.975,1.286 1.203,3.5 0.625,6.072 -0.14,0.626 0.133,1.272 0.682,1.607 0.241,0.148 0.512,0.221 0.781,0.221 0.343,0 0.685,-0.117 0.96,-0.347 l 7.648,-6.377 c 1.66,6.288 4.024,13.554 6.527,17.268 3.137,4.654 12.849,9.382 17.54,9.382 5.177,0 15.258,-3.554 18.656,-8.909 2.458,-3.874 5.272,-11.181 7.305,-17.487 2.341,2.428 6.772,6.041 11.276,4.409 0.467,-0.168 0.818,-0.56 0.941,-1.039 0.122,-0.48 0,-0.991 -0.326,-1.363 -0.735,-0.837 -1.743,-2.493 -1.571,-3.394 0.021,-0.115 0.073,-0.388 0.612,-0.664 0.323,-0.167 0.646,-0.18 1.038,-0.042 2.034,0.711 4.506,4.761 5.587,7.146 0.229,0.505 0.719,0.844 1.273,0.879 0.558,0.037 1.083,-0.239 1.373,-0.713 0.094,-0.155 2.318,-3.821 3.693,-9.082 1.847,-7.063 1.247,-13.631 -1.731,-18.998 z M 63.755,85.683 c -1.192,1.881 -3.873,3.822 -7.354,5.327 -3.076,1.33 -6.518,2.19 -8.769,2.19 -3.886,0 -12.481,-4.246 -15.052,-8.061 -3.465,-5.141 -6.993,-18.88 -8.111,-25.094 -0.05,-0.275 -0.174,-0.53 -0.361,-0.737 -1.936,-2.15 -3.848,-4.509 -4.12,-7.591 -0.184,-2.085 0.889,-3.738 2.374,-6.025 0.614,-0.943 1.308,-2.013 1.951,-3.201 0.178,-0.33 0.226,-0.713 0.136,-1.077 -0.855,-3.418 -0.254,-16.996 3.835,-24.755 3.76,-7.132 13.736,-8.198 19.35,-8.198 3.897,0 16.959,0.595 21.386,8.249 4.298,7.433 5.167,21.149 4.2,24.67 -0.107,0.394 -0.051,0.812 0.156,1.162 0.706,1.188 1.468,2.259 2.142,3.204 1.621,2.273 2.789,3.916 2.593,5.957 -0.296,3.056 -2.391,5.406 -4.511,7.554 -0.206,0.209 -0.348,0.475 -0.404,0.764 -1.061,5.361 -5.774,19.882 -9.441,25.662 z M 94.609,65.101 c -0.613,2.372 -1.43,4.414 -2.104,5.887 -1.325,-2.258 -3.473,-5.242 -5.95,-6.108 -1.168,-0.407 -2.343,-0.337 -3.398,0.204 -1.528,0.784 -2.035,1.944 -2.193,2.78 -0.239,1.277 0.191,2.601 0.743,3.674 -2.834,-0.51 -5.732,-3.407 -7.079,-5.078 0.622,-2.116 1.117,-4 1.419,-5.412 2.295,-2.356 4.675,-5.195 5.048,-9.053 0.307,-3.16 -1.366,-5.506 -3.135,-7.988 C 77.395,43.215 76.814,42.401 76.262,41.519 77.233,36.439 76.067,22.91 71.616,15.211 66.529,6.413 53.149,5.464 47.634,5.464 c -6.29,0 -17.509,1.272 -22.003,9.798 -4.061,7.706 -5.116,21.257 -4.219,26.278 -0.509,0.896 -1.044,1.719 -1.564,2.52 -1.608,2.471 -3.124,4.806 -2.848,7.92 0.337,3.83 2.502,6.663 4.594,9.017 0.264,1.405 0.661,3.258 1.158,5.328 l -5.954,4.962 C 16.718,69.418 16.199,67.798 15.26,66.559 14.105,65.035 12.398,64.172 10.323,64.064 8.783,63.984 7.825,64.635 7.291,65.199 6.914,65.595 6.642,66.058 6.447,66.538 5.429,64.779 4.403,61.514 4.848,55.68 5.667,44.95 20.165,20.84 20.312,20.598 c 0.042,-0.069 0.079,-0.145 0.109,-0.22 0.173,-0.433 0.967,-2.664 -0.38,-4.007 -0.13,-0.128 -0.266,-0.237 -0.409,-0.33 0.526,-0.324 1.177,-0.632 1.978,-0.876 0.375,-0.115 0.69,-0.373 0.877,-0.717 C 26.436,7.21 38.5,4.641 47.632,4.641 c 6.449,0 22.021,0.965 27.287,9.902 1.271,2.16 2.286,4.161 3.267,6.096 1.957,3.86 3.623,7.144 6.302,9.474 l -2.549,0.322 c -0.573,0.072 -1.053,0.466 -1.235,1.014 -0.183,0.547 -0.035,1.15 0.381,1.552 0.075,0.073 7.616,7.411 12.05,15.397 2.623,4.725 3.119,10.345 1.474,16.703 z"
   id="path8"
   inkscape:connector-curvature="0" />
		<path
   d="m 31.295,25.987 c 0.047,-0.038 4.866,-3.847 16.765,-3.847 12.311,0 18.151,3.857 18.242,3.919 0.262,0.18 0.557,0.266 0.852,0.266 0.474,0 0.939,-0.225 1.231,-0.645 C 68.858,25 68.69,24.066 68.009,23.593 67.747,23.411 61.447,19.14 48.06,19.14 c -12.954,0 -18.432,4.336 -18.658,4.521 -0.642,0.523 -0.739,1.468 -0.216,2.11 0.522,0.642 1.466,0.739 2.109,0.216 z"
   id="path10"
   inkscape:connector-curvature="0" />
		<path
   d="m 36.862,17.178 c 0.036,-0.019 3.724,-1.896 11.198,-1.896 6.381,0 10.691,1.896 10.772,1.93 0.2,0.091 0.411,0.135 0.617,0.135 0.57,0 1.115,-0.327 1.366,-0.879 0.344,-0.754 0.012,-1.644 -0.743,-1.986 -0.196,-0.09 -4.913,-2.199 -12.013,-2.199 -8.2,0 -12.409,2.142 -12.583,2.233 -0.736,0.382 -1.021,1.289 -0.639,2.024 0.384,0.734 1.289,1.02 2.025,0.638 z"
   id="path12"
   inkscape:connector-curvature="0" />
		<path
   d="m 39.603,33.412 c 0.822,-0.103 1.406,-0.852 1.304,-1.673 -0.103,-0.822 -0.849,-1.41 -1.673,-1.305 -5.183,0.645 -8.405,1.944 -10.447,4.219 -2.19,2.438 -2.705,5.775 -2.934,9.02 -0.058,0.826 0.564,1.543 1.39,1.601 0.036,0.003 0.072,0.004 0.108,0.004 0.779,0 1.438,-0.604 1.494,-1.393 0.443,-6.267 1.648,-9.343 10.758,-10.473 z"
   id="path14"
   inkscape:connector-curvature="0" />
		<path
   d="m 57.624,30.438 c -0.823,-0.117 -1.578,0.456 -1.694,1.275 -0.115,0.82 0.457,1.58 1.276,1.694 7.926,1.115 8.977,4.192 9.368,10.465 0.05,0.795 0.71,1.405 1.496,1.405 0.03,0 0.063,0 0.095,-0.002 0.827,-0.052 1.455,-0.764 1.403,-1.59 C 69.085,35.945 67.104,31.77 57.624,30.438 z"
   id="path16"
   inkscape:connector-curvature="0" />
		<circle
   cx="59.451"
   cy="41.814999"
   r="1.678"
   id="circle18"
   sodipodi:cx="59.451"
   sodipodi:cy="41.814999"
   sodipodi:rx="1.678"
   sodipodi:ry="1.678"
   d="m 61.129,41.814999 c 0,0.926733 -0.751266,1.678 -1.678,1.678 -0.926734,0 -1.678,-0.751267 -1.678,-1.678 0,-0.926734 0.751266,-1.678 1.678,-1.678 0.926734,0 1.678,0.751266 1.678,1.678 z" />
		<circle
   cx="37.168999"
   cy="41.814999"
   r="1.678"
   id="circle20"
   sodipodi:cx="37.168999"
   sodipodi:cy="41.814999"
   sodipodi:rx="1.678"
   sodipodi:ry="1.678"
   d="m 38.846999,41.814999 c 0,0.926733 -0.751266,1.678 -1.678,1.678 -0.926734,0 -1.678,-0.751267 -1.678,-1.678 0,-0.926734 0.751266,-1.678 1.678,-1.678 0.926734,0 1.678,0.751266 1.678,1.678 z" />
		<path
   d="m 55.519,62.321 c 0.83,-1.002 1.353,-2.211 1.353,-3.615 0,-5.797 -2.312,-9.896 -2.411,-10.066 -0.41,-0.718 -1.323,-0.965 -2.042,-0.556 -0.719,0.409 -0.969,1.325 -0.562,2.044 0.02,0.035 2.014,3.615 2.014,8.579 0,2.254 -3.413,4.068 -6.238,4.068 -2.389,0 -6,-1.622 -6,-4.068 0,-4.974 1.936,-8.561 1.956,-8.596 0.4,-0.724 0.139,-1.634 -0.584,-2.036 -0.725,-0.404 -1.637,-0.142 -2.04,0.582 -0.095,0.171 -2.331,4.263 -2.331,10.05 0,1.475 0.565,2.733 1.446,3.764 -2.927,1.482 -11.056,6.115 -10.657,14.1 C 29.461,77.366 30.12,78 30.919,78 h 8.46 c 0.47,4 1.871,5.406 3.103,6.65 1.88,1.899 4.179,2.98 5.864,3.184 0.072,0.012 0.137,0.098 0.213,0.098 0.066,0 0.139,0.016 0.207,0.012 0.072,0.004 0.153,0.03 0.223,0.03 0.209,0 0.407,-0.039 0.587,-0.12 1.387,-0.303 2.901,-1.385 4.151,-2.645 C 55.043,83.882 56.556,82 56.968,78 h 7.59 c 0.751,0 1.386,-0.577 1.486,-1.32 0.014,-0.109 0.342,-2.816 -0.944,-5.904 -1.11,-2.669 -3.68,-6.174 -9.581,-8.455 z m -3.922,20.78 c -0.989,0.997 -1.992,1.567 -2.638,1.712 C 48.076,84.799 46.217,83.979 44.615,82.361 43.781,81.52 42.831,81 42.417,78 h 11.52 c -0.372,3 -1.418,4.17 -2.34,5.101 z M 40.719,75 h -0.015 -8.229 c 0.864,-7 9.695,-10.289 9.791,-10.328 0.05,-0.02 0.083,-0.182 0.128,-0.204 1.666,0.943 3.613,1.372 5.238,1.372 1.704,0 3.746,-0.55 5.481,-1.53 0.162,0.159 0.354,0.538 0.596,0.621 C 61.475,67.618 62.863,74 63.067,75 H 40.719 z"
   id="path22"
   inkscape:connector-curvature="0" />
	</g>
</g>
</svg>