<?xml version="1.0" encoding="UTF-8" standalone="no"?>
<svg
   xmlns:dc="http://purl.org/dc/elements/1.1/"
   xmlns:cc="http://creativecommons.org/ns#"
   xmlns:rdf="http://www.w3.org/1999/02/22-rdf-syntax-ns#"
   xmlns:svg="http://www.w3.org/2000/svg"
   xmlns="http://www.w3.org/2000/svg"
   xmlns:sodipodi="http://sodipodi.sourceforge.net/DTD/sodipodi-0.dtd"
   xmlns:inkscape="http://www.inkscape.org/namespaces/inkscape"
   version="1.1"
   id="Layer_1"
   x="0px"
   y="0px"
   width="97.496834"
   height="96.103996"
   viewBox="0 0 97.496834 96.103996"
   enable-background="new 0 0 100 100"
   xml:space="preserve"
   inkscape:version="0.48.3.1 r9886"
   sodipodi:docname="flash.svg"><metadata
   id="metadata11"><rdf:RDF><cc:Work
       rdf:about=""><dc:format>image/svg+xml</dc:format><dc:type
         rdf:resource="http://purl.org/dc/dcmitype/StillImage" /></cc:Work></rdf:RDF></metadata><defs
   id="defs9" /><sodipodi:namedview
   pagecolor="#ffffff"
   bordercolor="#666666"
   borderopacity="1"
   objecttolerance="10"
   gridtolerance="10"
   guidetolerance="10"
   inkscape:pageopacity="0"
   inkscape:pageshadow="2"
   inkscape:window-width="1280"
   inkscape:window-height="724"
   id="namedview7"
   showgrid="false"
   fit-margin-top="0"
   fit-margin-left="0"
   fit-margin-right="0"
   fit-margin-bottom="0"
   inkscape:zoom="3.337544"
   inkscape:cx="92.907298"
   inkscape:cy="39.983713"
   inkscape:window-x="0"
   inkscape:window-y="24"
   inkscape:window-maximized="1"
   inkscape:current-layer="Layer_1"
   showguides="true"
   inkscape:guide-bbox="true" />
<path
   d="m 47.504694,79.966 c -0.795,0 -1.442,-0.645 -1.442,-1.441 0,-0.796 0.646,-1.441 1.442,-1.441 5.096,0 9.309,-0.618 9.351,-0.625 0.787,-0.118 1.521,0.426 1.639,1.212 0.117,0.788 -0.426,1.522 -1.213,1.64 -0.182,0.025 -4.469,0.655 -9.777,0.655 l 0,0 z"
   id="path3"
   inkscape:connector-curvature="0" />
<path
   d="m 85.611694,29.615 0,-5.304 c 0,-6.389 -3.463,-12.566 -9.752,-17.396 -5.637,-4.33 -12.87,-6.915 -19.35,-6.915 l -15.58,0 c -6.479,0 -13.713,2.585 -19.351,6.915 -6.288,4.83 -9.75,11.007 -9.75,17.396 l 0,5.267 10e-4,19.132 0,10.504 c 0,0.177 0.019,0.351 0.056,0.517 0.278,20.104 16.719,36.373 36.889,36.373 20.343,0 36.891,-16.55 36.891,-36.891 0,-0.173 -0.018,-0.342 -0.052,-0.503 l 0,-9.979 z m -27.753,14.218 c 0.187,-0.192 4.693,-4.73 12.958,-6.136 0.639,-0.106 1.271,0.222 1.548,0.808 l 0.995,2.116 c 0.562,1.197 0.626,2.541 0.177,3.785 -0.448,1.244 -1.354,2.239 -2.551,2.801 -0.058,0.027 -0.116,0.051 -0.177,0.07 l -6.629,2.105 c -0.064,0.021 -0.13,0.036 -0.195,0.047 -0.258,0.045 -0.521,0.066 -0.786,0.066 -2.562,0 -4.702,-2.071 -5.607,-3.995 -0.068,-0.143 -0.112,-0.297 -0.129,-0.455 -0.048,-0.429 0.094,-0.903 0.396,-1.212 z m -33.27,-3.213 0.996,-2.116 c 0.276,-0.586 0.909,-0.914 1.546,-0.808 8.266,1.405 12.772,5.943 12.96,6.136 0.301,0.309 0.443,0.783 0.396,1.212 -0.018,0.158 -0.061,0.312 -0.128,0.455 -0.905,1.924 -3.046,3.995 -5.609,3.995 -0.263,0 -0.528,-0.021 -0.786,-0.066 -0.065,-0.011 -0.13,-0.026 -0.194,-0.047 l -6.629,-2.105 c -0.061,-0.019 -0.12,-0.042 -0.178,-0.07 -1.196,-0.562 -2.102,-1.557 -2.551,-2.801 -0.449,-1.244 -0.386,-2.587 0.177,-3.785 z m 24.186,50.693 c -14.914,0 -27.483,-10.224 -31.072,-24.03 l 5.639,3.484 c 0.463,0.288 0.997,0.438 1.542,0.438 0.488,0 0.974,-0.123 1.401,-0.355 l 23.438,-12.741 23.348,12.74 c 0.925,0.503 2.106,0.459 2.989,-0.109 l 3.425,-2.202 c -4.006,13.165 -16.254,22.775 -30.71,22.775 z"
   id="path5"
   inkscape:connector-curvature="0"
   style="fill:#d82729;fill-opacity:1"
   sodipodi:nodetypes="cscsscsccscssccccccccccccsccccccsccsccccscsccscccccs" />
<path
   d="m 96.875699,24.637996 c -0.625,-0.496 -1.522,-0.412 -2.29,0.285 l -5.506,5.007 -0.894,-0.445 c -0.628,-0.315 -1.344,-0.365 -2.014,-0.141 -0.2,0.067 -0.385,0.163 -0.56,0.271 l 0.002,19.116 c 1.025,-0.418 1.924,-1.105 2.493,-2.115 0.029,-0.052 0.056,-0.107 0.077,-0.163 0.019,-0.033 0.042,-0.06 0.059,-0.091 l 3.217,-6.443 1.703,0.851 c 0.567,0.282 1.178,0.339 1.721,0.157 0.787,-0.263 1.329,-0.991 1.414,-1.899 l 1.186,-12.659 c 0.088,-0.962 -0.283,-1.473 -0.608,-1.731 z"
   id="path5-5"
   inkscape:connector-curvature="0"
   style="fill:#e6d40c;fill-opacity:1"
   sodipodi:nodetypes="cccccccccccccccc" /><path
   d="m 11.828736,29.577996 c -0.160001,-0.094 -0.328001,-0.174 -0.508002,-0.234 -0.670002,-0.224 -1.3850047,-0.174 -2.0140067,0.141 l -0.893003,0.445 -5.50702,-5.007 c -0.767002,-0.697 -1.665006,-0.781 -2.28900803,-0.285 -0.323001,0.258 -0.694002,0.769 -0.604002,1.731 l 1.18400403,12.659 c 0.084,0.908 0.627002,1.637 1.415005,1.899 0.542002,0.182 1.154004,0.125 1.721006,-0.157 l 1.703006,-0.851 3.216012,6.443 c 0.016,0.032 0.041,0.059 0.058,0.091 0.022,0.056 0.048,0.111 0.078,0.163 0.559002,0.993 1.4370047,1.674 2.4410087,2.094 z"
   id="path5-1"
   inkscape:connector-curvature="0"
   style="fill:#e6d40c;fill-opacity:1"
   sodipodi:nodetypes="cccccccccccccccc" /></svg>