<?xml version="1.0" encoding="UTF-8" standalone="no"?>
<!-- Generator: Adobe Illustrator 16.0.0, SVG Export Plug-In . SVG Version: 6.00 Build 0)  -->

<svg
   xmlns:dc="http://purl.org/dc/elements/1.1/"
   xmlns:cc="http://creativecommons.org/ns#"
   xmlns:rdf="http://www.w3.org/1999/02/22-rdf-syntax-ns#"
   xmlns:svg="http://www.w3.org/2000/svg"
   xmlns="http://www.w3.org/2000/svg"
   xmlns:sodipodi="http://sodipodi.sourceforge.net/DTD/sodipodi-0.dtd"
   xmlns:inkscape="http://www.inkscape.org/namespaces/inkscape"
   version="1.1"
   id="Layer_1"
   x="0px"
   y="0px"
   width="89.442177"
   height="44.659988"
   viewBox="4.867 -0.15 89.442177 44.659988"
   enable-background="new 4.867 -0.15 89.625 100"
   xml:space="preserve"
   inkscape:version="0.48.3.1 r9886"
   sodipodi:docname="hat.svg"><metadata
   id="metadata14"><rdf:RDF><cc:Work
       rdf:about=""><dc:format>image/svg+xml</dc:format><dc:type
         rdf:resource="http://purl.org/dc/dcmitype/StillImage" /></cc:Work></rdf:RDF></metadata><defs
   id="defs12" /><sodipodi:namedview
   pagecolor="#ffffff"
   bordercolor="#666666"
   borderopacity="1"
   objecttolerance="10"
   gridtolerance="10"
   guidetolerance="10"
   inkscape:pageopacity="0"
   inkscape:pageshadow="2"
   inkscape:window-width="1280"
   inkscape:window-height="724"
   id="namedview10"
   showgrid="false"
   fit-margin-top="0"
   fit-margin-left="0"
   fit-margin-right="0"
   fit-margin-bottom="0"
   inkscape:zoom="3.337544"
   inkscape:cx="80.886928"
   inkscape:cy="11.39156"
   inkscape:window-x="0"
   inkscape:window-y="24"
   inkscape:window-maximized="1"
   inkscape:current-layer="Layer_1" />
<g
   id="Your_Icon"
   transform="matrix(0.99789261,-0.06488713,0.06488713,0.99789261,-2.4883859,3.7979287)">
	<path
   d="M 5.251,40.227"
   id="path4"
   inkscape:connector-curvature="0" />
	
	<path
   d="m 80.166,41.967 c 1.998,-0.053 10.892,-0.364 13.125,-1.704 2.52,-1.511 1.214,-4.618 -5.24,-3.628 -3.055,0.469 -5.61,0.92 -7.964,1.336 -0.031,-1.304 -0.066,-2.563 -0.107,-3.763 l 0,-15.106 c 0,0 1.632,-19.251 -22.861,-19.251 L 49.68,-0.145 42.241,-0.15 c -24.494,0 -22.86,19.251 -22.86,19.251 l 0,15.106 c -0.041,1.2 -0.078,2.459 -0.109,3.763 -2.354,-0.417 -4.911,-0.867 -7.964,-1.336 -6.455,-0.991 -7.759,2.117 -5.24,3.628 2.232,1.34 11.126,1.651 13.125,1.704 z"
   id="path8"
   inkscape:connector-curvature="0"
   sodipodi:nodetypes="cccccccccccccccc" />
</g>
</svg>