<svg xmlns="http://www.w3.org/2000/svg" xmlns:xlink="http://www.w3.org/1999/xlink" version="1.1" id="Your_Icon" x="0px" y="0px" width="100px" height="90.336px" viewBox="0 0 100 90.336" enable-background="new 0 0 100 90.336" xml:space="preserve">
<path fill="#000000" d="M99.653,69.455l-9.922-15.887l6.179-1.761c0.858-0.246,1.497-0.968,1.634-1.851  c0.136-0.883-0.253-1.764-0.997-2.257l-6.284-4.168C89.392,19.42,69.448,0,45.17,0C20.265,0,0,20.263,0,45.168  c0,24.906,20.265,45.168,45.17,45.168c16.057,0,30.933-8.671,38.976-22.376l5.02,8.036c0.436,0.695,1.18,1.077,1.943,1.077  c0.414,0,0.832-0.112,1.209-0.347l6.604-4.118c0.514-0.322,0.88-0.834,1.019-1.426C100.078,70.59,99.973,69.969,99.653,69.455z   M48.518,11.768c2.925,0,6.242,0,6.816,0.463c0,0,0.002,0.007,0.007,0.022c-0.702,0.751-3.24,2.021-4.798,2.8  c-3.949,1.976-7.359,3.681-7.359,6.622c0,1.787,1.314,3.032,2.585,4.236c1.379,1.308,2.802,2.657,2.829,4.508  c0.027,2.045-1.613,4.782-4.744,7.915c-1.741,1.741-3.285,3.643-2.789,5.759c0.521,2.226,2.764,2.981,5.363,3.855  c3.645,1.227,8.638,2.907,12.374,8.507c3.334,5-8.897,19.57-19.134,28.887c-2.66-0.362-5.234-0.977-7.706-1.83  c2.031-6.396,1.401-8.168-1.922-12.144c-1.063-1.274-2.389-2.86-3.996-5.27c-3.904-5.859-0.353-9.811,4.322-14.01  c0.57-0.512,1.08-0.972,1.493-1.383c0.628-0.628,6.067-6.287,4.012-11.241c-1.354-3.263-5.191-4.85-11.73-4.85  c-2.677,0-4.587-0.809-5.841-2.474c-3.12-4.141-1.79-12.784-0.829-16.563c5.598-5.242,12.658-8.914,20.513-10.326  C39.658,7.71,43.22,11.768,48.518,11.768z M4.577,45.168c0-8.597,2.704-16.563,7.283-23.134c-0.277,4.3,0.141,9.346,2.778,12.854  c2.147,2.855,5.345,4.304,9.504,4.304c6.182,0,7.306,1.553,7.504,2.029c0.581,1.403-1.117,4.337-3.021,6.248  c-0.359,0.359-0.813,0.765-1.314,1.214c-3.729,3.35-11.493,10.322-5.073,19.953c1.746,2.615,3.216,4.378,4.291,5.665  c2.344,2.807,2.592,3.178,1.203,7.464C14.063,75.228,4.577,61.303,4.577,45.168z M45.941,85.73  c8.005-7.772,22.249-23.444,16.669-31.813c-4.604-6.903-10.938-9.033-14.722-10.307c-0.67-0.226-1.446-0.487-1.991-0.713  c0.23-0.302,0.599-0.733,1.193-1.327c4.141-4.144,6.129-7.811,6.083-11.214c-0.051-3.781-2.581-6.18-4.254-7.766  c-0.282-0.269-0.628-0.597-0.885-0.867c0.928-0.762,3.145-1.87,4.557-2.576c3.944-1.974,7.353-3.677,7.353-6.615  c0-5.341-5.042-5.341-11.424-5.341c-2.101,0-3.848-1.211-5.133-2.525c0.597-0.024,1.182-0.089,1.785-0.089  c20.682,0,37.885,15.679,40.288,35.769L70.407,30.36c-0.744-0.498-1.712-0.507-2.479-0.033c-0.76,0.474-1.173,1.35-1.055,2.239  l4.119,31.096c0.116,0.888,0.739,1.623,1.593,1.887c0.852,0.266,1.783,0.009,2.378-0.657l4.284-4.775l2.116,3.388  C74.598,76.825,60.895,85.442,45.941,85.73z M91.836,71.634L81.519,55.11c-0.382-0.61-1.028-1.006-1.745-1.068  c-0.065-0.007-0.132-0.009-0.197-0.009c-0.647,0-1.267,0.274-1.702,0.76l-2.997,3.341l-2.805-21.179l17.807,11.813l-4.327,1.233  c-0.69,0.198-1.249,0.708-1.508,1.379c-0.257,0.672-0.186,1.426,0.194,2.033l10.319,16.521L91.836,71.634z"/>
</svg>