<?xml version="1.0" encoding="UTF-8" standalone="no"?>
<svg
   xmlns:dc="http://purl.org/dc/elements/1.1/"
   xmlns:cc="http://creativecommons.org/ns#"
   xmlns:rdf="http://www.w3.org/1999/02/22-rdf-syntax-ns#"
   xmlns:svg="http://www.w3.org/2000/svg"
   xmlns="http://www.w3.org/2000/svg"
   xmlns:sodipodi="http://sodipodi.sourceforge.net/DTD/sodipodi-0.dtd"
   xmlns:inkscape="http://www.inkscape.org/namespaces/inkscape"
   version="1.1"
   id="Livello_1"
   x="0px"
   y="0px"
   width="67.740997"
   height="100"
   viewBox="0 0 67.740997 100"
   enable-background="new 0 0 100 100"
   xml:space="preserve"
   inkscape:version="0.48.3.1 r9886"
   sodipodi:docname="location.svg"><metadata
   id="metadata9"><rdf:RDF><cc:Work
       rdf:about=""><dc:format>image/svg+xml</dc:format><dc:type
         rdf:resource="http://purl.org/dc/dcmitype/StillImage" /></cc:Work></rdf:RDF></metadata><defs
   id="defs7" /><sodipodi:namedview
   pagecolor="#ffffff"
   bordercolor="#666666"
   borderopacity="1"
   objecttolerance="10"
   gridtolerance="10"
   guidetolerance="10"
   inkscape:pageopacity="0"
   inkscape:pageshadow="2"
   inkscape:window-width="1280"
   inkscape:window-height="724"
   id="namedview5"
   showgrid="false"
   fit-margin-top="0"
   fit-margin-left="0"
   fit-margin-right="0"
   fit-margin-bottom="0"
   inkscape:zoom="2.36"
   inkscape:cx="-44.730695"
   inkscape:cy="50"
   inkscape:window-x="0"
   inkscape:window-y="24"
   inkscape:window-maximized="1"
   inkscape:current-layer="Livello_1" />
<path
   d="M 33.871,0 C 15.165,0 0,15.165 0,33.87 c 0,0.401 0.012,0.809 0.03,1.221 0.127,3.558 0.798,6.975 1.939,10.172 C 9.195,69.015 33.871,100 33.871,100 c 0,0 24.673,-30.982 31.9,-54.734 1.143,-3.197 1.813,-6.617 1.939,-10.175 0.02,-0.412 0.031,-0.819 0.031,-1.221 C 67.742,15.165 52.577,0 33.871,0 z m 0,50.459 c -9.161,0 -16.589,-7.428 -16.589,-16.589 0,-9.16 7.428,-16.588 16.589,-16.588 9.162,0 16.589,7.428 16.589,16.588 0,9.161 -7.427,16.589 -16.589,16.589 z"
   id="path3"
   inkscape:connector-curvature="0"
   style="fill:#7aaede;fill-opacity:1" />
</svg>