<?xml version="1.0" encoding="UTF-8" standalone="no"?>
<svg
   xmlns:dc="http://purl.org/dc/elements/1.1/"
   xmlns:cc="http://creativecommons.org/ns#"
   xmlns:rdf="http://www.w3.org/1999/02/22-rdf-syntax-ns#"
   xmlns:svg="http://www.w3.org/2000/svg"
   xmlns="http://www.w3.org/2000/svg"
   xmlns:sodipodi="http://sodipodi.sourceforge.net/DTD/sodipodi-0.dtd"
   xmlns:inkscape="http://www.inkscape.org/namespaces/inkscape"
   version="1.1"
   id="Layer_1"
   x="0px"
   y="0px"
   viewBox="0 0 90.278999 64.735001"
   enable-background="new 0 0 100 100"
   xml:space="preserve"
   height="64.735001"
   width="90.278999"
   inkscape:version="0.48.3.1 r9886"
   sodipodi:docname="page.svg"><metadata
   id="metadata3039"><rdf:RDF><cc:Work
       rdf:about=""><dc:format>image/svg+xml</dc:format><dc:type
         rdf:resource="http://purl.org/dc/dcmitype/StillImage" /></cc:Work></rdf:RDF></metadata><defs
   id="defs3037" /><sodipodi:namedview
   pagecolor="#ffffff"
   bordercolor="#666666"
   borderopacity="1"
   objecttolerance="10"
   gridtolerance="10"
   guidetolerance="10"
   inkscape:pageopacity="0"
   inkscape:pageshadow="2"
   inkscape:window-width="1280"
   inkscape:window-height="724"
   id="namedview3035"
   showgrid="false"
   fit-margin-top="0"
   fit-margin-left="0"
   fit-margin-right="0"
   fit-margin-bottom="0"
   inkscape:zoom="4.72"
   inkscape:cx="33.42023"
   inkscape:cy="35.042845"
   inkscape:window-x="0"
   inkscape:window-y="24"
   inkscape:window-maximized="1"
   inkscape:current-layer="g2987" />
<g
   id="g2987"
   transform="translate(-4.861,-17.632)">
	<path
   d="M 94.639,17.632 H 5.361 c -0.276,0 -0.5,0.224 -0.5,0.5 v 51.3 c 0,0.276 0.224,0.5 0.5,0.5 h 36.83 v 6.513 H 32.88 c -0.086,0 -0.17,0.022 -0.245,0.064 l -8.75,4.922 c -0.198,0.111 -0.296,0.342 -0.239,0.562 0.058,0.22 0.256,0.374 0.484,0.374 h 51.742 c 0.007,0 0.013,0 0.02,0 0.276,0 0.5,-0.224 0.5,-0.5 0,-0.223 -0.146,-0.411 -0.346,-0.476 L 67.367,76.509 C 67.292,76.467 67.208,76.445 67.122,76.445 H 57.81 v -6.513 h 36.83 c 0.276,0 0.5,-0.224 0.5,-0.5 v -51.3 c -0.001,-0.276 -0.224,-0.5 -0.501,-0.5 z M 73.962,81.368 H 26.038 l 6.973,-3.922 h 9.68 14.619 9.68 l 6.972,3.922 z M 43.19,76.446 v -6.482 h 13.62 v 6.482 H 43.19 z M 94.139,68.933 H 5.861 v -50.3 h 88.278 v 50.3 z"
   id="path2989"
   inkscape:connector-curvature="0" />
	<path
   d="m 9.882,66.001 h 80.235 c 0.276,0 0.5,-0.224 0.5,-0.5 V 22.063 c 0,-0.276 -0.224,-0.5 -0.5,-0.5 H 9.882 c -0.276,0 -0.5,0.224 -0.5,0.5 v 43.438 c 0,0.277 0.224,0.5 0.5,0.5 z m 0.5,-43.438 H 89.617 V 65.001 H 10.382 V 22.563 z"
   id="path2991"
   inkscape:connector-curvature="0" />
	<path
   d="M 50.92,31.513 H 27.63 c -0.276,0 -0.5,0.224 -0.5,0.5 v 24.074 c 0,0.276 0.224,0.5 0.5,0.5 h 23.29 c 0.276,0 0.5,-0.224 0.5,-0.5 V 32.013 c 0,-0.276 -0.223,-0.5 -0.5,-0.5 z m -0.5,24.074 H 28.13 V 32.513 h 22.29 v 23.074 z"
   id="path2993"
   inkscape:connector-curvature="0" />
	<path
   d="m 55.473,39.198 h -0.609 c -0.171,0 -0.305,0.129 -0.305,0.295 v 0.626 c 0,1.16 0.99,2.117 2.19,2.117 1.2,0 2.19,-0.958 2.19,-2.117 0,-0.589 0,-0.589 -0.457,-1.178 l -2.647,-3.388 c -0.057,-0.074 -0.057,-0.074 -0.057,-0.313 0,-0.515 0.438,-0.939 0.972,-0.939 0.533,0 0.971,0.424 0.971,0.939 v 0.626 c 0,0.166 0.133,0.295 0.305,0.295 h 0.609 c 0.171,0 0.305,-0.129 0.305,-0.295 V 35.24 c 0,-1.16 -0.99,-2.118 -2.19,-2.118 -1.2,0 -2.19,0.958 -2.19,2.118 0,0.589 0,0.589 0.457,1.178 l 2.647,3.388 c 0.057,0.074 0.057,0.074 0.057,0.313 0,0.515 -0.438,0.939 -0.971,0.939 -0.534,0 -0.972,-0.423 -0.972,-0.939 v -0.626 c 0,-0.167 -0.133,-0.295 -0.305,-0.295 z"
   id="path2995"
   inkscape:connector-curvature="0" />
	<path
   d="m 63.816,42.236 h 0.609 c 0.171,0 0.305,-0.129 0.305,-0.295 v -6.684 c 0,-1.16 -0.99,-2.117 -2.19,-2.117 -1.219,0 -2.209,0.958 -2.209,2.117 v 6.684 c 0,0.166 0.133,0.295 0.305,0.295 h 0.609 c 0.171,0 0.305,-0.129 0.305,-0.295 v -3.664 h 1.962 v 3.664 c -10e-4,0.166 0.133,0.295 0.304,0.295 z M 61.55,37.099 v -1.841 c 0,-0.515 0.438,-0.939 0.99,-0.939 0.534,0 0.972,0.423 0.972,0.939 v 1.841 H 61.55 z"
   id="path2997"
   inkscape:connector-curvature="0" />
	<path
   d="m 67.226,33.121 h -0.609 c -0.171,0 -0.305,0.129 -0.305,0.295 v 8.231 c 0,0.313 0.267,0.589 0.609,0.589 h 2.247 c 0.171,0 0.305,-0.148 0.305,-0.295 v -0.589 c 0,-0.166 -0.133,-0.295 -0.305,-0.295 H 67.53 v -7.641 c 0.001,-0.166 -0.152,-0.295 -0.304,-0.295 z"
   id="path2999"
   inkscape:connector-curvature="0" />
	<path
   d="m 73.739,34.299 c 0.171,0 0.305,-0.129 0.305,-0.295 v -0.589 c 0,-0.166 -0.133,-0.295 -0.305,-0.295 h -2.266 c -0.343,0 -0.609,0.258 -0.609,0.589 v 7.936 c 0,0.313 0.267,0.589 0.609,0.589 h 2.266 c 0.171,0 0.305,-0.129 0.305,-0.295 V 41.35 c 0,-0.166 -0.133,-0.295 -0.305,-0.295 h -1.657 v -2.798 h 1.657 c 0.171,0 0.305,-0.129 0.305,-0.295 v -0.589 c 0,-0.165 -0.133,-0.294 -0.305,-0.294 h -1.657 v -2.781 h 1.657 z"
   id="path3001"
   inkscape:connector-curvature="0" />
	<path
   d="m 78.92,46.129 h -23.6 c -0.276,0 -0.5,0.224 -0.5,0.5 0,0.276 0.224,0.5 0.5,0.5 h 23.6 c 0.276,0 0.5,-0.224 0.5,-0.5 0,-0.276 -0.223,-0.5 -0.5,-0.5 z"
   id="path3003"
   inkscape:connector-curvature="0" />
	<path
   d="m 78.92,48.604 h -23.6 c -0.276,0 -0.5,0.224 -0.5,0.5 0,0.276 0.224,0.5 0.5,0.5 h 23.6 c 0.276,0 0.5,-0.224 0.5,-0.5 0,-0.276 -0.223,-0.5 -0.5,-0.5 z"
   id="path3005"
   inkscape:connector-curvature="0" />
	<path
   d="m 78.92,51.078 h -23.6 c -0.276,0 -0.5,0.224 -0.5,0.5 0,0.276 0.224,0.5 0.5,0.5 h 23.6 c 0.276,0 0.5,-0.224 0.5,-0.5 0,-0.276 -0.223,-0.5 -0.5,-0.5 z"
   id="path3007"
   inkscape:connector-curvature="0" />
	<path
   d="m 78.92,53.553 h -23.6 c -0.276,0 -0.5,0.224 -0.5,0.5 0,0.276 0.224,0.5 0.5,0.5 h 23.6 c 0.276,0 0.5,-0.224 0.5,-0.5 0,-0.276 -0.223,-0.5 -0.5,-0.5 z"
   id="path3009"
   inkscape:connector-curvature="0" />
	<path
   d="m 78.92,56.027 h -23.6 c -0.276,0 -0.5,0.224 -0.5,0.5 0,0.276 0.224,0.5 0.5,0.5 h 23.6 c 0.276,0 0.5,-0.224 0.5,-0.5 0,-0.276 -0.223,-0.5 -0.5,-0.5 z"
   id="path3011"
   inkscape:connector-curvature="0" />
	<path
   d="m 23.47,32.158 h -9.358 c -0.276,0 -0.5,0.224 -0.5,0.5 0,0.276 0.224,0.5 0.5,0.5 h 9.358 c 0.276,0 0.5,-0.224 0.5,-0.5 0,-0.276 -0.223,-0.5 -0.5,-0.5 z"
   id="path3013"
   inkscape:connector-curvature="0" />
	<path
   d="m 23.47,34.787 h -9.358 c -0.276,0 -0.5,0.224 -0.5,0.5 0,0.276 0.224,0.5 0.5,0.5 h 9.358 c 0.276,0 0.5,-0.224 0.5,-0.5 0,-0.276 -0.223,-0.5 -0.5,-0.5 z"
   id="path3015"
   inkscape:connector-curvature="0" />
	<path
   d="m 23.47,37.417 h -9.358 c -0.276,0 -0.5,0.224 -0.5,0.5 0,0.276 0.224,0.5 0.5,0.5 h 9.358 c 0.276,0 0.5,-0.224 0.5,-0.5 0,-0.276 -0.223,-0.5 -0.5,-0.5 z"
   id="path3017"
   inkscape:connector-curvature="0" />
	<path
   d="m 23.47,40.046 h -9.358 c -0.276,0 -0.5,0.224 -0.5,0.5 0,0.276 0.224,0.5 0.5,0.5 h 9.358 c 0.276,0 0.5,-0.224 0.5,-0.5 0,-0.276 -0.223,-0.5 -0.5,-0.5 z"
   id="path3019"
   inkscape:connector-curvature="0" />
	<path
   d="m 23.47,42.675 h -9.358 c -0.276,0 -0.5,0.224 -0.5,0.5 0,0.276 0.224,0.5 0.5,0.5 h 9.358 c 0.276,0 0.5,-0.224 0.5,-0.5 0,-0.276 -0.223,-0.5 -0.5,-0.5 z"
   id="path3021"
   inkscape:connector-curvature="0" />
	<path
   d="m 14.112,28.827 h 16.957 c 0.276,0 0.5,-0.224 0.5,-0.5 v -3.325 c 0,-0.276 -0.224,-0.5 -0.5,-0.5 H 14.112 c -0.276,0 -0.5,0.224 -0.5,0.5 v 3.325 c 0,0.277 0.223,0.5 0.5,0.5 z m 0.5,-3.325 h 15.957 v 2.325 H 14.612 v -2.325 z"
   id="path3023"
   inkscape:connector-curvature="0" />
	<path
   d="M 78.92,27.827 H 36.704 c -0.276,0 -0.5,0.224 -0.5,0.5 0,0.276 0.224,0.5 0.5,0.5 H 78.92 c 0.276,0 0.5,-0.224 0.5,-0.5 0,-0.276 -0.223,-0.5 -0.5,-0.5 z"
   id="path3025"
   inkscape:connector-curvature="0" />
	<path
   d="M 37.388,58.707 H 27.63 c -0.276,0 -0.5,0.224 -0.5,0.5 v 3.146 c 0,0.276 0.224,0.5 0.5,0.5 h 9.758 c 0.276,0 0.5,-0.224 0.5,-0.5 v -3.146 c 0,-0.276 -0.223,-0.5 -0.5,-0.5 z m -0.5,3.147 H 28.13 v -2.146 h 8.758 v 2.146 z"
   id="path3027"
   inkscape:connector-curvature="0" />
	<path
   d="m 50,58.707 h -9.758 c -0.276,0 -0.5,0.224 -0.5,0.5 v 3.146 c 0,0.276 0.224,0.5 0.5,0.5 H 50 c 0.276,0 0.5,-0.224 0.5,-0.5 v -3.146 c 0,-0.276 -0.224,-0.5 -0.5,-0.5 z m -0.5,3.147 H 40.742 V 59.708 H 49.5 v 2.146 z"
   id="path3029"
   inkscape:connector-curvature="0" />
	<path
   d="m 86.333,25.128 h -2.792 c -0.276,0 -0.5,0.224 -0.5,0.5 v 2.699 c 0,0.276 0.224,0.5 0.5,0.5 h 2.792 c 0.276,0 0.5,-0.224 0.5,-0.5 v -2.699 c 0,-0.276 -0.223,-0.5 -0.5,-0.5 z m -0.5,2.699 h -1.792 v -1.699 h 1.792 v 1.699 z"
   id="path3031"
   inkscape:connector-curvature="0" />
	<path
   d="m 31.027,43.195 2.314,1.071 c 0.027,0.045 0.056,0.089 0.099,0.125 0.011,0.01 0.025,0.013 0.037,0.021 v 7.382 c 0,0.276 0.224,0.5 0.5,0.5 h 10.597 c 0.276,0 0.5,-0.224 0.5,-0.5 V 44.33 l 2.45,-1.134 c 0.177,-0.082 0.29,-0.259 0.29,-0.454 0,-4.593 -4.147,-7.282 -4.324,-7.394 -0.08,-0.051 -0.173,-0.078 -0.268,-0.078 h -1.481 c -0.276,0 -0.5,0.224 -0.5,0.5 0,0.529 -0.213,1.027 -0.6,1.401 -0.78,0.754 -2.155,0.759 -2.943,-10e-4 -0.389,-0.373 -0.603,-0.869 -0.603,-1.399 0,-0.276 -0.224,-0.5 -0.5,-0.5 h -1.451 c -0.099,0 -0.195,0.029 -0.277,0.083 -0.169,0.112 -4.131,2.802 -4.131,7.389 10e-4,0.194 0.114,0.371 0.291,0.452 z m 4.279,-6.925 h 0.833 c 0.105,0.614 0.404,1.177 0.867,1.62 1.16,1.12 3.176,1.116 4.332,0 0.46,-0.445 0.757,-1.007 0.862,-1.62 h 0.87 c 0.623,0.438 3.567,2.685 3.738,6.156 l -2.097,0.971 -1.502,-1.772 c -0.178,-0.21 -0.494,-0.236 -0.705,-0.058 -0.211,0.178 -0.237,0.494 -0.058,0.705 l 1.629,1.922 v 7.102 H 34.478 V 44.01 c 0,-0.019 -0.013,-0.033 -0.015,-0.051 l 1.431,-1.688 c 0.179,-0.21 0.153,-0.526 -0.058,-0.705 -0.21,-0.179 -0.527,-0.152 -0.705,0.058 l -1.442,1.701 -1.944,-0.9 c 0.162,-3.45 2.95,-5.702 3.561,-6.155 z"
   id="path3033"
   inkscape:connector-curvature="0" />
</g>
</svg>