<svg xmlns="http://www.w3.org/2000/svg" xmlns:xlink="http://www.w3.org/1999/xlink" version="1.1" id="Layer_1" x="0px" y="0px" width="100px" height="100px" viewBox="0 0 100 100" enable-background="new 0 0 100 100" xml:space="preserve">
<path fill="#000000" d="M94.41,76.95c2.156,0,3.9-1.743,3.9-3.896V16.078c0-2.155-1.744-3.899-3.9-3.899H5.588  c-2.154,0-3.899,1.745-3.899,3.899v56.977c0,2.152,1.746,3.896,3.899,3.896 M95.467,68H4.532V16.239h90.935V68L95.467,68z   M59.479,79.574c-0.6-0.803-1.603-3.672-1.603-3.672h-15.75c0,0-1.003,2.869-1.604,3.672c-1.193,1.595-1.34,1.123-5.741,5.523  c-1.378,1.379,0,1.949,0,1.949H49.73h0.539c0,0,11.211,0,14.949,0c0.487,0,1.378-0.57,0-1.949  C60.818,80.697,60.672,81.169,59.479,79.574z"/>
</svg>