<?xml version="1.0" encoding="UTF-8" standalone="no"?>
<svg
   xmlns:dc="http://purl.org/dc/elements/1.1/"
   xmlns:cc="http://creativecommons.org/ns#"
   xmlns:rdf="http://www.w3.org/1999/02/22-rdf-syntax-ns#"
   xmlns:svg="http://www.w3.org/2000/svg"
   xmlns="http://www.w3.org/2000/svg"
   xmlns:sodipodi="http://sodipodi.sourceforge.net/DTD/sodipodi-0.dtd"
   xmlns:inkscape="http://www.inkscape.org/namespaces/inkscape"
   version="1.1"
   id="Layer_1"
   x="0px"
   y="0px"
   width="37.709999"
   height="94.255165"
   viewBox="0 0 193.0752 482.58645"
   enable-background="new 0 0 512 512"
   xml:space="preserve"
   inkscape:version="0.48.3.1 r9886"
   sodipodi:docname="shop.svg"><metadata
   id="metadata3048"><rdf:RDF><cc:Work
       rdf:about=""><dc:format>image/svg+xml</dc:format><dc:type
         rdf:resource="http://purl.org/dc/dcmitype/StillImage" /></cc:Work></rdf:RDF></metadata><defs
   id="defs3046" /><sodipodi:namedview
   pagecolor="#ffffff"
   bordercolor="#666666"
   borderopacity="1"
   objecttolerance="10"
   gridtolerance="10"
   guidetolerance="10"
   inkscape:pageopacity="0"
   inkscape:pageshadow="2"
   inkscape:window-width="1280"
   inkscape:window-height="724"
   id="namedview3044"
   showgrid="false"
   inkscape:zoom="18.88"
   inkscape:cx="19.803354"
   inkscape:cy="42.754588"
   inkscape:window-x="0"
   inkscape:window-y="24"
   inkscape:window-maximized="1"
   inkscape:current-layer="Layer_1"
   inkscape:snap-grids="true"
   inkscape:snap-to-guides="false"
   fit-margin-top="0"
   fit-margin-left="0"
   fit-margin-right="0"
   fit-margin-bottom="0" />
<path
   d="m 0,78.440676 c 0,11.230975 7.707551,20.588421 18.101695,23.287074 l 0,79.2892 -12.067797,0 C 2.710352,181.01695 0,183.71561 0,187.05085 c 0,3.33524 2.710729,6.0339 6.033898,6.0339 l 181.016952,0 c 3.34692,0 6.0339,-2.69866 6.0339,-6.0339 0,-3.33524 -2.68698,-6.0339 -6.0339,-6.0339 l -12.0678,0 0,-79.2892 c 10.39453,-2.698653 18.1017,-12.056099 18.1017,-23.287074 l 0,-6.033896 -193.08475,0 z m 120.67797,24.135594 c 13.34057,0 24.13559,-10.806714 24.13559,-24.135594 0,11.230975 7.70755,20.588421 18.10169,23.287074 l 0,79.2892 -90.50847,0 0,-78.44068 c 13.34057,0 24.13559,-10.806714 24.13559,-24.135594 0,13.32888 10.81878,24.135594 24.1356,24.135594 z m -54.30509,-0.84852 0,79.2892 -36.203388,0 0,-79.2892 C 40.56401,99.029097 48.27119,89.671651 48.27119,78.440676 c 0,11.230975 7.70755,20.588421 18.10169,23.287074 z m 102.57627,-83.626055 -144.813556,0 L 0,66.372882 l 193.08475,0 z M 50.98192,31.513165 38.91412,55.648759 c -0.542298,1.060835 -1.602756,1.673652 -2.71073,1.673652 -0.448017,0 -0.907347,-0.09428 -1.343674,-0.318288 -1.485093,-0.742547 -2.097911,-2.557241 -1.343673,-4.042335 L 45.58384,28.826195 c 0.75424,-1.485093 2.55724,-2.085843 4.04233,-1.355364 1.49717,0.742546 2.08622,2.557241 1.35575,4.042334 z m 24.13559,0 -12.0678,24.135594 c -0.54229,1.060835 -1.60275,1.673652 -2.71073,1.673652 -0.44801,0 -0.90734,-0.09428 -1.34367,-0.318288 -1.48509,-0.742547 -2.09791,-2.557241 -1.34367,-4.042335 L 69.71943,28.826195 c 0.75424,-1.485093 2.56931,-2.085843 4.04234,-1.355364 1.49716,0.742546 2.08622,2.557241 1.35574,4.042334 z m 24.44181,22.79192 c 0,1.673652 -1.34367,3.016949 -3.01695,3.016949 -1.66158,0 -3.01695,-1.343674 -3.01695,-3.016949 l 0,-24.135593 c 0,-1.673653 1.35537,-3.016949 3.01695,-3.016949 1.67365,0 3.01695,1.343673 3.01695,3.016949 z m 34.64778,2.639831 c -0.4714,0.259457 -0.96656,0.377118 -1.46134,0.377118 -1.06083,0 -2.09791,-0.565678 -2.63983,-1.567305 L 116.90678,31.619136 c -0.80138,-1.461335 -0.25945,-3.299788 1.20225,-4.089475 1.43796,-0.801377 3.2998,-0.282839 4.10117,1.190187 l 13.19915,24.135593 c 0.77762,1.461334 0.25908,3.299788 -1.20225,4.089475 z m 24.01793,0.05883 c -0.42426,0.224009 -0.87228,0.318288 -1.34367,0.318288 -1.10798,0 -2.16844,-0.612817 -2.68698,-1.673652 L 142.12659,31.512788 c -0.75424,-1.485093 -0.14142,-3.299788 1.34367,-4.042335 1.46134,-0.742546 3.29979,-0.141419 4.05403,1.355365 l 12.0678,24.135593 c 0.73048,1.485094 0.14141,3.300165 -1.36706,4.042335 z m -106.93689,88.729234 0,-13.90625 c -1.76794,-1.06084 -3.01695,-2.89929 -3.01695,-5.11486 0,-3.33524 2.71073,-6.0339 6.0339,-6.0339 3.34692,0 6.03389,2.69866 6.03389,6.0339 0,2.21557 -1.23732,4.05402 -3.01695,5.11486 l 0,13.90625 c 1.77963,1.06083 3.01695,2.89928 3.01695,5.11486 0,3.33524 -2.68697,6.03389 -6.03389,6.03389 -3.32355,0 -6.0339,-2.69865 -6.0339,-6.03389 0,-2.21596 1.24939,-4.05441 3.01695,-5.11486 z M 24.135594,6.0338983 C 24.135594,2.698661 26.846322,0 30.169492,0 L 162.91525,0 c 3.34693,0 6.0339,2.698661 6.0339,6.0338983 0,3.3352375 -2.68697,6.0338987 -6.0339,6.0338987 l -132.745758,0 c -3.32317,0 -6.033898,-2.6986612 -6.033898,-6.0338987 z"
   id="path3042"
   inkscape:connector-curvature="0"
   sodipodi:nodetypes="sccssssssccsccssccccccscccccccccccccscccccccscccccssssssscscccccccsccccccccsssccssscsssssss" />
<path
   inkscape:connector-curvature="0"
   d="m 83.77171,138.4954 10.03824,4.64606 c 0.11713,0.19521 0.24294,0.38608 0.42947,0.54226 0.0477,0.0433 0.10845,0.0564 0.1605,0.0911 v 32.02349 c 0,1.1973 0.97173,2.16903 2.16903,2.16903 h 45.97032 c 1.19731,0 2.16903,-0.97173 2.16903,-2.16903 V 143.4191 l 10.62822,-4.91935 c 0.76783,-0.35571 1.25803,-1.12355 1.25803,-1.96947 0,-19.92467 -17.98989,-31.58968 -18.75773,-32.07554 -0.34704,-0.22125 -0.75048,-0.33837 -1.16259,-0.33837 h -6.42466 c -1.19729,0 -2.16902,0.97172 -2.16902,2.16902 0,2.29483 -0.924,4.45518 -2.60283,6.07761 -3.38368,3.27089 -9.3485,3.29258 -12.76689,-0.004 -1.68749,-1.61809 -2.61584,-3.76977 -2.61584,-6.06893 0,-1.1973 -0.97172,-2.16902 -2.16902,-2.16902 h -6.29451 c -0.42947,0 -0.84592,0.1258 -1.20164,0.36005 -0.73313,0.48586 -17.92049,12.15522 -17.92049,32.05386 0.004,0.84158 0.49454,1.60941 1.26238,1.9608 z m 18.56251,-30.04099 h 3.6136 c 0.4555,2.66356 1.75257,5.10588 3.76109,7.02764 5.03214,4.85861 13.77764,4.84126 18.79243,0 1.99551,-1.93044 3.28391,-4.36842 3.7394,-7.02764 h 3.7741 c 2.70261,1.90006 15.47383,11.64766 16.21563,26.70503 l -9.09688,4.21226 -6.51575,-7.68704 c -0.77218,-0.91098 -2.143,-1.02378 -3.05833,-0.2516 -0.91533,0.77217 -1.02812,2.143 -0.25161,3.05833 l 7.06668,8.33773 v 30.80883 H 98.74231 v -31.60704 c 0,-0.0824 -0.0564,-0.14315 -0.0651,-0.22123 l 6.20775,-7.32263 c 0.77651,-0.91099 0.66372,-2.28182 -0.25161,-3.05833 -0.91098,-0.77652 -2.28615,-0.65939 -3.05832,0.25161 l -6.25547,7.37902 -8.43317,-3.90424 c 0.70277,-14.96628 12.79725,-24.73556 15.44779,-26.7007 z"
   id="path3033" /><path
   style="fill:#000000"
   inkscape:connector-curvature="0"
   d="m 192.41583,442.26818 -19.15797,-30.67555 11.93076,-3.40024 c 1.65668,-0.47499 2.8905,-1.86907 3.15502,-3.57402 0.26261,-1.70495 -0.4885,-3.40603 -1.92506,-4.35795 L 174.28507,392.2126 C 172.60329,345.65768 134.09425,308.16041 87.216869,308.16041 39.128844,308.16041 0,347.28539 0,395.37342 c 0,48.08996 39.128844,87.21301 87.216869,87.21301 31.003791,0 59.727241,-16.74247 75.257141,-43.20489 l 9.69291,15.51638 c 0.84184,1.34195 2.2784,2.07954 3.75165,2.07954 0.79938,0 1.60648,-0.21627 2.33441,-0.67001 l 12.75139,-7.95128 c 0.99246,-0.62173 1.69915,-1.61034 1.96754,-2.7534 0.26453,-1.14307 0.0618,-2.34213 -0.55608,-3.33459 z M 93.681379,330.88275 c 5.64777,0 12.052421,0 13.160731,0.89399 0,0 0.003,0.0135 0.0135,0.0424 -1.35545,1.45008 -6.25598,3.90227 -9.264251,5.4064 -7.62496,3.81538 -14.20919,7.1075 -14.20919,12.78615 0,3.45044 2.53715,5.85437 4.99127,8.17912 2.66265,2.52556 5.41026,5.13028 5.46239,8.70431 0.0521,3.9486 -3.11447,9.23337 -9.15998,15.28274 -3.36163,3.36162 -6.34287,7.03412 -5.38517,11.11981 1.00597,4.29809 5.33689,5.75589 10.35519,7.44346 7.03798,2.36916 16.678761,5.61301 23.892441,16.42581 6.43748,9.65429 -17.178841,37.7869 -36.945041,55.77671 -5.13609,-0.69897 -10.10611,-1.88645 -14.87919,-3.53347 3.92157,-12.34977 2.70512,-15.77125 -3.71111,-23.44835 -2.0525,-2.45991 -4.61283,-5.52225 -7.71571,-10.17562 -7.538072,-11.31289 -0.68159,-18.94366 8.34517,-27.05133 1.10058,-0.98859 2.08532,-1.87679 2.88277,-2.67037 1.21258,-1.21258 11.71451,-12.13932 7.74659,-21.70478 -2.61437,-6.30039 -10.02307,-9.36466 -22.64896,-9.36466 -5.168905,0 -8.856842,-1.56206 -11.278138,-4.77694 -6.024263,-7.99569 -3.456222,-24.68411 -1.600667,-31.98081 10.808942,-10.12157 24.440805,-17.21167 39.607695,-19.93805 3.23226,4.74798 10.10998,12.58341 20.33967,12.58341 z m -84.84384,64.49067 c 0,-16.59959 5.22104,-31.98081 14.062441,-44.66848 -0.534848,8.3027 0.272251,18.04581 5.363925,24.81925 4.145552,5.51261 10.320437,8.31042 18.350884,8.31042 11.93655,0 14.10684,2.99863 14.48915,3.91771 1.12183,2.70899 -2.15677,8.37413 -5.83312,12.064 -0.69318,0.69318 -1.56979,1.47712 -2.53715,2.34406 -7.20017,6.46838 -22.191351,19.93032 -9.795241,38.52643 3.371281,5.04919 6.209641,8.45329 8.285311,10.93831 4.52593,5.41992 5.00478,6.13627 2.32282,14.41192 C 27.15366,453.41502 8.837539,426.52782 8.837539,395.37342 z m 79.86802,78.31948 c 15.456521,-15.00664 42.959671,-45.26704 32.185481,-61.4264 -8.88967,-13.32872 -21.119731,-17.44144 -28.426101,-19.90135 -1.29367,-0.43638 -2.79202,-0.94033 -3.84434,-1.3767 0.4441,-0.58313 1.15658,-1.41533 2.30352,-2.56225 7.99569,-8.00149 11.834231,-15.08194 11.745411,-21.65265 -0.0985,-7.30057 -4.983551,-11.93271 -8.213861,-14.99505 -0.54451,-0.5194 -1.21259,-1.15272 -1.70882,-1.67405 1.79183,-1.47132 6.07255,-3.61071 8.798921,-4.97389 7.6153,-3.81151 14.1976,-7.09977 14.1976,-12.77264 0,-10.3127 -9.73539,-10.3127 -22.058121,-10.3127 -4.05673,0 -7.42995,-2.33827 -9.9111,-4.87542 1.15272,-0.0463 2.28227,-0.17185 3.44658,-0.17185 39.934021,0 73.150571,30.27393 77.790421,69.06488 l -29.06521,-19.28156 c -1.43656,-0.96157 -3.30562,-0.97895 -4.7866,-0.0637 -1.46745,0.91523 -2.26489,2.60666 -2.03705,4.3232 l 7.95321,60.04197 c 0.22397,1.7146 1.4269,3.13379 3.07586,3.64353 1.64509,0.51361 3.44272,0.0174 4.59158,-1.26857 l 8.27179,-9.21985 4.08569,6.54175 c -13.06225,25.71903 -39.52081,42.35724 -68.394861,42.91332 z M 177.3223,446.47552 157.40164,414.57001 c -0.73759,-1.17782 -1.98492,-1.94244 -3.36935,-2.06216 -0.1255,-0.0135 -0.25487,-0.0174 -0.38038,-0.0174 -1.24926,0 -2.4464,0.52906 -3.28632,1.46746 l -5.78678,6.45099 -5.41606,-40.89365 34.38279,22.80923 -8.35482,2.38075 c -1.33229,0.38231 -2.41164,1.36705 -2.91173,2.66266 -0.49623,1.29753 -0.35914,2.7534 0.37459,3.92543 l 19.92452,31.89971 -5.2558,3.28246 z"
   id="path3" /><path
   style="fill:#000000;fill-opacity:1;stroke:none"
   d="m 86.058092,225.86726 0,20.95974 -20.95729,0 0,20.24135 20.95729,0 0,20.95729 20.957288,0 0,-20.95729 20.95728,0 0,-20.24135 -20.95728,0 0,-20.95974 z"
   id="path3108"
   inkscape:connector-curvature="0"
   sodipodi:nodetypes="ccccccccccccc" /></svg>