<?xml version="1.0" encoding="UTF-8" standalone="no"?>
<svg
   xmlns:dc="http://purl.org/dc/elements/1.1/"
   xmlns:cc="http://creativecommons.org/ns#"
   xmlns:rdf="http://www.w3.org/1999/02/22-rdf-syntax-ns#"
   xmlns:svg="http://www.w3.org/2000/svg"
   xmlns="http://www.w3.org/2000/svg"
   xmlns:sodipodi="http://sodipodi.sourceforge.net/DTD/sodipodi-0.dtd"
   xmlns:inkscape="http://www.inkscape.org/namespaces/inkscape"
   version="1.1"
   id="Capa_1"
   x="0px"
   y="0px"
   width="44.759224"
   height="27.048466"
   viewBox="0 0 44.759224 27.048466"
   enable-background="new 0 0 100 100"
   xml:space="preserve"
   inkscape:version="0.48.3.1 r9886"
   sodipodi:docname="tie.svg"><metadata
   id="metadata36"><rdf:RDF><cc:Work
       rdf:about=""><dc:format>image/svg+xml</dc:format><dc:type
         rdf:resource="http://purl.org/dc/dcmitype/StillImage" /></cc:Work></rdf:RDF></metadata><defs
   id="defs34" /><sodipodi:namedview
   pagecolor="#ffffff"
   bordercolor="#666666"
   borderopacity="1"
   objecttolerance="10"
   gridtolerance="10"
   guidetolerance="10"
   inkscape:pageopacity="0"
   inkscape:pageshadow="2"
   inkscape:window-width="640"
   inkscape:window-height="480"
   id="namedview32"
   showgrid="false"
   inkscape:zoom="1.668772"
   inkscape:cx="42.629842"
   inkscape:cy="-2.9895653"
   inkscape:window-x="0"
   inkscape:window-y="24"
   inkscape:window-maximized="0"
   inkscape:current-layer="Capa_1"
   fit-margin-top="0"
   fit-margin-left="0"
   fit-margin-right="0"
   fit-margin-bottom="0" />

<g
   id="g3037"
   transform="matrix(0.98650722,0.16371775,-0.16371775,0.98650722,-18.278384,-45.384183)"><path
     id="path26"
     d="m 46.757669,48.323812 v 6.275 c 0,0 1.219,0.473 3.05,0.473 1.832,0 2.91,-0.473 2.91,-0.473 v -6.275 c 0,0 -1.078,-0.474 -2.91,-0.474 -1.831,0 -3.05,0.474 -3.05,0.474 z"
     inkscape:connector-curvature="0" /><path
     id="path28"
     d="m 68.701669,40.897812 c 0,0 -3.962,0.053 -9.21,2.775 -3.311,1.72 -4.13,3.725 -6.692,4.805 0.084,0.167 0.214,0.448 0.338,0.823 0.116,0.371 0.191,0.819 0.245,1.292 0.016,0 0.033,0 0.049,0 0.813,0.021 1.681,0.139 2.549,0.199 3.468,0.217 6.938,0.583 6.938,0.583 v 0.167 c 0,0 -3.47,0.371 -6.938,0.587 -0.868,0.062 -1.736,0.176 -2.549,0.2 -0.018,0 -0.035,0 -0.051,-0.004 -0.053,0.473 -0.13,0.925 -0.245,1.291 -0.122,0.379 -0.252,0.66 -0.336,0.822 2.562,1.08 3.381,3.09 6.692,4.805 5.249,2.724 9.21,2.779 9.21,2.779 0,0 3.288,-1.377 3.288,-10.677 0,-9.302 -3.288,-10.447 -3.288,-10.447 z"
     inkscape:connector-curvature="0" /><path
     id="path30"
     d="m 43.493669,50.791812 c 0.868,-0.062 1.736,-0.18 2.549,-0.199 0.018,0 0.034,0 0.051,0 0.053,-0.473 0.13,-0.921 0.247,-1.292 0.124,-0.375 0.254,-0.656 0.336,-0.819 -2.563,-1.08 -3.38,-3.089 -6.693,-4.809 -5.249,-2.723 -9.21,-2.775 -9.21,-2.775 0,0 -3.289,1.146 -3.289,10.449 0,9.3 3.289,10.678 3.289,10.678 0,0 3.961,-0.058 9.21,-2.779 3.311,-1.721 4.13,-3.726 6.693,-4.806 -0.083,-0.163 -0.214,-0.444 -0.338,-0.823 -0.116,-0.365 -0.192,-0.817 -0.245,-1.291 -0.017,0.004 -0.033,0.004 -0.051,0.004 -0.813,-0.023 -1.681,-0.139 -2.549,-0.199 -3.468,-0.217 -6.938,-0.587 -6.938,-0.587 v -0.169 c 0,0 3.47,-0.366 6.938,-0.583 z"
     inkscape:connector-curvature="0" /></g></svg>