<?xml version="1.0" encoding="UTF-8" standalone="no"?>
<svg
   xmlns:dc="http://purl.org/dc/elements/1.1/"
   xmlns:cc="http://creativecommons.org/ns#"
   xmlns:rdf="http://www.w3.org/1999/02/22-rdf-syntax-ns#"
   xmlns:svg="http://www.w3.org/2000/svg"
   xmlns="http://www.w3.org/2000/svg"
   xmlns:sodipodi="http://sodipodi.sourceforge.net/DTD/sodipodi-0.dtd"
   xmlns:inkscape="http://www.inkscape.org/namespaces/inkscape"
   version="1.1"
   id="Layer_1"
   x="0px"
   y="0px"
   width="59.918251"
   height="59.917252"
   viewBox="0 0 59.918251 59.917252"
   enable-background="new 0 0 100 100"
   xml:space="preserve"
   inkscape:version="0.48.3.1 r9886"
   sodipodi:docname="wand.svg"><metadata
   id="metadata23"><rdf:RDF><cc:Work
       rdf:about=""><dc:format>image/svg+xml</dc:format><dc:type
         rdf:resource="http://purl.org/dc/dcmitype/StillImage" /></cc:Work></rdf:RDF></metadata><defs
   id="defs21" /><sodipodi:namedview
   pagecolor="#ffffff"
   bordercolor="#666666"
   borderopacity="1"
   objecttolerance="10"
   gridtolerance="10"
   guidetolerance="10"
   inkscape:pageopacity="0"
   inkscape:pageshadow="2"
   inkscape:window-width="640"
   inkscape:window-height="480"
   id="namedview19"
   showgrid="false"
   fit-margin-top="0"
   fit-margin-left="0"
   fit-margin-right="0"
   fit-margin-bottom="0"
   inkscape:zoom="2.36"
   inkscape:cx="46.62675"
   inkscape:cy="44.9585"
   inkscape:window-x="0"
   inkscape:window-y="24"
   inkscape:window-maximized="0"
   inkscape:current-layer="Layer_1" />
<path
   d="m 59.10175,0.81675 c -1.089,-1.089 -2.855,-1.089 -3.944,0 l -54.341,54.339 c -1.089,1.09 -1.089,2.855 0,3.944 1.089,1.09 2.854,1.09 3.944,0 l 6.872,-6.872 7.57,-7.57 39.897,-39.897 c 1.091,-1.089 1.091,-2.855 0.002,-3.944 z m -3.154,0.648 c 0.691,-0.692 1.813,-0.691 2.505,0 0.691,0.691 0.692,1.813 0,2.505 l -4.808,4.808 c -0.691,0.691 -1.813,0.691 -2.505,0 -0.692,-0.691 -0.692,-1.813 -10e-4,-2.504 l 4.809,-4.809 z m -51.712,56.723 c -0.691,0.69 -1.813,0.69 -2.504,-10e-4 -0.691,-0.691 -0.692,-1.813 -10e-4,-2.505 l 4.809,-4.809 c 0.111,-0.111 0.237,-0.198 0.366,-0.273 0.074,0.595 0.328,1.172 0.785,1.629 0.457,0.456 1.033,0.709 1.628,0.783 -0.076,0.13 -0.163,0.255 -0.274,0.366 l -4.809,4.81 z"
   id="path3"
   inkscape:connector-curvature="0" />







</svg>