<!-- Created with Inkscape (http://www.inkscape.org/) -->
<svg xmlns:rdf="http://www.w3.org/1999/02/22-rdf-syntax-ns#" xmlns="http://www.w3.org/2000/svg" height="253.38" width="253.38" version="1.1" xmlns:cc="http://creativecommons.org/ns#" xmlns:dc="http://purl.org/dc/elements/1.1/">
	<metadata>
		<rdf:RDF>
			<cc:Work rdf:about="">
				<dc:format>image/svg+xml</dc:format>
				<dc:type rdf:resource="http://purl.org/dc/dcmitype/StillImage"/>
				<dc:title/>
			</cc:Work>
		</rdf:RDF>
	</metadata>
	<path stroke-linejoin="miter" d="m126.69,1.5c69.549,0,125.19,55.639,125.19,125.19,0,69.549-51.003,125.19-125.19,125.19s-125.19-60.28-125.19-125.19c0-64.914,55.639-125.19,125.19-125.19z" stroke="#FFF" stroke-linecap="butt" stroke-miterlimit="4" stroke-dasharray="none" stroke-width="1" fill="#FFF"/>
	<path stroke-linejoin="miter" d="m226.55,135.47c3.1798-16.969,5.042-33.819,1.4066-50.168" stroke="#686868" stroke-linecap="butt" stroke-miterlimit="4" stroke-dasharray="none" stroke-width="1" fill="none"/>
	<path stroke-linejoin="miter" style="enable-background:accumulate;color:#000000;" d="M146.73,65.256,187.29,49.549" stroke-dashoffset="0" stroke="#686868" stroke-linecap="butt" stroke-miterlimit="4" stroke-dasharray="none" stroke-width="1" fill="none"/>
	<path stroke-linejoin="miter" style="enable-background:accumulate;color:#000000;" d="M94.419,48.942,88.12,20.43" stroke-dashoffset="0" stroke="#686868" stroke-linecap="butt" stroke-miterlimit="4" stroke-dasharray="none" stroke-width="1" fill="none"/>
	<path stroke-linejoin="miter" style="enable-background:accumulate;color:#000000;" d="m21.481,101.32,36.8-7.952" stroke-dashoffset="0" stroke="#686868" stroke-linecap="butt" stroke-miterlimit="4" stroke-dasharray="none" stroke-width="1" fill="none"/>
	<path stroke-linejoin="miter" style="enable-background:accumulate;color:#000000;" d="M87.788,138.46c-4.267,14.39-8.593,28.64-10.278,49.06" stroke-dashoffset="0" stroke="#686868" stroke-linecap="butt" stroke-miterlimit="4" stroke-dasharray="none" stroke-width="1" fill="none"/>
	<path stroke-linejoin="miter" style="enable-background:accumulate;color:#000000;" d="m143.49,121.55s21.881,15.582,40.779,33.817" stroke-dashoffset="0" stroke="#686868" stroke-linecap="butt" stroke-miterlimit="4" stroke-dasharray="none" stroke-width="1" fill="none"/>
	<path stroke-linejoin="miter" style="enable-background:accumulate;color:#000000;" d="m170.67,206.09s-7.6254,5.3046-50.725,16.245" stroke-dashoffset="0" stroke="#686868" stroke-linecap="butt" stroke-miterlimit="4" stroke-dasharray="none" stroke-width="1" fill="none"/>
	<path stroke-linejoin="miter" style="enable-background:accumulate;color:#000000;" d="M37.726,192.5c-11.161-11.28-19.532-25.34-27.186-40.12" stroke-dashoffset="0" stroke="#686868" stroke-linecap="butt" stroke-miterlimit="4" stroke-dasharray="none" stroke-width="1" fill="none"/>
	<path stroke-linejoin="miter" style="enable-background:accumulate;color:#000000;" d="m195.21,232.78s7.9569-8.7857,11.604-17.406" stroke-dashoffset="0" stroke="#686868" stroke-linecap="butt" stroke-miterlimit="4" stroke-dasharray="none" stroke-width="1" fill="none"/>
	<path stroke-linejoin="miter" style="enable-background:accumulate;color:#000000;" d="m238.64,174.59s3.0511-1.725,6.698-6.035" stroke-dashoffset="0" stroke="#686868" stroke-linecap="butt" stroke-miterlimit="4" stroke-dasharray="none" stroke-width="1" fill="none"/>
	<path stroke-linejoin="miter" d="m170.35,206.5c5.4207-14.921,10.789-30.924,13.245-51.282,16.543-6.3105,30.055-13,43.108-19.747,5.1174,11.93,10.357,23.751,11.604,39.121-22.427,33.97-31.932,41.531-33.154,41.276-7.4229,1.0553-24.937-4.6651-34.804-9.3691z" stroke="#000" stroke-linecap="butt" stroke-miterlimit="4" stroke-dasharray="none" stroke-width="1" fill="#000"/>
	<path stroke-linejoin="miter" d="m143.8,121.4c2.19-18.429,2.4412-37.18,2.8132-55.912-16.89-7.377-34.37-13.013-52.51-16.642-14.058,12.707-25.458,28.071-36.103,44.19,8.549,15.794,19.097,30.574,30.125,45.124z" stroke="#000" stroke-linecap="butt" stroke-miterlimit="4" stroke-dasharray="none" stroke-width="1" fill="#000"/>
	<path stroke-linejoin="miter" d="M119.89,221.97c-14.89-9.03-28.782-21.56-42.432-34.93-18.997,5.4694-29.393,5.4102-39.853,5.3919,4.0154,14.534,9.9255,27.541,18.286,37.744,57.936,22.8,44.351,22.084,64-8.2051z" stroke="#000" stroke-linecap="butt" stroke-miterlimit="4" stroke-dasharray="none" stroke-width="1" fill="#000"/>
	<path stroke-linejoin="round" d="m10.871,152.71c0.51814-15.531,2.7542-34.984,10.941-51.388-2.7949-6.4766-5.1078-14.346-3.9784-32.159-0.63002-0.09031-1.1205,0.48592-1.6601,0.82739-13.468,22.297-16.817,50.032-13.259,78.41,2.2934,2.5134,5.2707,2.975,7.9569,4.31z" stroke="#000" stroke-linecap="butt" stroke-miterlimit="4" stroke-dasharray="none" stroke-width="1" fill="#000"/>
	<path stroke-linejoin="miter" d="M88.285,20.098c0.784-3.618,13.545-9.481,42.605-18.4-19.82-0.89304-48.216,2.3795-80.4,26.523,14.938-5.308,30.552-11.365,37.795-8.123z" stroke="#000" stroke-linecap="butt" stroke-miterlimit="4" stroke-dasharray="none" stroke-width="1" fill="#000"/>
	<path stroke-linejoin="miter" d="m178.3,18.109c6.0566,9.9405,8.3424,20.509,9.1173,31.33,24.472,15.587,34.233,26.719,40.448,35.972l12.764-10.775c-6.7027-11.822-19.966-45.223-62.329-56.527z" stroke="#000" stroke-linecap="butt" stroke-miterlimit="4" stroke-dasharray="none" stroke-width="1" fill="#000"/>
</svg>
