<?xml version="1.0" encoding="UTF-8" standalone="no"?>
<!-- Created with Inkscape (http://www.inkscape.org/) -->

<svg
   xmlns:dc="http://purl.org/dc/elements/1.1/"
   xmlns:cc="http://creativecommons.org/ns#"
   xmlns:rdf="http://www.w3.org/1999/02/22-rdf-syntax-ns#"
   xmlns:svg="http://www.w3.org/2000/svg"
   xmlns="http://www.w3.org/2000/svg"
   xmlns:sodipodi="http://sodipodi.sourceforge.net/DTD/sodipodi-0.dtd"
   xmlns:inkscape="http://www.inkscape.org/namespaces/inkscape"
   id="svg2"
   version="1.1"
   inkscape:version="0.48.3.1 r9886"
   width="598.57605"
   height="872.23016"
   sodipodi:docname="blue-sky-op.svg">
  <metadata
     id="metadata8">
    <rdf:RDF>
      <cc:Work
         rdf:about="">
        <dc:format>image/svg+xml</dc:format>
        <dc:type
           rdf:resource="http://purl.org/dc/dcmitype/StillImage" />
        <dc:title />
      </cc:Work>
    </rdf:RDF>
  </metadata>
  <defs
     id="defs6" />
  <sodipodi:namedview
     pagecolor="#ffffff"
     bordercolor="#666666"
     borderopacity="1"
     objecttolerance="10"
     gridtolerance="10"
     guidetolerance="10"
     inkscape:pageopacity="0"
     inkscape:pageshadow="2"
     inkscape:window-width="1280"
     inkscape:window-height="724"
     id="namedview4"
     showgrid="true"
     inkscape:zoom="0.44500586"
     inkscape:cx="-218.82529"
     inkscape:cy="682.48878"
     inkscape:window-x="0"
     inkscape:window-y="24"
     inkscape:window-maximized="1"
     inkscape:current-layer="svg2"
     fit-margin-top="10"
     fit-margin-left="10"
     fit-margin-right="10"
     fit-margin-bottom="10">
    <inkscape:grid
       type="xygrid"
       id="grid4305"
       empspacing="5"
       visible="true"
       enabled="true"
       snapvisiblegridlinesonly="true"
       originx="-210.85164px"
       originy="-393.08452px" />
  </sodipodi:namedview>
  <path
     style="color:#000000;fill:#bdfafe;fill-opacity:1;fill-rule:nonzero;stroke:none;stroke-width:1;marker:none;visibility:visible;display:inline;overflow:visible;enable-background:accumulate"
     d="m 56.892009,570.5318 -7.94492,-20.25953 21.45127,-103.2839 42.108051,-3.17797 11.12288,115.20127 z"
     id="path2987"
     inkscape:connector-curvature="0"
     sodipodi:nodetypes="cccccc" />
  <path
     style="color:#000000;fill:#9df1fc;fill-opacity:1;stroke:none;stroke-width:1;marker:none;visibility:visible;display:inline;overflow:visible;enable-background:accumulate"
     d="m 48.947089,550.27227 21.45127,-103.2839 -57.79926,-202.99259 4.12753,71.69593 c 0.63269,4.74767 -7.1367503,13.54646 -6.70963,18.47886 l 0.7945,123.14619 z"
     id="path2987-6"
     inkscape:connector-curvature="0"
     sodipodi:nodetypes="ccccccc" />
  <path
     style="fill:#b4f4fd;fill-opacity:1;stroke:none"
     d="m 256.30938,291.26803 -38.1356,-25.42373 -205.773301,-22.24576 22.24576,24.62923 51.64195,7.94492 26.218221,23.83475 z"
     id="path3833"
     inkscape:connector-curvature="0" />
  <path
     style="fill:#9beaf1;fill-opacity:1;stroke:none"
     d="m 34.646239,268.22777 51.64195,7.94492 27.012711,24.18234 111.22882,-7.15043 29.39618,114.05919 -79.44915,0 -35.75212,-17.47881 z"
     id="path3833-5"
     inkscape:connector-curvature="0"
     sodipodi:nodetypes="cccccccc" />
  <path
     style="fill:#64d3e4;fill-opacity:1;stroke:none"
     d="m 343.91633,862.23014 71.62827,-37.3591 110.6727,36.7972 z"
     id="path3853"
     inkscape:connector-curvature="0"
     sodipodi:nodetypes="cccc" />
  <path
     style="color:#000000;fill:#a0f3f9;fill-opacity:1;fill-rule:nonzero;stroke:none;marker:none;visibility:visible;display:inline;overflow:visible;enable-background:accumulate"
     d="m 415.5446,824.87104 110.6727,36.7972 23.59519,-40.7298 -137.07685,-29.7749 z"
     id="path3853-9"
     inkscape:connector-curvature="0"
     sodipodi:nodetypes="cc" />
  <path
     id="path3853-9-5"
     style="fill:#95ebf2;fill-opacity:1;stroke:none"
     d="m 343.91633,862.23014 71.62827,-37.3591 -2.80896,-33.7075 -289.18157,-232.15982 z"
     inkscape:connector-curvature="0"
     sodipodi:nodetypes="ccccc" />
  <path
     id="path3853-9-5-4"
     style="fill:#73e7f6;fill-opacity:1;stroke:none"
     d="M 56.892009,570.5318 123.59168,559.00769 343.91633,862.23014 159.3682,771.50094 83.526499,634.42408 z"
     inkscape:connector-curvature="0"
     sodipodi:nodetypes="cccccc" />
  <path
     id="path3853-9-5-2"
     style="color:#000000;fill:#79e8f9;fill-opacity:1;fill-rule:nonzero;stroke:none;stroke-width:1;marker:none;visibility:visible;display:inline;overflow:visible;enable-background:accumulate"
     d="m 549.81249,820.93844 -137.07685,-29.7749 -21.67085,-17.3977 46.95142,-214.62167 25.84236,165.72816 94.94256,-14.04476 z"
     inkscape:connector-curvature="0"
     sodipodi:nodetypes="ccc" />
  <path
     id="path3853-9-5-2-4"
     style="color:#000000;fill:#9ceff7;fill-opacity:1;fill-rule:nonzero;stroke:none;marker:none;visibility:visible;display:inline;overflow:visible;enable-background:accumulate"
     d="m 438.01621,559.14417 25.84236,165.72816 94.94256,-14.04476 11.7976,-36.51637 z"
     inkscape:connector-curvature="0"
     sodipodi:nodetypes="ccc" />
  <path
     id="path3853-9-5-2-4-8"
     style="color:#000000;fill:#adedf6;fill-opacity:1;fill-rule:nonzero;stroke:none;stroke-width:1;marker:none;visibility:visible;display:inline;overflow:visible;enable-background:accumulate"
     d="m 570.59873,674.3112 -47.78763,-41.51044 14.642,-116.35266 51.12292,86.51572 z"
     inkscape:connector-curvature="0"
     sodipodi:nodetypes="ccc" />
  <path
     id="path3853-9-5-2-4-8-9"
     style="color:#000000;fill:#79e8f9;fill-opacity:1;fill-rule:nonzero;stroke:none;marker:none;visibility:visible;display:inline;overflow:visible;enable-background:accumulate"
     d="m 438.01621,559.14417 84.79489,73.65659 14.642,-116.35266 -47.75218,-83.70675 -114.60523,3.93253 -34.831,12.35939 11.7976,24.71877 z"
     inkscape:connector-curvature="0"
     sodipodi:nodetypes="ccc" />
  <path
     id="path3853-9-5-2-4-8-9-8"
     style="color:#000000;fill:#9aedf5;fill-opacity:1;stroke:none;marker:none;visibility:visible;display:inline;overflow:visible;enable-background:accumulate"
     d="m 489.70092,432.74135 -114.60523,3.93253 -34.831,12.35939 -92.69541,38.20174 -7.30327,-34.831 13.65989,-45.14022 30.1536,-98.89085 205.62142,124.36841"
     inkscape:connector-curvature="0"
     sodipodi:nodetypes="cccccccc" />
  <path
     id="path3853-9-5-2-4-8-9-8-5"
     style="color:#000000;fill:#7ae9f5;fill-opacity:1;stroke:none;marker:none;visibility:visible;display:inline;overflow:visible;enable-background:accumulate"
     d="M 256.30938,291.26803 284.0795,308.37294 253.9259,407.26379 224.52972,293.2046 z"
     inkscape:connector-curvature="0"
     sodipodi:nodetypes="ccccc" />
  <path
     id="path3853-9-5-2-4-8-9-8-1"
     style="color:#000000;fill:#aef5fb;fill-opacity:1;stroke:none;marker:none;visibility:visible;display:inline;overflow:visible;enable-background:accumulate"
     d="m 340.26469,449.03327 -92.69541,38.20174 -19.06711,59.0648 14.30085,21.45127 191.40872,-12.38652 -82.14945,-81.61252 z"
     inkscape:connector-curvature="0"
     sodipodi:nodetypes="ccccccc" />
  <path
     id="path3833-9"
     style="fill:#69e5f1;fill-opacity:1;stroke:none"
     d="m 34.646239,268.22773 104.078391,121.55721 35.75212,17.47881 79.44915,0 -13.65989,45.14022 7.30327,34.831 -19.06711,59.0648 14.30085,21.45127 191.40872,-12.38652 3.80447,3.77961 -46.95142,214.62171 -267.47311,-214.75818 -11.08527,-115.1973 -42.108051,3.17797 -57.79926,-202.99259 -0.19862,-0.3972 z"
     inkscape:connector-curvature="0"
     sodipodi:nodetypes="ccccccccccccccccc" />
  <path
     style="fill:none;stroke:#ffffff;stroke-width:2.61136007px;stroke-linecap:butt;stroke-linejoin:miter;stroke-opacity:1"
     d="m 117.62819,87.03512 52.2272,-26.1136 52.2272,26.1136 0,65.28399 -52.2272,26.11361 -52.2272,-26.11361 z"
     id="path4307"
     inkscape:connector-curvature="0" />
  <path
     style="fill:none;stroke:#ffffff;stroke-width:2.61136007px;stroke-linecap:butt;stroke-linejoin:miter;stroke-opacity:1"
     d="m 130.68499,94.86919 0,49.61585"
     id="path4309"
     inkscape:connector-curvature="0"
     sodipodi:nodetypes="cc" />
  <path
     style="fill:none;stroke:#ffffff;stroke-width:2.61136007px;stroke-linecap:butt;stroke-linejoin:miter;stroke-opacity:1"
     d="m 169.85539,167.98728 41.78176,-20.89087"
     id="path4311"
     inkscape:connector-curvature="0"
     sodipodi:nodetypes="cc" />
  <path
     style="fill:none;stroke:#ffffff;stroke-width:2.61136007px;stroke-linecap:butt;stroke-linejoin:miter;stroke-opacity:1"
     d="m 172.46674,71.36696 39.17041,20.89088"
     id="path4313"
     inkscape:connector-curvature="0"
     sodipodi:nodetypes="cc" />
  <path
     style="fill:none;stroke:#ffffff;stroke-width:2.61136007px;stroke-linecap:butt;stroke-linejoin:miter;stroke-opacity:1"
     d="m 222.08259,87.03512 52.2272,-26.1136 52.2272,26.1136 36.55905,-18.27952"
     id="path4315"
     inkscape:connector-curvature="0" />
  <path
     style="fill:none;stroke:#ffffff;stroke-width:2.61136007px;stroke-linecap:butt;stroke-linejoin:miter;stroke-opacity:1"
     d="M 437.25336,87.03512 400.69432,68.7556"
     id="path4315-6"
     inkscape:connector-curvature="0"
     sodipodi:nodetypes="cc" />
  <path
     style="fill:none;stroke:#ffffff;stroke-width:2.61136007px;stroke-linecap:butt;stroke-linejoin:miter;stroke-opacity:1"
     d="m 373.54148,75.17027 0,-27.30555 0.97909,0 16.66417,26.1136 0.63626,0 0,-27.48895"
     id="path4335"
     inkscape:connector-curvature="0"
     sodipodi:nodetypes="cccccc" />
  <path
     style="fill:none;stroke:#ffffff;stroke-width:2.61136007px;stroke-linecap:butt;stroke-linejoin:miter;stroke-opacity:1"
     d="m 373.54148,11.30568 0,28.72496 0,-15.66816 18.27952,0 0,-13.0568 0,28.72496"
     id="path4337"
     inkscape:connector-curvature="0"
     sodipodi:nodetypes="cccccc" />
  <path
     id="path4339-7-8-1-8-6-6-6"
     style="fill:none;stroke:#ffffff;stroke-width:2.61136007px;stroke-linecap:butt;stroke-linejoin:miter;stroke-opacity:1"
     d="m 333.06539,148.40414 c 0.13056,-2.60757 -1.30477,-3.9191 -3.91703,-3.9191 -5.22273,0 -5.22273,-7.83408 0,-7.83408 5.22272,0 5.22272,-7.83409 0,-7.83409 -5.22273,0 -5.22273,-7.83407 0,-7.83407 5.22272,0 5.22272,-7.83408 0,-7.83408 -5.22273,0 -5.22273,-7.83408 0,-7.83408 5.22272,0 5.22272,-7.83408 0,-7.83408 -5.22273,0 -5.22273,-10.44544 -2.61137,-10.44544"
     inkscape:connector-curvature="0"
     sodipodi:nodetypes="ccccccccc" />
</svg>
