<!-- Created with Inkscape (http://www.inkscape.org/) -->
<svg xmlns:rdf="http://www.w3.org/1999/02/22-rdf-syntax-ns#" xmlns="http://www.w3.org/2000/svg" height="394.91" width="295.57" version="1.1" xmlns:cc="http://creativecommons.org/ns#" xmlns:dc="http://purl.org/dc/elements/1.1/">
	<metadata>
		<rdf:RDF>
			<cc:Work rdf:about="">
				<dc:format>image/svg+xml</dc:format>
				<dc:type rdf:resource="http://purl.org/dc/dcmitype/StillImage"/>
				<dc:title/>
			</cc:Work>
		</rdf:RDF>
	</metadata>
	<path stroke-linejoin="round" style="enable-background:accumulate;color:#000000;" d="m193.47,291.53c-2.697-21.077-4.9077-43.025-7.5927-64.102,2.1028,1.3088,4.1469-1.9639,3.4852-3.4852-0.16835-11.625-0.49552-21.027-0.99577-28.006,1.7899-1.6699,3.0089-4.0738,2.4894-8.7129-1.1437-32.886-3.5444-56.457-4.4809-90.117,20.737-8.0831,37.416-6.5937,56.668-9.0348,5.8301-0.40984,9.9837-17.691,11.791-24.821l1.2447-10.704c-74.889,7.2073-49.637-4.4959-93.353-7.9661-4.1971,0.38311-8.8066-0.48184-6.4724-11.202-6.1053,6.0195-12.661,3.0041-16.001-1.2512,1.4838,8.4485-2.1617,12.516-6.9016,12.205-6.4027-0.31256-12.406-0.79154-22.654,0.49788-11.918,5.3181-16.832,1.9367-30.371,8.215-18.381,1.106-27.897,0.5501-41.552,0.76998l1.4082,9.6815c6.3721,14.232,12.594,25.311,18.307,25.7,4.4416-0.0969,13.723,2.2262,13.202-0.35205h15.842c7.1585,3.7862,14.317,6.756,21.475,7.5692l0.17603,49.816c0.41463,0.65405,0.78626,1.3425,2.8164,0.70412,0.57598,10.225,2.5721,8.142,4.0486,10.562-1.2947,8.5809-2.6175,12.68,1.9363,29.573-0.55318,36.178-3.7846,69.678-5.8089,104.38z" stroke-dashoffset="0" stroke="#bdbec0" stroke-linecap="butt" stroke-miterlimit="4" stroke-dasharray="none" stroke-width="1" fill="#bdbec0"/>
	<path stroke-linejoin="round" style="enable-background:accumulate;color:#000000;" d="m156.25,33.377c-6.1053,6.0195-12.661,3.0041-16.001-1.2512,0.54138,3.0824,0.39997,5.5816-0.22827,7.4978-1.6341,2.1134,16.843-0.17991,16.229-6.2466z" stroke-dashoffset="0" stroke="#606060" stroke-linecap="butt" stroke-miterlimit="4" stroke-dasharray="none" stroke-width="1" fill="#606060"/>
	<path stroke-linejoin="round" style="enable-background:accumulate;color:#000000;" d="m71.69,88.843,15.842,0c7.1585,3.7862,14.317,6.756,21.475,7.5692l0.17603,49.816c0.41463,0.65405,0.78626,1.3425,2.8164,0.70412,0.57598,10.225,2.5721,8.142,4.0486,10.562-1.2947,8.5809-2.6175,12.68,1.9363,29.573-0.55318,36.178-3.7846,70.132-5.8089,104.84h4.9921l4.9785-94.975c0.85823,0.18664,1.7367,0.38214,2.633,0.58613-1.4191,33.056-1.6742,63.135-2.4924,94.388h2.2159c0.77355-31.139,0.42794-60.358,2.4012-93.897,0.75976,0.17876,1.5302,0.36309,2.3099,0.55279l0.45159,93.344h1.3225l-0.43551-93.015c1.0986,0.27232,2.6368,0.84692,2.6368,0.84692l0.46697,92.168h1.6432l0.23599-91.738s2.5728,0.68917,3.8737,1.0507l0.47547,90.688h1.3509l-0.40648-90.289c1.4886,0.42116,2.9848,0.85632,4.4805,1.3044l0.88401,88.985h3.6118l-0.61342-87.792c1.5514,0.48917,3.0947,0.99122,4.6208,1.5049l1.2021,86.287h1.9481l-0.64342-85.427c1.4169,0.49553,2.8141,1.0007,4.1837,1.5145l3.7021,83.913h1.7153l-3.48-83.173c1.0161,0.39506,2.0143,0.79476,2.9913,1.1986l6.7863,81.974h2.2218l-7.1551-81.192c1.2923,0.55724,2.5414,1.1216,3.7387,1.692l10.038,79.5h2.0646l-9.8467-78.386c1.5706,0.80496,3.0301,1.62,4.3559,2.442l10.588,75.944h1.9969l-10.953-74.883c4.8485,3.324,7.3784,6.7368,6.1106,10.03,5.2484,1.5376,3.6746-1.1886,3.9831-2.7384-3.6711,0.53282-2.3532-0.45276-2.4894-0.99576,1.9981-9.6729-28.528-15.324-64.725-37.092l-2.7384-28.379c-0.52462-2.2655,1.399-8.4304,5.7256-2.4894,4.3837-2.465-0.60527-6.1003-6.2235-7.9661l2.4894-54.767h7.2193c1.8507-7.7987,6.6942-6.2014,8.215,3.4852l14.19,5.2278-8.7129-10.456c-8.2959-8.5454,11.016-4.6028,20.911-10.207-7.0693-0.083-9.6908-0.16596-22.654-0.24894-10.95-4.4207-27.252-13.134-46.801-27.881l0.99577,9.9576c-16.152-10.511-21.067-13.596,1.4934,8.464l1.7426,7.9661c-43.384-31.407-38.068-17.379,0,2.2405l1.2447,7.4682c-19.014-7.354-35.717-16.332-48.077-28.351,13.159,14.91,16.727,33.872,20.491,28.58z" fill-rule="nonzero" stroke-dashoffset="0" stroke="#7b7c7e" stroke-linecap="butt" stroke-miterlimit="4" stroke-dasharray="none" stroke-width="0.91399997" fill="#7b7c7e"/>
	<path stroke-linejoin="round" style="enable-background:accumulate;color:#000000;" d="m38.773,53.814,1.4082,9.6815c6.3721,14.232,12.594,25.311,18.307,25.7,8.8049-1.395-12.009-20.931-19.715-35.382z" fill-rule="nonzero" stroke-dashoffset="0" stroke="#4b4b4b" stroke-linecap="butt" stroke-miterlimit="4" stroke-dasharray="none" stroke-width="1" fill="#565657"/>
	<path stroke-linejoin="miter" d="m92.306,393.91,0-97,14-5,0,102z" stroke="#636466" stroke-linecap="butt" stroke-width="1px" fill="#636466"/>
	<path stroke-linejoin="miter" d="m210.31,393.91,0-97-14-5,0,102z" stroke="#636466" stroke-linecap="butt" stroke-width="1px" fill="#636466"/>
	<path stroke-linejoin="miter" d="m106.31,291.91,90,0,0,10-90,0z" stroke="#bbbcbe" stroke-linecap="butt" stroke-width="1px" fill="#bbbcbe"/>
	<path stroke-linejoin="miter" d="m106.31,301.91,90,0,0,92-90,0z" stroke="#818286" stroke-linecap="butt" stroke-width="1px" fill="#818286"/>
	<path stroke-linejoin="round" style="enable-background:accumulate;color:#000000;" d="m186.37,97.106c20.737-8.0831,37.416-6.5937,56.668-9.0348-3.2592,0.42781-3.0992-2.0946-1.3506-6.1609-9.1592-0.0362-12.598-0.0724-18.793-0.1086-7.1538,1.8978,11.83-11.186,17.955-16.899-16.05,9.296-24.8,16.747-51.82,24.819,14.22-8.724,27.26-19.656,39.16-32.694-14.07,12.956-25.48,24.717-41.56,32.486z" stroke-dashoffset="0" stroke="#7b7c7e" stroke-linecap="butt" stroke-miterlimit="4" stroke-dasharray="none" stroke-width="1" fill="#7b7c7e"/>
	<path stroke-linejoin="round" style="enable-background:accumulate;color:#000000;" d="m243.04,88.072c5.8301-0.40984,9.9837-17.691,11.791-24.821l1.2447-10.704c-3.96,14.161-22.28,36.739-13.03,35.525z" stroke-dashoffset="0" stroke="#4b4b4b" stroke-linecap="butt" stroke-miterlimit="4" stroke-dasharray="none" stroke-width="1" fill="#565657"/>
	<path stroke-linejoin="round" d="m164.45,44.891,3.6975,136.61c-0.61304,4.3617,10.149,0.8093,12.394,3.983,3.5255,7.8348,3.15,2.593,4.1588,1.9915,3.639-1.2085,5.4535,0.71088,4.6567,5.4767-2.316-4.9407-3.6683-1.1135-5.8223,0-1.293,0.51889-3.213,0.15532-5.4064-3.983-1.4639-2.8448-12.464-0.30894-12.476-3.4852l-1.66-140.65z" stroke="#7b7c7e" stroke-linecap="butt" stroke-miterlimit="4" stroke-dasharray="none" stroke-width="0.91399997" fill="#7b7c7e"/>
	<path stroke-linejoin="round" style="enable-background:accumulate;color:#000000;" d="m127.13,110.8c8.392,34.299,23.997,67.734,38.586,86.133-20.515-10.683-41.54-57.135-38.586-86.133z" fill-rule="nonzero" stroke-dashoffset="0" stroke="#7b7c7e" stroke-linecap="butt" stroke-miterlimit="4" stroke-dasharray="none" stroke-width="0.91399997" fill="#7b7c7e"/>
	<path stroke-linejoin="round" style="enable-background:accumulate;color:#000000;" d="m128.37,99.098c9.7646,23.103,14.109,39.97,35.599,60.244-4.8316-1.7667-17.506-10.837-19.915-14.936-14.385-25.909-16.014-38.97-15.683-45.307z" fill-rule="nonzero" stroke-dashoffset="0" stroke="#7b7c7e" stroke-linecap="butt" stroke-miterlimit="4" stroke-dasharray="none" stroke-width="0.91399997" fill="#7b7c7e"/>
	<path stroke-linejoin="round" style="enable-background:accumulate;color:#000000;" d="m17.482,51.907,6,0-7.4604,0c-2.3913-0.05152-2.744-1.1715-2.7284-2.713l14.007,0.04587c6.0563,1.7542,5.8648,3.0455,7.3213,4.3616,1.0619,1.0921,2.7619,0.90247,4.2408,1.0562,1.454,3.0961,3.7519,5.9024,5.6467,8.7781l-10.062-0.43877c-3.628,0.69026-8.5285,1.5947-14.214,0.51853l-13.752-2.374c-0.8894-0.81035-0.65279-1.6795,0.51933-2.0122l-3.4852-0.49788c-1.0937-0.82143-0.99589-1.7922,0.24894-2.116l-2.116-0.18671c-1.0712-1.0785-0.61692-1.565-0.06224-1.9915l2.1782,0.06224c-0.36456-0.54233-1.5684-0.95553,0.06224-1.8048z" fill-rule="nonzero" stroke-dashoffset="0" stroke="#bdbec0" stroke-linecap="butt" stroke-miterlimit="4" stroke-dasharray="none" stroke-width="1" fill="#bdbec0"/>
	<path stroke-linejoin="round" style="enable-background:accumulate;color:#000000;" d="m278.09,50.527-6,0,7.4604,0c2.3913-0.05152,2.744-1.1715,2.7284-2.713l-14.007,0.04587c-6.0563,1.7542-5.8648,3.0455-7.3213,4.3616-1.0619,1.0921-2.8499,0.55042-4.3289,0.70411-1.1868,3.2488-2.0838,6.4975-4.1504,9.7463l8.654-1.0549c3.628,0.69027,8.5285,1.5947,14.214,0.51854l13.751-2.3734c0.8894-0.81035,0.65279-1.6795-0.51933-2.0122l3.4852-0.49789c1.0937-0.82143,0.99589-1.7922-0.24894-2.116l2.116-0.18671c1.0712-1.0785,0.61692-1.565,0.0622-1.9915l-2.1782,0.0622c0.36457-0.54233,1.5684-0.95554-0.0622-1.8048z" fill-rule="nonzero" stroke-dashoffset="0" stroke="#bdbec0" stroke-linecap="butt" stroke-miterlimit="4" stroke-dasharray="none" stroke-width="1" fill="#bdbec0"/>
	<path stroke-linejoin="round" style="enable-background:accumulate;color:#000000;" d="m140.07,31.386c-0.66272-4.3336-0.95391-10.277-0.62235-18.919,6.5272-17.058,21.256-5.7427,20.787,0,0.89497,4.5148,0.13344,10.804-3.6096,20.289-5.5182,5.4474-14.148,4.0301-16.555-1.3692z" fill-rule="nonzero" stroke-dashoffset="0" stroke="#bdbec0" stroke-linecap="butt" stroke-miterlimit="4" stroke-dasharray="none" stroke-width="1" fill="#bdbec0"/>
	<path d="m163.22,43.957-0.74682-31.864c0.27219-10.592-19.921-18.58-25.392,0.24894l-3.9831,30.869c2.4137,0.23766,6.8434,2.6112,6.9703-11.825-0.66272-4.3336-0.95391-10.277-0.62235-18.919,6.5272-17.058,21.256-5.7427,20.787,0,0.89497,4.5148,0.13344,10.804-3.6096,20.289-1.3565,11.682,2.4077,11.917,6.5969,11.202z" stroke="#8c8c8c" fill="#8c8c8c"/>
</svg>
