<!-- Created with Inkscape (http://www.inkscape.org/) -->
<svg xmlns:rdf="http://www.w3.org/1999/02/22-rdf-syntax-ns#" xmlns="http://www.w3.org/2000/svg" height="181.75" width="1089.2" version="1.1" xmlns:cc="http://creativecommons.org/ns#" xmlns:dc="http://purl.org/dc/elements/1.1/">
	<metadata>
		<rdf:RDF>
			<cc:Work rdf:about="">
				<dc:format>image/svg+xml</dc:format>
				<dc:type rdf:resource="http://purl.org/dc/dcmitype/StillImage"/>
				<dc:title/>
			</cc:Work>
		</rdf:RDF>
	</metadata>
	<path stroke-linejoin="miter" d="M821.86,127.52c-80.36-23.87-132.16-48.819-205.99-94.894-3.725,0.0886-11.909-3.471-26.625-12.375-1.7242-4.9218-8.1713-7.8194-16.875-9.75-8.8143-3.4457-8.8208-4.2418-13.125-6,0.73637,2.3981,1.6862,4.7606,0.375,7.5-11.749,10.547-16.752,11.234-24.375,15.75-3.1724,4.5949,2.5,7.75,3.75,11.625,3.4693,3.2654,6.8039,6.5981,7.5,11.25-3.8924,10.142,2.6333,9.8667,7.125,11.625,3.7876,1.1369,9.6819-0.40976,12,3,3.9183,5.7636,10.086,9.2365,12.311,14.735,1.2892,3.1866,2.926,7.226,5.6893,10.39,4.2756,4.8958,7.5,18,7.5,18,11.192,2.285,22.509,4.9885,32.25,2.4375,11.858,6.7049,21.668,15.457,36.188,19.5-4.3486-6.5922-11.051-12.4-18.375-18l50.438,15.375c-24.501-20.381-8.1167-12.014-2.8125-11.438l48.938,15.188c13.48,3.2685,41.811,13.034,10.312-3.375l96.75,13.125c-4.3011-8.9046-20.905-10.61-22.957-13.665z" stroke="#4c77a2" stroke-linecap="butt" stroke-width="1px" fill="#4c77a2"/>
	<path stroke-linejoin="miter" d="m559.25,4.5c0.73637,2.3981,1.6862,4.7606,0.375,7.5-11.749,10.547-16.752,11.234-24.375,15.75-3.1724,4.5949,2.5,7.75,3.75,11.625,3.4693,3.2654,6.8039,6.5981,7.5,11.25-3.8924,10.142,2.6333,9.8667,7.125,11.625,3.7876,1.1369,9.6819-0.40976,12,3,3.9183,5.7636,10.086,9.2365,12.311,14.735,1.2892,3.1866,2.926,7.226,5.6893,10.39,4.2756,4.8958,7.5,18,7.5,18-9.3942-2.5989-18.122-4.2454-20.625,3-3.3808,5.4287-7.2215,10.168-16.5,6.75-6.2616,5.7941-13.376,5.6173-20.625,4.5-23.599,8.7902-39.091,12.421-51.75,14.25,11.56-7.31,23.162-14.662,33.75-21-0.66663-5.8978,5.8496-17.672-15.375-6.75-15.68,16.063-29.836,19.937-44.625,28.875,50.121-50.938,27.065-32.453,0.75-10.875-7.4967,8.6283-13.678,18.572-20.25,28.125-3.4391-16.311-9.8151-29.685-20.25-39l-51.38,14.26c44.081-21.661,46.038-25.336,1.125-9l-15.38,7.12c7.4698-10.086-5.3632-5.6691-10.5-6.75,4.3153-7.0772-4.4275-3.708-9.375-3.375-13.086,7.3676-27.642,10.325-41.625,15,12.181-7.5888,21.237-15.803,37.875-22.5-0.79984-3.5569-14.656-1.1791-25.875,0,88.205-36.696,158.29-70.054,208.5-99.75,2.9351-2.1716,6.3234-1.3979,9.75-0.375,3.3718-2.6124,5.8633-1.7033,8.25-0.375,3.0751-2.9599,10.082-1.2011,15.375-1.5,3.6779-2.5215,9.3216-4.0117,16.875-4.5z" stroke="#e4ded0" stroke-linecap="butt" stroke-width="1px" fill="#e4ded0"/>
	<path stroke-linejoin="round" d="m501.34,101.99c-3.4775-7.3064,2.9071-18.558,6.364-28.638-4.6846,8.5371-9.3692,20.117-14.054,24.66,2.2861-0.89146,4.905,0.87941,7.6898,3.9775z" stroke="#4c77a2" stroke-linecap="butt" stroke-width="1px" fill="#4c77a2"/>
	<path stroke-linejoin="miter" d="m525.69,33.562c-7.3294,5.1437-13.455,7.4791-22.125,15.75-2.5,6.3469-5,11.264-7.5,13.125,2.4247-2.1438,2.4647,0.69878,9.9375-12,2.5888-3.6382,12.625-11,19.688-16.875z" stroke="#4c77a2" stroke-linecap="butt" stroke-width="1px" fill="#4c77a2"/>
	<path stroke-linejoin="miter" d="m450.31,85.125c4.9692-1.2643,11.408-5.6776,19.875-14.438,0.0813-1.5689-1.7105-2.2708,3.1875-5.625,4.8095-0.73801,10.763-6.0529,17.062-12.75-6.3508,1.5336-13.479,4.7134-18.562,3.5625-10.594,8.3975-12.798,7.5654-18.938,11.062,2.8322,6.3273,0.47178,12.284-2.625,18.188z" stroke="#4c77a2" stroke-linecap="butt" stroke-width="1px" fill="#4c77a2"/>
	<path stroke-linejoin="miter" d="m432.69,76.5c-0.1713-5.3148-2.3939-2.4244-3.9375-2.25l-16.125,14.062c-7.1258,6.9919-10.362,8.7376-15,12.375,3.3046-3.877,4.7202-8.2262,9.9375-11.625,10.237-9.4169,16.597-12.269,31.312-28.5,1.3763,2.9237,8.1687,6.1483,1.5,8.625-0.8249,1.4901-2.1229,2.6016-0.5625,6-12.19,12.134-16.12,11.873-24.19,17.81,5.5388-5.2323,9.3078-7.279,17.062-16.5z" stroke="#4c77a2" stroke-linecap="butt" stroke-width="1px" fill="#4c77a2"/>
	<path stroke-linejoin="miter" d="m770,124.12s-100.5-39.75-118.5-58.875,18.75,32.25,118.5,58.875z" stroke="#314d69" stroke-linecap="butt" stroke-width="1px" fill="#314d69"/>
	<path stroke-linejoin="miter" d="m683.59,110.43s-14.397-11.716-42.185-21.68,36.541,18.113,42.185,21.68z" stroke="#314d69" stroke-linecap="butt" stroke-width="1px" fill="#314d69"/>
	<path stroke-linejoin="miter" d="m629,73.875s26.25,12.75,4.875-0.75c-21.38-13.5-39.38-23.25-55.13-47.625s12.37,25.5,12.37,25.5-4.5,0.75,37.875,22.875z" stroke="#314d69" stroke-linecap="butt" stroke-width="1px" fill="#314d69"/>
	<path stroke-linejoin="miter" d="m565.25,55.5c5.625-4.5-10.875-24.375,5.625-4.5s28.125,26.25,42,32.25,60.75,38.625,29.25,22.125-52.875-27-52.875-27-8.25-16.125-15.75-19.5c-7.51-3.38-8.26-3.38-8.26-3.38z" stroke="#314d69" stroke-linecap="butt" stroke-width="1px" fill="#314d69"/>
	<path stroke-linejoin="miter" d="m821.86,127.52c2.0513,3.0552,18.655,4.7602,22.957,13.665l-96.75-13.125c31.498,16.409,3.1672,6.6435-10.312,3.375l-48.938-15.188c-5.3042-0.57622-21.689-8.9434,2.8125,11.438l-50.438-15.375c7.3244,5.6002,14.026,11.408,18.375,18-14.519-4.0434-24.33-12.795-36.188-19.5-9.741,2.551-21.058-0.15255-32.25-2.4378-9.394-2.5991-18.122-4.2456-20.625,2.9998-3.3808,5.4287-7.2215,10.168-16.5,6.75-6.2616,5.7941-13.376,5.6173-20.625,4.5-23.599,8.7902-39.091,12.421-51.75,14.25,11.56-7.31,23.162-14.662,33.75-21-0.66663-5.8978,5.8496-17.672-15.375-6.75-15.68,16.063-29.836,19.937-44.625,28.875,50.121-50.938,27.065-32.453,0.75-10.875-7.4967,8.6283-13.678,18.572-20.25,28.125-3.4391-16.311-9.8151-29.685-20.25-39l-51.38,14.26c44.081-21.661,46.038-25.336,1.125-9l-15.38,7.12c7.4698-10.086-5.3632-5.6691-10.5-6.75,4.3153-7.0772-4.4275-3.708-9.375-3.375-13.086,7.3676-27.642,10.325-41.625,15,12.181-7.5888,21.237-15.803,37.875-22.5-0.79984-3.5569-14.656-1.1791-25.875,0-31.65,12.199-73.488,16.846-105.49,25.291-34.229,9.0332-60.051,19.148-91.066,27.177-32.748,8.48-70.602,14.8-103.44,21.78h1088.2c-38.074-6.253-72.828-7.3255-115.36-16.228-9.6333-2.0164-36.742-12.617-45.037-14.503-16.548-3.7616-13.005-5.2202-28.021-8.7097-30.114-6.9976-47.948-8.3315-78.477-18.287z" stroke="#554c4c" stroke-linecap="butt" stroke-width="1px" fill="#554c4c"/>
</svg>
