<!-- Created with Inkscape (http://www.inkscape.org/) -->
<svg xmlns:rdf="http://www.w3.org/1999/02/22-rdf-syntax-ns#" xmlns="http://www.w3.org/2000/svg" height="900" width="1440" version="1.1" xmlns:cc="http://creativecommons.org/ns#" xmlns:xlink="http://www.w3.org/1999/xlink" xmlns:dc="http://purl.org/dc/elements/1.1/">
	<metadata>
		<rdf:RDF>
			<cc:Work rdf:about="">
				<dc:format>image/svg+xml</dc:format>
				<dc:type rdf:resource="http://purl.org/dc/dcmitype/StillImage"/>
				<dc:title/>
			</cc:Work>
		</rdf:RDF>
	</metadata>
	<defs>
		<radialGradient id="radialGradient4609" gradientUnits="userSpaceOnUse" cy="603.02" cx="793.37" gradientTransform="matrix(1,0,0,0.08594445,0,551.18935)" r="581.74">
			<stop stop-color="#dcbfaf" offset="0"/>
			<stop stop-color="#dcbfaf" stop-opacity="0" offset="1"/>
		</radialGradient>
	</defs>
	<path stroke-linejoin="miter" style="enable-background:accumulate;color:#000000;" d="m915.94,593.5c0.8704-3.333,1.7384-6.6216,2.6029-9.8649l-17.71-40.73c-9.09,16.09-18.34,32.88-27.83,50.9z" fill-rule="nonzero" stroke-dashoffset="0" stroke="#0e0e0e" stroke-linecap="butt" stroke-miterlimit="4" stroke-dasharray="none" stroke-width="1px" fill="#0e0e0e"/>
	<path stroke-linejoin="miter" style="enable-background:accumulate;color:#000000;" d="M939.65,509.84c16.48-54.13,26.17-79.47,16.06-62.84-11.015,19.782-22.082,38.845-33.335,58.318,5.3961,1.3858,10.028,2.517,17.276,4.5201z" fill-rule="nonzero" stroke-dashoffset="0" stroke="#0e0e0e" stroke-linecap="butt" stroke-miterlimit="4" stroke-dasharray="none" stroke-width="1px" fill="#0e0e0e"/>
	<path stroke-linejoin="miter" style="enable-background:accumulate;color:#000000;" d="m935.61,594.59,8.9058-17.12,39.598,0.70711,10.71,32.283z" fill-rule="nonzero" stroke-dashoffset="0" stroke="#0e0e0e" stroke-linecap="butt" stroke-miterlimit="4" stroke-dasharray="none" stroke-width="1px" fill="#0e0e0e"/>
	<path stroke-linejoin="miter" style="enable-background:accumulate;color:#000000;" d="m331.63,553.56,9.1924-20.727,53.387,11.49,11.589,29.34-55.985-20.352z" fill-rule="nonzero" stroke-dashoffset="0" stroke="#0e0e0e" stroke-linecap="butt" stroke-miterlimit="4" stroke-dasharray="none" stroke-width="1px" fill="#0e0e0e"/>
	<path stroke-linejoin="miter" style="enable-background:accumulate;color:#000000;" d="m443.89,580.21,13.126-27.047c23.6,3.7123,48.761,5.4656,71.197,10.341l8.4411,31.643-11.301,0.0166-51.141-14.651z" fill-rule="nonzero" stroke-dashoffset="0" stroke="#0e0e0e" stroke-linecap="butt" stroke-miterlimit="4" stroke-dasharray="none" stroke-width="1px" fill="#0e0e0e"/>
	<path stroke-linejoin="miter" style="enable-background:accumulate;color:#000000;" d="m592.88,595.38,49.5-39.125,71.273,21.133,0.14068,17.374z" fill-rule="nonzero" stroke-dashoffset="0" stroke="#0e0e0e" stroke-linecap="butt" stroke-miterlimit="4" stroke-dasharray="none" stroke-width="1px" fill="#0e0e0e"/>
	<path stroke-linejoin="miter" style="enable-background:accumulate;color:#000000;" d="m728.38,594.2,0-18.578c33.237-6.4431,61.345-8.8812,92.25-10.375l25.25,28.625z" fill-rule="nonzero" stroke-dashoffset="0" stroke="#0e0e0e" stroke-linecap="butt" stroke-miterlimit="4" stroke-dasharray="none" stroke-width="1px" fill="#0e0e0e"/>
	<path stroke-linejoin="miter" style="enable-background:accumulate;color:#000000;" d="m1033.4,595.24,118.79,0c2.2167-0.84229-1.0575,4.7865-8.4853,13.922l-124.45,0.88389z" fill-rule="nonzero" stroke-dashoffset="0" stroke="#313131" stroke-linecap="butt" stroke-miterlimit="4" stroke-dasharray="none" stroke-width="1px" fill="#313131"/>
	<path stroke-linejoin="miter" style="enable-background:accumulate;color:#000000;" d="m611.47,581.27,6.5407,0,6-10.053-6,10.053,8.3085,0,13.145-22.768-13.145,22.791,9.8995-0.17678,13.079-22.653-13.036,22.667,9.6801-0.0884,11.698-20.261-11.687,20.267,9.7121,0.088,10.259-17.769-10.259,17.769,8.9272,0,10.165-15.158-10.253,15.114,12.64,0,6.8059-12.374-6.6291,12.374,10.872,0,4.773-9.8111-4.773,9.8111,9.8111,0,3.9775-6.9827-3.9775,6.8943,11.49,0,1.7678-3.9775-1.6794,3.9775,3.8007,0,0-3.6239l-70.89-21.88z" fill-rule="nonzero" stroke-dashoffset="0" stroke="#9e9595" stroke-linecap="butt" stroke-miterlimit="4" stroke-dasharray="none" stroke-width="1px" fill="#312b2b"/>
	<path stroke-linejoin="miter" style="enable-background:accumulate;color:#000000;" d="m1000,610c-6.23-41.344-12.468-82.44-20-85,6.3224,55.935,8.2693,51.063,20,85z" fill-rule="nonzero" stroke-dashoffset="0" stroke="#acacac" stroke-linecap="butt" stroke-miterlimit="4" stroke-dasharray="none" stroke-width="1px" fill="#acacac"/>
	<path stroke-linejoin="miter" style="enable-background:accumulate;color:#000000;" d="m427.09,580.81c-6.3778-83.046-20.701-158.02-29.342-217.77,44.696,2.9869,87.224,14.647,127.68,34.604l5.525,25.637c-48.32,63.312-71.41,107.71-96.609,157.72z" fill-rule="nonzero" stroke-dashoffset="0" stroke="#ebebeb" stroke-linecap="butt" stroke-miterlimit="4" stroke-dasharray="none" stroke-width="1px" fill="#ebebeb"/>
	<path stroke-linejoin="miter" style="enable-background:accumulate;color:#000000;" d="m317.4,553.56-50.116-131.26c56.146-6.9246,80.655-4.752,141.03,11.04l1.8966,14.733c-45.551,37.809-71.873,70.745-83.659,105.48z" fill-rule="nonzero" stroke-dashoffset="0" stroke="#ebebeb" stroke-linecap="butt" stroke-miterlimit="4" stroke-dasharray="none" stroke-width="1px" fill="#ebebeb"/>
	<path stroke-linejoin="miter" style="enable-background:accumulate;color:#000000;" d="m452.1,563.49,4.9103-10.323c23.799,2.9168,48.761,5.4656,71.197,10.341l3.0113,11.328-5.3978-1.1857,0.7955-10.143-0.7955,10.143-9.1482-1.591,0.39774-10.54-0.39774,10.54-9.546-1.9887,0.99437-9.9437-0.99436,9.9437-8.7504-1.3921,0.79549-9.9437-0.79549,9.9437-8.5516-1.2927,0.59662-9.8442-0.59662,9.8442-9.9437-1.1932,0.99437-9.6454-0.99437,9.6454-9.1482-1.0938,0.99437-9.9437-0.99437,9.9437-9.1482-0.79549,0.79549-10.54-0.79548,10.54z" fill-rule="nonzero" stroke-dashoffset="0" stroke="#9e9595" stroke-linecap="butt" stroke-miterlimit="4" stroke-dasharray="none" stroke-width="1px" fill="#312b2b"/>
	<path stroke-linejoin="miter" style="enable-background:accumulate;color:#000000;" d="m443.89,580.21,13.126-27.047c23.6,3.7123,48.761,5.4656,71.197,10.341l8.3527,31.422,21.081,0.39775v-5.9662l-12.33,0.7955-9.1482-27.445c-24.241-6.7444-76.016-13.667-87.107-11.535l-14.319,29.831z" fill-rule="nonzero" stroke-dashoffset="0" stroke="#ada7a7" stroke-linecap="butt" stroke-miterlimit="4" stroke-dasharray="none" stroke-width="1px" fill="#ada7a7"/>
	<path stroke-linejoin="miter" style="enable-background:accumulate;color:#000000;" d="m530.95,423.28c-38.494,48.019-61.378,89.582-81.893,127.89,11.091-2.1324,62.866,4.7903,87.107,11.535-18.249-70.448-9.0044-100.97-5.2141-139.43z" fill-rule="nonzero" stroke-dashoffset="0" stroke="#f6f6f6" stroke-linecap="butt" stroke-miterlimit="4" stroke-dasharray="none" stroke-width="1px" fill="#f6f6f6"/>
	<path stroke-linejoin="miter" d="m545.31,590.15-9.1482-27.445c-18.249-70.448-9.0044-100.97-5.2141-139.43,11.057,48.798,18.249,108.42,26.134,166.1z" stroke="#acacac" stroke-linecap="butt" stroke-width="1px" fill="#acacac"/>
	<path stroke-linejoin="miter" style="enable-background:accumulate;color:#000000;" d="m638.18,551.85,109.19-80.618c32.852,30.34,74.471,83.543,110.44,121.93h-4.6882l-30.956-30.956c-30.929,2.527-63.329,2.8635-96.5,11.824l-11.402,1.2374z" fill-rule="nonzero" stroke-dashoffset="0" stroke="#f6f6f6" stroke-linecap="butt" stroke-miterlimit="4" stroke-dasharray="none" stroke-width="1px" fill="#f6f6f6"/>
	<path stroke-linejoin="miter" style="enable-background:accumulate;color:#000000;" d="m747.37,471.23c-14.84,33.314-16.951,68.22-21.699,102.8l-11.402,1.2374c8.5207-37.819,19.251-72.876,33.101-104.03z" fill-rule="nonzero" stroke-dashoffset="0" stroke="#acacac" stroke-linecap="butt" stroke-miterlimit="4" stroke-dasharray="none" stroke-width="1px" fill="#acacac"/>
	<path stroke-linejoin="miter" style="enable-background:accumulate;color:#000000;" d="m728.38,575.62c33.237-6.4431,61.345-8.8812,92.25-10.375l13.498,15.5h-8.1851l-2.1875-11.875,2.1875,11.875h-9.125l-4.1494-15.173,4.1421,15.173h-10.368l-3.9841-14.584,3.9909,14.584-9.5693-0.00001-3.869-14.002,3.8335,14.002h-10.34l-3.5691-13.015,3.5751,13.015-10.006-0.00076-3.2798-11.912,3.2802,11.914-10.688-0.00075-2.9395-10.641,2.9635,10.641h-10.399l-2.8125-9.3125,2.75,9.3125h-9.9375l-2.5-7.625,2.5,7.625h-10.188l-1.875-6.125,1.8125,6.125h-6.75z" fill-rule="nonzero" stroke-dashoffset="0" stroke="#9e9595" stroke-linecap="butt" stroke-miterlimit="4" stroke-dasharray="none" stroke-width="1px" fill="#312b2b"/>
	<path stroke-linejoin="miter" style="enable-background:accumulate;color:#000000;" d="m765.96,457.59c-6.787,4.1851-13.033,8.7308-18.594,13.635-18.69-40.778-42.176-74.681-70.048-102.3,39.142,22.989,67.393,53.431,88.642,88.663z" fill-rule="nonzero" stroke-dashoffset="0" stroke="#dcd6d6" stroke-linecap="butt" stroke-miterlimit="4" stroke-dasharray="none" stroke-width="1px" fill="#dcd6d6"/>
	<path stroke-linejoin="miter" style="enable-background:accumulate;color:#000000;" d="m765.96,457.59c-6.787,4.1851-13.033,8.7308-18.594,13.635-4.6366-10.116-9.5684-19.81-14.789-29.089l15.431-10.867c6.4969,8.4224,12.459,17.211,17.952,26.32z" fill-rule="nonzero" stroke-dashoffset="0" stroke="#acacac" stroke-linecap="butt" stroke-miterlimit="4" stroke-dasharray="none" stroke-width="1px" fill="#acacac"/>
	<path stroke-linejoin="miter" style="enable-background:accumulate;color:#000000;" d="m410.21,448.08c-34.679,28.785-58.213,54.746-72.672,80.828l63.039,14.712c0.022-29.141-3.3354-60.071,11.932-81.14z" fill-rule="nonzero" stroke-dashoffset="0" stroke="#f6f6f6" stroke-linecap="butt" stroke-miterlimit="4" stroke-dasharray="none" stroke-width="1px" fill="#f6f6f6"/>
	<path stroke-linejoin="miter" style="enable-background:accumulate;color:#000000;" d="m400.58,543.62c0.022-29.141-3.3354-60.071,11.932-81.14,4.9108,34.635,10.551,73.491,14.523,118.45l-12.314-4.0784z" fill-rule="nonzero" stroke-dashoffset="0" stroke="#acacac" stroke-linecap="butt" stroke-miterlimit="4" stroke-dasharray="none" stroke-width="1px" fill="#acacac"/>
	<path stroke-linejoin="miter" style="enable-background:accumulate;color:#000000;" d="m396.17,550.16-1.957-5.83-53.387-11.49-2.2121,4.9879,6.9851,1.4645,1.7678-5.0381-1.7678,5.0381,7.0711,1.4142,1.591-4.9498-1.5913,4.9542,6.7058,1.4665,1.7188-4.9536-1.7188,4.9536,6.5,1.5076,1.5938-5.0549-1.5938,5.042,8.0519,1.7632,1.37-5.0823-1.37,5.0823,8.2201,1.6352,1.1048-5.1265-1.1048,5.1265,7.3362,1.591,1.0607-5.0381-1.0607,5.0381z" stroke-dashoffset="0" stroke="#9e9595" stroke-linecap="butt" stroke-miterlimit="4" stroke-dasharray="none" stroke-width="1px" fill="#312b2b"/>
	<path stroke-linejoin="miter" style="enable-background:accumulate;color:#000000;" d="m579.38,595.38,13.5,0,49.5-39.125,71.273,21.133,0.53033-2.1213-76.014-23.511z" fill-rule="nonzero" stroke-dashoffset="0" stroke="#ada7a7" stroke-linecap="butt" stroke-miterlimit="4" stroke-dasharray="none" stroke-width="1px" fill="#ada7a7"/>
	<path stroke-linejoin="miter" d="m728.38,594.2,0-18.578c33.237-6.4431,61.345-8.8812,92.25-10.375l25.25,28.625,7.9993,0.0313-31.706-31.706c-30.929,2.527-63.329,2.8635-96.5,11.824l0.0817,20.231z" stroke="#ada7a7" stroke-linecap="butt" stroke-width="1px" fill="#ada7a7"/>
	<path stroke-linejoin="miter" style="enable-background:accumulate;color:#000000;" d="m414.97,577.1-14.392-33.484-63.039-14.712c-4.5034,7.9046-8.3746,17.043-10.987,24.656h5.0823l9.1924-20.727,53.387,11.49,11.589,29.34z" fill-rule="nonzero" stroke-dashoffset="0" stroke="#ada7a7" stroke-linecap="butt" stroke-miterlimit="4" stroke-dasharray="none" stroke-width="1px" fill="#ada7a7"/>
	<path stroke-linejoin="miter" style="enable-background:accumulate;color:#000000;" d="m931.78,592.88c16.38-34.647,32.176-53.509,47.812-68.062l0.41,0.18c6.3224,55.935,8.2693,51.063,20,85l-1.9188,0.0862-12.109-34.206-42.338-0.97228s-10.253,18.031-10.253,18.915z" fill-rule="nonzero" stroke-dashoffset="0" stroke="#FFF" stroke-linecap="butt" stroke-miterlimit="4" stroke-dasharray="none" stroke-width="1px" fill="#FFF"/>
	<path stroke-linejoin="miter" style="enable-background:accumulate;color:#000000;" d="m558,595.27,21.375,0,167.99-124.04c-51.24-111.79-138.52-171.9-253.37-192.51,35.69,99.77,48.79,208.58,64,316.55z" fill-rule="nonzero" stroke-dashoffset="0" stroke="#ebebeb" stroke-linecap="butt" stroke-miterlimit="4" stroke-dasharray="none" stroke-width="1px" fill="#ebebeb"/>
	<path stroke-linejoin="miter" style="enable-background:accumulate;color:#000000;" d="m917.51,504.82c14.309-24.672,30.034-49.677,48.588-75.347-84.414-23.88-188.09,10.596-218.63,41.605,31.711,30.073,73.153,81.874,110.85,122.58l10.094,0.15625c9.6431-18.139,20.635-37.742,30.56-55.948l-16.97-36.96c12.681,0.53388,23.737,1.9961,35.506,3.9099z" fill-rule="nonzero" stroke-dashoffset="0" stroke="#ebebeb" stroke-linecap="butt" stroke-miterlimit="4" stroke-dasharray="none" stroke-width="1px" fill="#ebebeb"/>
	<path stroke-linejoin="miter" style="enable-background:accumulate;color:#000000;" d="m989.03,592.5-4.9183-14.319-39.598-0.70711-1.2637,2.4672,8.4333,0.0619,1.5625-2.4375-2,4.9375,7.9375,0,1.5625-4.875-2,7.375,7.9375,0,1.5625-7.1875-2,9.6875,7.9375,0,1.5625-9.625-2,12.125,7.9375,0,1.5625-12-2,14.5,7.5,0,0.28414-0.003z" fill-rule="nonzero" stroke-dashoffset="0" stroke="#9e9595" stroke-linecap="butt" stroke-miterlimit="4" stroke-dasharray="none" stroke-width="1px" fill="#312b2b"/>
	<path stroke-linejoin="miter" style="enable-background:accumulate;color:#000000;" d="m998.08,610.09-12.109-34.206-42.338-0.97228s-10.253,18.031-10.253,18.915l2.2312,0.76779,8.9058-17.12,39.598,0.70711,10.96,31.908z" fill-rule="nonzero" stroke-dashoffset="0" stroke="#ada7a7" stroke-linecap="butt" stroke-miterlimit="4" stroke-dasharray="none" stroke-width="1px" fill="#ada7a7"/>
	<path stroke-linejoin="miter" style="enable-background:accumulate;color:#000000;" d="m921.89,592.13c-0.15069,0.45618-0.30223,0.9129-0.45461,1.3702h-5.5c0.8704-3.333,1.7384-6.6216,2.6029-9.8649zm-21.06-49.22c-9.09,16.09-18.34,32.88-27.83,50.9h-4.5938c9.4391-18.226,19.616-37.234,30.249-56.233z" fill-rule="nonzero" stroke-dashoffset="0" stroke="#312b2b" stroke-linecap="butt" stroke-miterlimit="4" stroke-dasharray="none" stroke-width="1px" fill="#312b2b"/>
	<path stroke-linejoin="miter" style="enable-background:accumulate;color:#000000;" d="m299.81,561.65-66.468-6.7175c-9.454-3.4885,60.929-19.563,76.014-21.92l7.7782,20.506z" fill-rule="nonzero" stroke-dashoffset="0" stroke="#736767" stroke-linecap="butt" stroke-miterlimit="4" stroke-dasharray="none" stroke-width="1px" fill="#736767"/>
	<path stroke-linejoin="miter" style="enable-background:accumulate;color:#000000;" d="m1033.4,595.24,118.79,0c-25.598-13.311-48.949-29.319-78.842-37.477z" fill-rule="nonzero" stroke-dashoffset="0" stroke="#736767" stroke-linecap="butt" stroke-miterlimit="4" stroke-dasharray="none" stroke-width="1px" fill="#736767"/>
	<path stroke-linejoin="miter" style="enable-background:accumulate;color:#000000;" d="m1097.5,595-35.172-26.896-3.5635,3.4696l31.3,23.43z" fill-rule="nonzero" stroke-dashoffset="0" stroke="#5a1a08" stroke-linecap="butt" stroke-miterlimit="4" stroke-dasharray="none" stroke-width="1px" fill="#5a1a08"/>
	<path stroke-linejoin="miter" style="enable-background:accumulate;color:#000000;" d="m1122.5,595-46.064-36.366-3.0273-0.86875-2.8606,2.6613l44.5,34.58z" fill-rule="nonzero" stroke-dashoffset="0" stroke="#5a1a08" stroke-linecap="butt" stroke-miterlimit="4" stroke-dasharray="none" stroke-width="1px" fill="#5a1a08"/>
	<path stroke-linejoin="miter" style="enable-background:accumulate;color:#000000;" d="m1127.5,595-46.25-35c5.4945,2.0743,10.989,3.9639,16.484,6.5022l37.3,28.5z" fill-rule="nonzero" stroke-dashoffset="0" stroke="#5a1a08" stroke-linecap="butt" stroke-miterlimit="4" stroke-dasharray="none" stroke-width="1px" fill="#5a1a08"/>
	<path stroke-linejoin="miter" style="enable-background:accumulate;color:#000000;" d="m1085,595-28.222-21.582-3.5958,3.3432l24.3,18.24z" fill-rule="nonzero" stroke-dashoffset="0" stroke="#5a1a08" stroke-linecap="butt" stroke-miterlimit="4" stroke-dasharray="none" stroke-width="1px" fill="#5a1a08"/>
	<path stroke-linejoin="miter" style="enable-background:accumulate;color:#000000;" d="m1065,595-17.395-13.015,3.5129-3.3507l21.4,16.37z" fill-rule="nonzero" stroke-dashoffset="0" stroke="#5a1a08" stroke-linecap="butt" stroke-miterlimit="4" stroke-dasharray="none" stroke-width="1px" fill="#5a1a08"/>
	<path stroke-linejoin="miter" style="enable-background:accumulate;color:#000000;" d="m1052.5,595-10.478-7.8425,3.4899-3.2362l14.5,11.08z" fill-rule="nonzero" stroke-dashoffset="0" stroke="#5a1a08" stroke-linecap="butt" stroke-miterlimit="4" stroke-dasharray="none" stroke-width="1px" fill="#5a1a08"/>
	<path stroke-linejoin="miter" style="enable-background:accumulate;color:#000000;" d="M1039.9,589.22,1047.5,595h-7.5l-3.4657-2.5837z" fill-rule="nonzero" stroke-dashoffset="0" stroke="#5a1a08" stroke-linecap="butt" stroke-miterlimit="4" stroke-dasharray="none" stroke-width="1px" fill="#5a1a08"/>
	<path stroke-linejoin="miter" style="enable-background:accumulate;color:#000000;" d="m1110,595-42.023-32.135-3.7117,3.4592l38.2,28.68z" fill-rule="nonzero" stroke-dashoffset="0" stroke="#5a1a08" stroke-linecap="butt" stroke-miterlimit="4" stroke-dasharray="none" stroke-width="1px" fill="#5a1a08"/>
	<path stroke-linejoin="miter" style="enable-background:accumulate;color:#000000;" d="m1147.5,595-10.664-8.1545c-9.049-5.0484-17.904-10.136-27.744-15.026l30.9,23.18z" fill-rule="nonzero" stroke-dashoffset="0" stroke="#5a1a08" stroke-linecap="butt" stroke-miterlimit="4" stroke-dasharray="none" stroke-width="1px" fill="#5a1a08"/>
	<path d="m1033.2,595.24c23.049-12.257,47.974-23.019,80.34-21.767-12.425-6.4478-25.387-12.502-39.888-16.459z" fill-opacity="0.59243697" fill="#1e1e1e"/>
	<path stroke-linejoin="miter" style="enable-background:accumulate;color:#000000;" d="m234.02,554.92,13.938-7.4442,8.1399-2.215-18.827,9.9092z" fill-rule="nonzero" stroke-dashoffset="0" stroke="#5a1a08" stroke-linecap="butt" stroke-miterlimit="4" stroke-dasharray="none" stroke-width="1px" fill="#5a1a08"/>
	<path stroke-linejoin="miter" style="enable-background:accumulate;color:#000000;" d="m244.02,555.42,25.502-13.621,7.9072-2.0024-30.159,15.873z" fill-rule="nonzero" stroke-dashoffset="0" stroke="#5a1a08" stroke-linecap="butt" stroke-miterlimit="4" stroke-dasharray="none" stroke-width="1px" fill="#5a1a08"/>
	<path stroke-linejoin="miter" style="enable-background:accumulate;color:#000000;" d="m253.27,556.54,37.043-19.785,7.0275-1.4495-40.821,21.485z" fill-rule="nonzero" stroke-dashoffset="0" stroke="#5a1a08" stroke-linecap="butt" stroke-miterlimit="4" stroke-dasharray="none" stroke-width="1px" fill="#5a1a08"/>
	<path stroke-linejoin="miter" style="enable-background:accumulate;color:#000000;" d="m262.02,557.67,45.551-24.35,1.7692-0.26472,0.5319,1.3688-44.603,23.496z" fill-rule="nonzero" stroke-dashoffset="0" stroke="#5a1a08" stroke-linecap="butt" stroke-miterlimit="4" stroke-dasharray="none" stroke-width="1px" fill="#5a1a08"/>
	<path stroke-linejoin="miter" style="enable-background:accumulate;color:#000000;" d="m271.14,558.79,39.87-21.276,0.71152,1.8672-37.332,19.659z" fill-rule="nonzero" stroke-dashoffset="0" stroke="#5a1a08" stroke-linecap="butt" stroke-miterlimit="4" stroke-dasharray="none" stroke-width="1px" fill="#5a1a08"/>
	<path stroke-linejoin="miter" style="enable-background:accumulate;color:#000000;" d="m280.39,559.54,32.435-17.324,0.70078,1.8444-29.886,15.729z" fill-rule="nonzero" stroke-dashoffset="0" stroke="#5a1a08" stroke-linecap="butt" stroke-miterlimit="4" stroke-dasharray="none" stroke-width="1px" fill="#5a1a08"/>
	<path stroke-linejoin="miter" style="enable-background:accumulate;color:#000000;" d="m289.64,560.29,24.938-13.319,0.6303,1.8231-22.318,11.746z" fill-rule="nonzero" stroke-dashoffset="0" stroke="#5a1a08" stroke-linecap="butt" stroke-miterlimit="4" stroke-dasharray="none" stroke-width="1px" fill="#5a1a08"/>
	<path stroke-linejoin="round" style="enable-background:accumulate;color:#000000;" d="m299.81,561.65-66.468-6.7175,15.203,12.728,41.012-1.4142z" fill-rule="nonzero" stroke-dashoffset="0" stroke="#313131" stroke-linecap="butt" stroke-miterlimit="4" stroke-dasharray="none" stroke-width="1px" fill="#313131"/>
	<path stroke-linejoin="miter" style="enable-background:accumulate;color:#000000;" d="m1073.3,557.01c21.395-19.269,44.527-37.594,69.738-52.451l-52.031,58.781z" fill-rule="nonzero" stroke-dashoffset="0" stroke="#0e0e0e" stroke-linecap="butt" stroke-miterlimit="4" stroke-dasharray="none" stroke-width="1px" fill="#0e0e0e"/>
	<path stroke-linejoin="miter" style="enable-background:accumulate;color:#000000;" d="M1151.1,495.56c-46,27.72-92.8,62.81-141.1,114.44h8.9688c35.3-36.07,75.9-77.08,124-105.44l-52.031,58.781,6.75,2.5312c36.563-52.833,58.495-68.502,53.406-70.312z" fill-rule="nonzero" stroke-dashoffset="0" stroke="#312b2b" stroke-linecap="butt" stroke-miterlimit="4" stroke-dasharray="none" stroke-width="1px" fill="#312b2b"/>
	<path stroke-linejoin="miter" style="enable-background:accumulate;color:#000000;" d="M1151.1,495.56c-46,27.72-92.8,62.81-141.1,114.44h-10c-6.23-41.344-12.468-82.44-20-85,69.606-35.689,147.59-30.725,171.12-29.438z" fill-rule="nonzero" stroke-dashoffset="0" stroke="#ebebeb" stroke-linecap="butt" stroke-miterlimit="4" stroke-dasharray="none" stroke-width="1px" fill="#ebebeb"/>
	<path stroke-linejoin="miter" style="enable-background:accumulate;color:#000000;" d="m713.25,594.49,12.5,0,0-20.394-11.531,1.1562-0.75,2.25z" fill-rule="nonzero" stroke-dashoffset="0" stroke="#787272" stroke-linecap="butt" stroke-miterlimit="4" stroke-dasharray="none" stroke-width="1px" fill="#787272"/>
	<path stroke-linejoin="miter" d="m212.13,652.51,1029.2,0,0-28.992-31.466-14.96-215.84,2.0002-61.7-16.738-406.23,1.7678-51.972-14.849-49.144,0-75.66-27.224-31.82,0.7071-27.577,12.539-44.548,1.6036-0.35355,21.92-18.031,0,0,24.042-14.849,0z" fill-rule="evenodd" stroke="url(#radialGradient4609)" stroke-linecap="butt" stroke-width="1px" fill="#dcbfaf"/>
	<path stroke-linejoin="miter" style="enable-background:accumulate;color:#000000;" d="m917.66,504.52c15.82-26.751,32.238-52.539,48.433-75.053-9.9192,26.707-16.088,53.392-22.56,81.399l-3.8853-1.0297c16.49-54.13,26.18-79.47,16.07-62.84-11.015,19.782-22.082,38.845-33.335,58.318z" fill-rule="nonzero" stroke-dashoffset="0" stroke="#312b2b" stroke-linecap="butt" stroke-miterlimit="4" stroke-dasharray="none" stroke-width="1px" fill="#312b2b"/>
	<path stroke-linejoin="miter" style="enable-background:accumulate;color:#000000;" d="m922.5,592.88c-13.839-32.849-26.688-63.55-40.5-91.969,37.118,1.4927,67.923,10.498,97.594,23.906-15.636,14.554-31.432,33.416-47.812,68.062z" fill-rule="nonzero" stroke-dashoffset="0" stroke="#f6f6f6" stroke-linecap="butt" stroke-miterlimit="4" stroke-dasharray="none" stroke-width="1px" fill="#f6f6f6"/>
</svg>
