<?xml version="1.0" encoding="UTF-8" standalone="no"?>
<!-- Created with Inkscape (http://www.inkscape.org/) -->

<svg
   xmlns:dc="http://purl.org/dc/elements/1.1/"
   xmlns:cc="http://creativecommons.org/ns#"
   xmlns:rdf="http://www.w3.org/1999/02/22-rdf-syntax-ns#"
   xmlns:svg="http://www.w3.org/2000/svg"
   xmlns="http://www.w3.org/2000/svg"
   xmlns:xlink="http://www.w3.org/1999/xlink"
   xmlns:sodipodi="http://sodipodi.sourceforge.net/DTD/sodipodi-0.dtd"
   xmlns:inkscape="http://www.inkscape.org/namespaces/inkscape"
   id="svg2"
   version="1.1"
   inkscape:version="0.48.3.1 r9886"
   width="1440"
   height="900"
   sodipodi:docname="opera.svg">
  <metadata
     id="metadata8">
    <rdf:RDF>
      <cc:Work
         rdf:about="">
        <dc:format>image/svg+xml</dc:format>
        <dc:type
           rdf:resource="http://purl.org/dc/dcmitype/StillImage" />
        <dc:title></dc:title>
      </cc:Work>
    </rdf:RDF>
  </metadata>
  <defs
     id="defs6">
    <linearGradient
       inkscape:collect="always"
       id="linearGradient4603">
      <stop
         style="stop-color:#dcbfaf;stop-opacity:1;"
         offset="0"
         id="stop4605" />
      <stop
         style="stop-color:#dcbfaf;stop-opacity:0;"
         offset="1"
         id="stop4607" />
    </linearGradient>
    <linearGradient
       id="linearGradient4222">
      <stop
         style="stop-color:#1e1e1e;stop-opacity:1;"
         offset="0"
         id="stop4224" />
      <stop
         style="stop-color:#1e1e1e;stop-opacity:0;"
         offset="1"
         id="stop4226" />
    </linearGradient>
    <linearGradient
       id="linearGradient3876">
      <stop
         style="stop-color:#505050;stop-opacity:1;"
         offset="0"
         id="stop3878" />
      <stop
         style="stop-color:#afacac;stop-opacity:1;"
         offset="1"
         id="stop3880" />
    </linearGradient>
    <radialGradient
       inkscape:collect="always"
       xlink:href="#linearGradient4603"
       id="radialGradient4609"
       cx="793.37382"
       cy="603.01515"
       fx="793.37382"
       fy="603.01515"
       r="581.74179"
       gradientTransform="matrix(1,0,0,0.08594445,0,551.18935)"
       gradientUnits="userSpaceOnUse" />
  </defs>
  <sodipodi:namedview
     pagecolor="#ffffff"
     bordercolor="#666666"
     borderopacity="1"
     objecttolerance="10"
     gridtolerance="10"
     guidetolerance="10"
     inkscape:pageopacity="0"
     inkscape:pageshadow="2"
     inkscape:window-width="1280"
     inkscape:window-height="724"
     id="namedview4"
     showgrid="false"
     inkscape:zoom="0.70710678"
     inkscape:cx="747.85483"
     inkscape:cy="338.12027"
     inkscape:window-x="0"
     inkscape:window-y="24"
     inkscape:window-maximized="1"
     inkscape:current-layer="svg2"
     showguides="false">
    <inkscape:grid
       type="xygrid"
       id="grid2987"
       empspacing="5"
       visible="true"
       enabled="true"
       snapvisiblegridlinesonly="true"
       spacingx="0.25px"
       spacingy="0.25px" />
  </sodipodi:namedview>
  <path
     id="path3011-3-3-1"
     style="color:#000000;fill:#0e0e0e;fill-opacity:1;fill-rule:nonzero;stroke:#0e0e0e;stroke-width:1px;stroke-linecap:butt;stroke-linejoin:miter;stroke-miterlimit:4;stroke-opacity:1;stroke-dasharray:none;stroke-dashoffset:0;marker:none;visibility:visible;display:inline;overflow:visible;enable-background:accumulate"
     d="m 915.93503,593.5 c 0.8704,-3.33297 1.7384,-6.62164 2.6029,-9.86489 L 900.83234,542.9134 C 891.74493,559.00237 882.48932,575.78533 873,593.8125 z"
     inkscape:connector-curvature="0"
     sodipodi:nodetypes="ccccc" />
  <path
     id="path3011-3-3-2-1"
     style="color:#000000;fill:#0e0e0e;fill-opacity:1;fill-rule:nonzero;stroke:#0e0e0e;stroke-width:1px;stroke-linecap:butt;stroke-linejoin:miter;stroke-miterlimit:4;stroke-opacity:1;stroke-dasharray:none;stroke-dashoffset:0;marker:none;visibility:visible;display:inline;overflow:visible;enable-background:accumulate"
     d="M 939.64807,509.8378 C 956.12953,455.71143 965.819,430.36834 955.70711,447 c -11.01457,19.78211 -22.0816,38.84549 -33.33537,58.31767 5.39613,1.38583 10.02839,2.51703 17.27633,4.52013 z"
     inkscape:connector-curvature="0"
     sodipodi:nodetypes="cccc" />
  <path
     id="path2989-1-9-7-6"
     style="color:#000000;fill:#0e0e0e;fill-opacity:1;fill-rule:nonzero;stroke:#0e0e0e;stroke-width:1px;stroke-linecap:butt;stroke-linejoin:miter;stroke-miterlimit:4;stroke-opacity:1;stroke-dasharray:none;stroke-dashoffset:0;marker:none;visibility:visible;display:inline;overflow:visible;enable-background:accumulate"
     d="m 935.61211,594.59053 8.90578,-17.11961 39.59798,0.70711 10.71015,32.28317 z"
     inkscape:connector-curvature="0"
     sodipodi:nodetypes="ccccc" />
  <path
     id="path3035-7-9-2-5"
     style="color:#000000;fill:#0e0e0e;fill-opacity:1;fill-rule:nonzero;stroke:#0e0e0e;stroke-width:1px;stroke-linecap:butt;stroke-linejoin:miter;stroke-miterlimit:4;stroke-opacity:1;stroke-dasharray:none;stroke-dashoffset:0;marker:none;visibility:visible;display:inline;overflow:visible;enable-background:accumulate"
     d="m 331.63308,553.56187 9.19239,-20.72707 53.38656,11.49049 11.58883,29.33973 -55.98513,-20.35245 z"
     inkscape:connector-curvature="0"
     sodipodi:nodetypes="cccccc" />
  <path
     style="color:#000000;fill:#0e0e0e;stroke:#0e0e0e;stroke-width:1px;stroke-linecap:butt;stroke-linejoin:miter;stroke-miterlimit:4;stroke-opacity:1;stroke-dasharray:none;stroke-dashoffset:0;marker:none;visibility:visible;display:inline;overflow:visible;enable-background:accumulate;fill-opacity:1;fill-rule:nonzero"
     d="m 443.88628,580.21096 13.12567,-27.04683 c 23.59969,3.71231 48.76063,5.46562 71.19682,10.34143 l 8.44109,31.64303 -11.30113,0.0166 -51.14094,-14.65073 z"
     id="path3037-1"
     inkscape:connector-curvature="0"
     sodipodi:nodetypes="ccccccc" />
  <path
     style="color:#000000;fill:#0e0e0e;fill-opacity:1;fill-rule:nonzero;stroke:#0e0e0e;stroke-width:1px;stroke-linecap:butt;stroke-linejoin:miter;stroke-miterlimit:4;stroke-opacity:1;stroke-dasharray:none;stroke-dashoffset:0;marker:none;visibility:visible;display:inline;overflow:visible;enable-background:accumulate"
     d="m 592.875,595.375 49.5,-39.125 71.27252,21.13253 0.14068,17.3739 z"
     id="path4011-8"
     inkscape:connector-curvature="0"
     sodipodi:nodetypes="ccccc" />
  <path
     id="path4054-3-18"
     style="fill:#0e0e0e;fill-opacity:1;stroke:#0e0e0e;stroke-width:1px;stroke-linecap:butt;stroke-linejoin:miter;stroke-opacity:1;color:#000000;fill-rule:nonzero;stroke-miterlimit:4;stroke-dasharray:none;stroke-dashoffset:0;marker:none;visibility:visible;display:inline;overflow:visible;enable-background:accumulate"
     d="m 728.375,594.20342 0,-18.57842 c 33.23727,-6.44306 61.34544,-8.8812 92.25,-10.375 l 25.25,28.625 z"
     inkscape:connector-curvature="0"
     sodipodi:nodetypes="ccccc" />
  <path
     style="color:#000000;fill:#313131;fill-opacity:1;fill-rule:nonzero;stroke:#313131;stroke-width:1px;stroke-linecap:butt;stroke-linejoin:miter;stroke-miterlimit:4;stroke-opacity:1;stroke-dasharray:none;stroke-dashoffset:0;marker:none;visibility:visible;display:inline;overflow:visible;enable-background:accumulate"
     d="m 1033.4365,595.23698 118.794,0 c 2.2167,-0.84229 -1.0575,4.78647 -8.4853,13.92246 l -124.4508,0.88389 z"
     id="path3976-6"
     inkscape:connector-curvature="0"
     sodipodi:nodetypes="ccccc" />
  <path
     style="color:#000000;fill:#312b2b;fill-opacity:1;fill-rule:nonzero;stroke:#9e9595;stroke-width:1px;stroke-linecap:butt;stroke-linejoin:miter;stroke-miterlimit:4;stroke-opacity:1;stroke-dasharray:none;stroke-dashoffset:0;marker:none;visibility:visible;display:inline;overflow:visible;enable-background:accumulate"
     d="m 611.47059,581.27162 6.54073,0 6,-10.0533 -6,10.0533 8.30851,0 13.14487,-22.76759 -13.14487,22.79128 9.89949,-0.17678 13.07859,-22.65277 -13.03598,22.66736 9.68011,-0.0884 11.69797,-20.26148 -11.68732,20.26675 9.71207,0.088 10.2587,-17.76859 -10.2587,17.76859 8.92722,0 10.16466,-15.15755 -10.25304,15.1144 12.63953,0 6.8059,-12.37437 -6.62912,12.37437 10.87176,0 4.77297,-9.8111 -4.77297,9.8111 9.81111,0 3.97748,-6.98268 -3.97748,6.89429 11.49048,0 1.76777,-3.97747 -1.67938,3.97747 3.8007,0 0,-3.62392 L 642.5,555.5 z"
     id="path4013"
     inkscape:connector-curvature="0"
     sodipodi:nodetypes="ccccccccccccccccccccccccccccccccccc" />
  <path
     style="fill:#acacac;stroke:#acacac;stroke-width:1px;stroke-linecap:butt;stroke-linejoin:miter;stroke-opacity:1;fill-opacity:1;opacity:1;color:#000000;fill-rule:nonzero;stroke-miterlimit:4;stroke-dasharray:none;stroke-dashoffset:0;marker:none;visibility:visible;display:inline;overflow:visible;enable-background:accumulate"
     d="m 1000,610 c -6.23001,-41.34374 -12.46832,-82.43984 -20,-85 6.32235,55.935 8.26929,51.06322 20,85 z"
     id="path2989-1"
     inkscape:connector-curvature="0"
     sodipodi:nodetypes="ccc" />
  <path
     style="color:#000000;fill:#ebebeb;fill-opacity:1;fill-rule:nonzero;stroke:#ebebeb;stroke-width:1px;stroke-linecap:butt;stroke-linejoin:miter;stroke-miterlimit:4;stroke-opacity:1;stroke-dasharray:none;stroke-dashoffset:0;marker:none;visibility:visible;display:inline;overflow:visible;enable-background:accumulate"
     d="m 427.08989,580.81321 c -6.37775,-83.04568 -20.70078,-158.01945 -29.34232,-217.77242 44.69593,2.98692 87.22363,14.64675 127.67696,34.60404 l 5.52505,25.63703 c -48.31994,63.31206 -71.41,107.71093 -96.60924,157.72459 z"
     id="path3033"
     inkscape:connector-curvature="0"
     sodipodi:nodetypes="cccccc" />
  <path
     style="color:#000000;fill:#ebebeb;stroke:#ebebeb;stroke-width:1px;stroke-linecap:butt;stroke-linejoin:miter;stroke-miterlimit:4;stroke-opacity:1;stroke-dasharray:none;stroke-dashoffset:0;marker:none;visibility:visible;display:inline;overflow:visible;enable-background:accumulate;fill-opacity:1;fill-rule:nonzero"
     d="m 317.40256,553.56187 -50.1162,-131.2567 c 56.14612,-6.92455 80.65523,-4.752 141.02686,11.04005 l 1.89661,14.73331 c -45.55111,37.8092 -71.87332,70.74492 -83.65908,105.48334 z"
     id="path3035"
     inkscape:connector-curvature="0"
     sodipodi:nodetypes="cccccc" />
  <path
     style="fill:#312b2b;fill-opacity:1;stroke:#9e9595;stroke-width:1px;stroke-linecap:butt;stroke-linejoin:miter;stroke-opacity:1;opacity:1;color:#000000;fill-rule:nonzero;stroke-miterlimit:4;stroke-dasharray:none;stroke-dashoffset:0;marker:none;visibility:visible;display:inline;overflow:visible;enable-background:accumulate"
     d="m 452.10167,563.48718 4.91028,-10.32305 c 23.79856,2.91681 48.76063,5.46562 71.19682,10.34143 l 3.01132,11.3283 -5.39781,-1.18574 0.7955,-10.14256 -0.7955,10.14256 -9.14819,-1.59099 0.39774,-10.54031 -0.39774,10.54031 -9.54595,-1.98874 0.99437,-9.94368 -0.99436,9.94368 -8.75045,-1.39211 0.79549,-9.94369 -0.79549,9.94369 -8.55157,-1.29268 0.59662,-9.84425 -0.59662,9.84425 -9.94369,-1.19324 0.99437,-9.64538 -0.99437,9.64538 -9.1482,-1.09381 0.99437,-9.94369 -0.99437,9.94368 -9.14819,-0.79549 0.79549,-10.54031 -0.79548,10.54032 z"
     id="path3037-9"
     inkscape:connector-curvature="0"
     sodipodi:nodetypes="ccccccccccccccccccccccccccccc" />
  <path
     style="fill:#ada7a7;stroke:#ada7a7;stroke-width:1px;stroke-linecap:butt;stroke-linejoin:miter;stroke-opacity:1;fill-opacity:1;opacity:1;color:#000000;fill-rule:nonzero;stroke-miterlimit:4;stroke-dasharray:none;stroke-dashoffset:0;marker:none;visibility:visible;display:inline;overflow:visible;enable-background:accumulate"
     d="m 443.88628,580.21096 13.12567,-27.04683 c 23.59969,3.71231 48.76063,5.46562 71.19682,10.34143 l 8.3527,31.42206 21.08062,0.39775 0,-5.96622 -12.33018,0.7955 -9.1482,-27.44458 c -24.2411,-6.74436 -76.01595,-13.6671 -87.10671,-11.53468 l -14.31891,29.83106 z"
     id="path3037"
     inkscape:connector-curvature="0"
     sodipodi:nodetypes="ccccccccccc" />
  <path
     id="path3037-3"
     style="fill:#f6f6f6;stroke:#f6f6f6;stroke-width:1px;stroke-linecap:butt;stroke-linejoin:miter;stroke-opacity:1;fill-opacity:1;opacity:1;color:#000000;fill-rule:nonzero;stroke-miterlimit:4;stroke-dasharray:none;stroke-dashoffset:0;marker:none;visibility:visible;display:inline;overflow:visible;enable-background:accumulate"
     d="m 530.94958,423.28186 c -38.49421,48.01916 -61.37765,89.58164 -81.89258,127.89353 11.09076,-2.13242 62.86561,4.79032 87.10671,11.53468 -18.24908,-70.44832 -9.00442,-100.96985 -5.21413,-139.42821 z"
     inkscape:connector-curvature="0"
     sodipodi:nodetypes="cccc" />
  <path
     id="path3037-3-7"
     style="fill:#acacac;stroke:#acacac;stroke-width:1px;stroke-linecap:butt;stroke-linejoin:miter;stroke-opacity:1;fill-opacity:1"
     d="m 545.31191,590.15465 -9.1482,-27.44458 c -18.24908,-70.44832 -9.00442,-100.96985 -5.21413,-139.42821 11.05693,48.79825 18.24889,108.41839 26.13373,166.09849 z"
     inkscape:connector-curvature="0"
     sodipodi:nodetypes="ccccc" />
  <path
     style="color:#000000;fill:#f6f6f6;stroke:#f6f6f6;stroke-width:1px;stroke-linecap:butt;stroke-linejoin:miter;stroke-miterlimit:4;stroke-opacity:1;stroke-dasharray:none;stroke-dashoffset:0;marker:none;visibility:visible;display:inline;overflow:visible;enable-background:accumulate;fill-opacity:1;fill-rule:nonzero"
     d="m 638.18107,551.84612 109.1866,-80.618 c 32.8523,30.33985 74.47117,83.54347 110.44483,121.92813 l -4.68817,0 -30.95622,-30.95622 c -30.92915,2.52701 -63.32938,2.86351 -96.49977,11.82374 l -11.4021,1.23744 z"
     id="path3031-3"
     inkscape:connector-curvature="0"
     sodipodi:nodetypes="cccccccc" />
  <path
     style="color:#000000;fill:#acacac;stroke:#acacac;stroke-width:1px;stroke-linecap:butt;stroke-linejoin:miter;stroke-miterlimit:4;stroke-opacity:1;stroke-dasharray:none;stroke-dashoffset:0;marker:none;visibility:visible;display:inline;overflow:visible;enable-background:accumulate;fill-opacity:1;fill-rule:nonzero"
     d="m 747.36767,471.22812 c -14.84026,33.31432 -16.95127,68.2198 -21.69933,102.79565 l -11.4021,1.23744 c 8.52073,-37.81904 19.25096,-72.87622 33.10143,-104.03309 z"
     id="path3031-3-2"
     inkscape:connector-curvature="0"
     sodipodi:nodetypes="cccc" />
  <path
     id="path4054-3-1"
     style="fill:#312b2b;stroke:#9e9595;stroke-width:1px;stroke-linecap:butt;stroke-linejoin:miter;stroke-opacity:1;color:#000000;fill-opacity:1;fill-rule:nonzero;stroke-miterlimit:4;stroke-dasharray:none;stroke-dashoffset:0;marker:none;visibility:visible;display:inline;overflow:visible;enable-background:accumulate"
     d="m 728.375,575.625 c 33.23727,-6.44306 61.34544,-8.8812 92.25,-10.375 l 13.49758,15.5 -8.18508,0 -2.1875,-11.875 2.1875,11.875 -9.125,0 -4.14938,-15.17319 4.14213,15.17319 -10.36775,0 -3.98412,-14.5835 3.99088,14.5835 -9.56926,-10e-6 -3.86895,-14.00162 3.83351,14.00163 -10.33956,0 -3.56914,-13.01498 3.57514,13.01498 -10.006,-7.6e-4 -3.27981,-11.91202 3.28021,11.91352 -10.6879,-7.5e-4 -2.9395,-10.64121 2.96352,10.64121 -10.39902,0 -2.8125,-9.3125 2.75,9.3125 -9.9375,0 -2.5,-7.625 2.5,7.625 -10.1875,0 -1.875,-6.125 1.8125,6.125 -6.75,0 z"
     inkscape:connector-curvature="0"
     sodipodi:nodetypes="ccccccccccccccccccccccccccccccccccc" />
  <path
     id="path3031-4"
     style="color:#000000;fill:#dcd6d6;stroke:#dcd6d6;stroke-width:1px;stroke-linecap:butt;stroke-linejoin:miter;stroke-miterlimit:4;stroke-opacity:1;stroke-dasharray:none;stroke-dashoffset:0;marker:none;visibility:visible;display:inline;overflow:visible;enable-background:accumulate;fill-opacity:1;fill-rule:nonzero"
     d="m 765.9614,457.59284 c -6.78699,4.18509 -13.0328,8.7308 -18.59373,13.63528 -18.68967,-40.77837 -42.17636,-74.681 -70.04825,-102.29818 39.14244,22.98922 67.3933,53.43058 88.64198,88.6629 z"
     inkscape:connector-curvature="0"
     sodipodi:nodetypes="cccc" />
  <path
     id="path3031-4-6"
     style="color:#000000;fill:#acacac;stroke:#acacac;stroke-width:1px;stroke-linecap:butt;stroke-linejoin:miter;stroke-miterlimit:4;stroke-opacity:1;stroke-dasharray:none;stroke-dashoffset:0;marker:none;visibility:visible;display:inline;overflow:visible;enable-background:accumulate;fill-opacity:1;fill-rule:nonzero"
     d="m 765.9614,457.59284 c -6.78699,4.18509 -13.0328,8.7308 -18.59373,13.63528 -4.63658,-10.1164 -9.56839,-19.80963 -14.78915,-29.08871 l 15.43075,-10.86658 c 6.49689,8.42244 12.45853,17.2111 17.95213,26.32001 z"
     inkscape:connector-curvature="0"
     sodipodi:nodetypes="ccccc" />
  <path
     style="color:#000000;fill:#f6f6f6;stroke:#f6f6f6;stroke-width:1px;stroke-linecap:butt;stroke-linejoin:miter;stroke-miterlimit:4;stroke-opacity:1;stroke-dasharray:none;stroke-dashoffset:0;marker:none;visibility:visible;display:inline;overflow:visible;enable-background:accumulate;fill-opacity:1;fill-rule:nonzero"
     d="m 410.20983,448.07853 c -34.67943,28.78528 -58.21334,54.74578 -72.67244,80.8276 l 63.0386,14.71205 c 0.022,-29.14093 -3.33545,-60.07094 11.93243,-81.1405 z"
     id="path3035-7"
     inkscape:connector-curvature="0"
     sodipodi:nodetypes="ccccc" />
  <path
     style="color:#000000;fill:#acacac;fill-opacity:1;fill-rule:nonzero;stroke:#acacac;stroke-width:1px;stroke-linecap:butt;stroke-linejoin:miter;stroke-miterlimit:4;stroke-opacity:1;stroke-dasharray:none;stroke-dashoffset:0;marker:none;visibility:visible;display:inline;overflow:visible;enable-background:accumulate"
     d="m 400.57599,543.61818 c 0.022,-29.14093 -3.33545,-60.07094 11.93243,-81.1405 4.91078,34.63488 10.55143,73.49119 14.52341,118.45295 l -12.3137,-4.07843 z"
     id="path3035-7-9"
     inkscape:connector-curvature="0"
     sodipodi:nodetypes="ccccc" />
  <path
     id="path3035-7-9-2-9"
     style="color:#000000;fill:#312b2b;stroke:#9e9595;stroke-width:1px;stroke-linecap:butt;stroke-linejoin:miter;stroke-miterlimit:4;stroke-opacity:1;stroke-dasharray:none;stroke-dashoffset:0;marker:none;visibility:visible;display:inline;overflow:visible;enable-background:accumulate;fill-opacity:1"
     d="m 396.16901,550.15533 -1.95698,-5.83004 -53.38656,-11.49049 -2.21211,4.98789 6.98508,1.46446 1.76777,-5.03813 -1.76777,5.03813 7.07107,1.41422 1.59099,-4.94975 -1.59131,4.95419 6.70581,1.46652 1.71875,-4.95358 -1.71875,4.95358 6.5,1.50759 1.59375,-5.05492 -1.59375,5.04197 8.0519,1.76317 1.37002,-5.08233 -1.37002,5.08233 8.22012,1.63519 1.10485,-5.12653 -1.10485,5.12653 7.33623,1.59099 1.06066,-5.03814 -1.06066,5.03813 z"
     inkscape:connector-curvature="0"
     sodipodi:nodetypes="cccccccccccccccccccccccccc" />
  <path
     style="fill:#ada7a7;stroke:#ada7a7;stroke-width:1px;stroke-linecap:butt;stroke-linejoin:miter;stroke-opacity:1;color:#000000;fill-opacity:1;fill-rule:nonzero;stroke-miterlimit:4;stroke-dasharray:none;stroke-dashoffset:0;marker:none;visibility:visible;display:inline;overflow:visible;enable-background:accumulate"
     d="m 579.375,595.375 13.5,0 49.5,-39.125 71.27252,21.13253 0.53033,-2.12132 -76.01398,-23.5113 z"
     id="path4011"
     inkscape:connector-curvature="0" />
  <path
     id="path4054-3"
     style="fill:#ada7a7;fill-opacity:1;stroke:#ada7a7;stroke-width:1px;stroke-linecap:butt;stroke-linejoin:miter;stroke-opacity:1"
     d="m 728.375,594.20342 0,-18.57842 c 33.23727,-6.44306 61.34544,-8.8812 92.25,-10.375 l 25.25,28.625 7.99933,0.0313 -31.70622,-31.70622 c -30.92915,2.52701 -63.32938,2.86351 -96.49977,11.82374 l 0.0817,20.23143 z"
     inkscape:connector-curvature="0"
     sodipodi:nodetypes="ccccccccc" />
  <path
     id="path3035-7-9-2"
     style="color:#000000;fill:#ada7a7;fill-opacity:1;fill-rule:nonzero;stroke:#ada7a7;stroke-width:1px;stroke-linecap:butt;stroke-linejoin:miter;stroke-miterlimit:4;stroke-opacity:1;stroke-dasharray:none;stroke-dashoffset:0;marker:none;visibility:visible;display:inline;overflow:visible;enable-background:accumulate"
     d="m 414.96813,577.1022 -14.39214,-33.48402 -63.0386,-14.71205 c -4.50345,7.90464 -8.37455,17.04268 -10.98664,24.65574 l 5.08233,0 9.19239,-20.72707 53.38656,11.49049 11.58883,29.33973 z"
     inkscape:connector-curvature="0"
     sodipodi:nodetypes="ccccccccc" />
  <path
     id="path2989-1-9"
     style="color:#000000;fill:#ffffff;fill-opacity:1;fill-rule:nonzero;stroke:#ffffff;stroke-width:1px;stroke-linecap:butt;stroke-linejoin:miter;stroke-miterlimit:4;stroke-opacity:1;stroke-dasharray:none;stroke-dashoffset:0;marker:none;visibility:visible;display:inline;overflow:visible;enable-background:accumulate"
     d="m 931.78125,592.875 c 16.38044,-34.64696 32.17624,-53.50859 47.8125,-68.0625 L 980,525 c 6.32235,55.935 8.26929,51.06322 20,85 l -1.91878,0.0862 -12.1092,-34.20628 -42.33803,-0.97228 c 0,0 -10.25304,18.03122 -10.25304,18.9151 z"
     inkscape:connector-curvature="0"
     sodipodi:nodetypes="ccccccccc" />
  <path
     style="fill:#ebebeb;stroke:#ebebeb;stroke-width:1px;stroke-linecap:butt;stroke-linejoin:miter;stroke-opacity:1;color:#000000;fill-opacity:1;fill-rule:nonzero;stroke-miterlimit:4;stroke-dasharray:none;stroke-dashoffset:0;marker:none;visibility:visible;display:inline;overflow:visible;enable-background:accumulate;opacity:1"
     d="m 558,595.26562 21.375,0 167.99267,-124.0375 C 696.13338,359.44173 608.85035,299.32522 494.00248,278.7183 529.69123,378.49158 542.78974,487.30095 558,595.26562 z"
     id="path3031"
     inkscape:connector-curvature="0"
     sodipodi:nodetypes="ccccc" />
  <path
     id="path3011-3"
     style="color:#000000;fill:#ebebeb;fill-opacity:1;fill-rule:nonzero;stroke:#ebebeb;stroke-width:1px;stroke-linecap:butt;stroke-linejoin:miter;stroke-miterlimit:4;stroke-opacity:1;stroke-dasharray:none;stroke-dashoffset:0;marker:none;visibility:visible;display:inline;overflow:visible;enable-background:accumulate"
     d="m 917.50586,504.8159 c 14.30934,-24.6718 30.03393,-49.67661 48.58789,-75.34715 -84.41378,-23.88013 -188.08941,10.59633 -218.62776,41.60501 31.71097,30.07297 73.15286,81.87363 110.84651,122.58249 l 10.09375,0.15625 c 9.64312,-18.13895 20.63488,-37.74228 30.55974,-55.94752 L 882,500.906 c 12.68091,0.53388 23.73681,1.99613 35.50586,3.9099 z"
     inkscape:connector-curvature="0"
     sodipodi:nodetypes="cccccccc" />
  <path
     id="path2989-1-9-7-1"
     style="color:#000000;fill:#312b2b;stroke:#9e9595;stroke-width:1px;stroke-linecap:butt;stroke-linejoin:miter;stroke-miterlimit:4;stroke-opacity:1;stroke-dasharray:none;stroke-dashoffset:0;marker:none;visibility:visible;display:inline;overflow:visible;enable-background:accumulate;fill-opacity:1;fill-rule:nonzero"
     d="m 989.03414,592.49656 -4.91827,-14.31853 -39.59798,-0.70711 -1.26369,2.4672 8.4333,0.0619 1.5625,-2.4375 -2,4.9375 7.9375,0 1.5625,-4.875 -2,7.375 7.9375,0 1.5625,-7.1875 -2,9.6875 7.9375,0 1.5625,-9.625 -2,12.125 7.9375,0 1.5625,-12 -2,14.5 7.5,0 0.28414,-0.003 z"
     inkscape:connector-curvature="0"
     sodipodi:nodetypes="cccccccccccccccccccccc" />
  <path
     id="path2989-1-9-7"
     style="color:#000000;fill:#ada7a7;fill-opacity:1;fill-rule:nonzero;stroke:#ada7a7;stroke-width:1px;stroke-linecap:butt;stroke-linejoin:miter;stroke-miterlimit:4;stroke-opacity:1;stroke-dasharray:none;stroke-dashoffset:0;marker:none;visibility:visible;display:inline;overflow:visible;enable-background:accumulate"
     d="m 998.08122,610.0862 -12.1092,-34.20628 -42.33803,-0.97228 c 0,0 -10.25304,18.03122 -10.25304,18.9151 l 2.23116,0.76779 8.90578,-17.11961 39.59798,0.70711 10.96015,31.90817 z"
     inkscape:connector-curvature="0"
     sodipodi:nodetypes="ccccccccc" />
  <path
     id="path3011-3-3"
     style="color:#000000;fill:#312b2b;fill-opacity:1;fill-rule:nonzero;stroke:#312b2b;stroke-width:1px;stroke-linecap:butt;stroke-linejoin:miter;stroke-miterlimit:4;stroke-opacity:1;stroke-dasharray:none;stroke-dashoffset:0;marker:none;visibility:visible;display:inline;overflow:visible;enable-background:accumulate"
     d="m 921.88964,592.12984 c -0.15069,0.45618 -0.30223,0.9129 -0.45461,1.37016 l -5.5,0 c 0.8704,-3.33297 1.7384,-6.62164 2.6029,-9.86489 z M 900.83234,542.9134 C 891.74493,559.00237 882.48932,575.78533 873,593.8125 l -4.59375,0 c 9.43909,-18.22564 19.61594,-37.234 30.24934,-56.23288 z"
     inkscape:connector-curvature="0"
     sodipodi:nodetypes="cccccccccc" />
  <path
     style="fill:#736767;stroke:#736767;stroke-width:1px;stroke-linecap:butt;stroke-linejoin:miter;stroke-opacity:1;color:#000000;fill-opacity:1;fill-rule:nonzero;stroke-miterlimit:4;stroke-dasharray:none;stroke-dashoffset:0;marker:none;visibility:visible;display:inline;overflow:visible;enable-background:accumulate"
     d="m 299.81328,561.6494 -66.46804,-6.71751 c -9.45401,-3.48853 60.92904,-19.56329 76.01398,-21.92031 l 7.77817,20.5061 z"
     id="path3939"
     inkscape:connector-curvature="0"
     sodipodi:nodetypes="ccccc" />
  <path
     style="fill:#736767;stroke:#736767;stroke-width:1px;stroke-linecap:butt;stroke-linejoin:miter;stroke-opacity:1;color:#000000;fill-opacity:1;fill-rule:nonzero;stroke-miterlimit:4;stroke-dasharray:none;stroke-dashoffset:0;marker:none;visibility:visible;display:inline;overflow:visible;enable-background:accumulate"
     d="m 1033.4365,595.23698 118.794,0 c -25.5981,-13.31146 -48.9491,-29.31947 -78.8424,-37.47666 z"
     id="path3976"
     inkscape:connector-curvature="0"
     sodipodi:nodetypes="cccc" />
  <path
     inkscape:connector-curvature="0"
     id="path4002-2"
     style="color:#000000;fill:#5a1a08;stroke:#5a1a08;stroke-width:1px;stroke-linecap:butt;stroke-linejoin:miter;stroke-miterlimit:4;stroke-opacity:1;stroke-dasharray:none;stroke-dashoffset:0;marker:none;visibility:visible;display:inline;overflow:visible;enable-background:accumulate;fill-opacity:1;fill-rule:nonzero"
     d="m 1097.5,595 -35.1715,-26.89588 -3.5635,3.46963 L 1090,595 z"
     sodipodi:nodetypes="ccccc" />
  <path
     inkscape:connector-curvature="0"
     id="path4002-2-0"
     style="color:#000000;fill:#5a1a08;stroke:#5a1a08;stroke-width:1px;stroke-linecap:butt;stroke-linejoin:miter;stroke-miterlimit:4;stroke-opacity:1;stroke-dasharray:none;stroke-dashoffset:0;marker:none;visibility:visible;display:inline;overflow:visible;enable-background:accumulate;fill-opacity:1;fill-rule:nonzero"
     d="m 1122.5,595 -46.0637,-36.36608 -3.0273,-0.86875 -2.8606,2.66133 L 1115,595 z"
     sodipodi:nodetypes="cccccc" />
  <path
     inkscape:connector-curvature="0"
     id="path4002-2-0-6"
     style="color:#000000;fill:#5a1a08;stroke:#5a1a08;stroke-width:1px;stroke-linecap:butt;stroke-linejoin:miter;stroke-miterlimit:4;stroke-opacity:1;stroke-dasharray:none;stroke-dashoffset:0;marker:none;visibility:visible;display:inline;overflow:visible;enable-background:accumulate;fill-opacity:1;fill-rule:nonzero"
     d="m 1127.5,595 -46.25,-35 c 5.4945,2.07431 10.9891,3.96394 16.4836,6.50218 L 1135,595 z"
     sodipodi:nodetypes="ccccc" />
  <path
     inkscape:connector-curvature="0"
     id="path4002-2-0-6-9-9"
     style="color:#000000;fill:#5a1a08;stroke:#5a1a08;stroke-width:1px;stroke-linecap:butt;stroke-linejoin:miter;stroke-miterlimit:4;stroke-opacity:1;stroke-dasharray:none;stroke-dashoffset:0;marker:none;visibility:visible;display:inline;overflow:visible;enable-background:accumulate;fill-opacity:1;fill-rule:nonzero"
     d="m 1085,595 -28.2222,-21.58166 -3.5958,3.34318 L 1077.5,595 z"
     sodipodi:nodetypes="ccccc" />
  <path
     inkscape:connector-curvature="0"
     id="path4002-2-0-6-9-9-6"
     style="color:#000000;fill:#5a1a08;stroke:#5a1a08;stroke-width:1px;stroke-linecap:butt;stroke-linejoin:miter;stroke-miterlimit:4;stroke-opacity:1;stroke-dasharray:none;stroke-dashoffset:0;marker:none;visibility:visible;display:inline;overflow:visible;enable-background:accumulate;fill-opacity:1;fill-rule:nonzero"
     d="m 1065,595 -17.395,-13.015 3.5129,-3.35072 L 1072.5,595 z"
     sodipodi:nodetypes="ccccc" />
  <path
     inkscape:connector-curvature="0"
     id="path4002-2-0-6-9-9-6-3"
     style="color:#000000;fill:#5a1a08;stroke:#5a1a08;stroke-width:1px;stroke-linecap:butt;stroke-linejoin:miter;stroke-miterlimit:4;stroke-opacity:1;stroke-dasharray:none;stroke-dashoffset:0;marker:none;visibility:visible;display:inline;overflow:visible;enable-background:accumulate;fill-opacity:1;fill-rule:nonzero"
     d="m 1052.5,595 -10.4775,-7.8425 3.4899,-3.23624 L 1060,595 z"
     sodipodi:nodetypes="ccccc" />
  <path
     inkscape:connector-curvature="0"
     id="path4002-2-0-6-9-9-6-3-1"
     style="color:#000000;fill:#5a1a08;stroke:#5a1a08;stroke-width:1px;stroke-linecap:butt;stroke-linejoin:miter;stroke-miterlimit:4;stroke-opacity:1;stroke-dasharray:none;stroke-dashoffset:0;marker:none;visibility:visible;display:inline;overflow:visible;enable-background:accumulate;fill-opacity:1;fill-rule:nonzero"
     d="M 1039.9394,589.21836 1047.5,595 l -7.5,0 -3.4657,-2.58368 z"
     sodipodi:nodetypes="ccccc" />
  <path
     id="path4002"
     style="color:#000000;fill:#5a1a08;stroke:#5a1a08;stroke-width:1px;stroke-linecap:butt;stroke-linejoin:miter;stroke-miterlimit:4;stroke-opacity:1;stroke-dasharray:none;stroke-dashoffset:0;marker:none;visibility:visible;display:inline;overflow:visible;enable-background:accumulate;fill-opacity:1;fill-rule:nonzero"
     d="m 1110,595 -42.0233,-32.13544 -3.7117,3.45919 L 1102.5,595 z"
     inkscape:connector-curvature="0"
     sodipodi:nodetypes="ccccc" />
  <path
     inkscape:connector-curvature="0"
     id="path4002-2-0-6-9"
     style="color:#000000;fill:#5a1a08;stroke:#5a1a08;stroke-width:1px;stroke-linecap:butt;stroke-linejoin:miter;stroke-miterlimit:4;stroke-opacity:1;stroke-dasharray:none;stroke-dashoffset:0;marker:none;visibility:visible;display:inline;overflow:visible;enable-background:accumulate;fill-opacity:1;fill-rule:nonzero"
     d="m 1147.5,595 -10.6636,-8.15452 c -9.049,-5.04839 -17.9044,-10.13551 -27.7436,-15.02586 L 1140,595 z"
     sodipodi:nodetypes="ccccc" />
  <path
     style="fill:#1e1e1e;fill-opacity:0.59243697;stroke:none"
     d="m 1033.1865,595.23698 c 23.0494,-12.2566 47.9739,-23.01935 80.3395,-21.76739 -12.4253,-6.44785 -25.3869,-12.50227 -39.8879,-16.45927 z"
     id="path3976-2"
     inkscape:connector-curvature="0"
     sodipodi:nodetypes="cccc" />
  <path
     id="path4002-27"
     style="color:#000000;fill:#5a1a08;fill-opacity:1;fill-rule:nonzero;stroke:#5a1a08;stroke-width:1px;stroke-linecap:butt;stroke-linejoin:miter;stroke-miterlimit:4;stroke-opacity:1;stroke-dasharray:none;stroke-dashoffset:0;marker:none;visibility:visible;display:inline;overflow:visible;enable-background:accumulate"
     d="m 234.01937,554.91813 13.9376,-7.44417 8.13986,-2.21499 -18.82746,9.90916 z"
     inkscape:connector-curvature="0"
     sodipodi:nodetypes="ccccc" />
  <path
     id="path4002-27-7"
     style="color:#000000;fill:#5a1a08;fill-opacity:1;fill-rule:nonzero;stroke:#5a1a08;stroke-width:1px;stroke-linecap:butt;stroke-linejoin:miter;stroke-miterlimit:4;stroke-opacity:1;stroke-dasharray:none;stroke-dashoffset:0;marker:none;visibility:visible;display:inline;overflow:visible;enable-background:accumulate"
     d="m 244.01937,555.41813 25.50172,-13.62066 7.90722,-2.00243 -30.15894,15.87309 z"
     inkscape:connector-curvature="0"
     sodipodi:nodetypes="ccccc" />
  <path
     id="path4002-27-7-4"
     style="color:#000000;fill:#5a1a08;fill-opacity:1;fill-rule:nonzero;stroke:#5a1a08;stroke-width:1px;stroke-linecap:butt;stroke-linejoin:miter;stroke-miterlimit:4;stroke-opacity:1;stroke-dasharray:none;stroke-dashoffset:0;marker:none;visibility:visible;display:inline;overflow:visible;enable-background:accumulate"
     d="m 253.26937,556.54313 37.04319,-19.78504 7.0275,-1.44948 -40.82069,21.48452 z"
     inkscape:connector-curvature="0"
     sodipodi:nodetypes="ccccc" />
  <path
     id="path4002-27-7-4-8"
     style="color:#000000;fill:#5a1a08;fill-opacity:1;fill-rule:nonzero;stroke:#5a1a08;stroke-width:1px;stroke-linecap:butt;stroke-linejoin:miter;stroke-miterlimit:4;stroke-opacity:1;stroke-dasharray:none;stroke-dashoffset:0;marker:none;visibility:visible;display:inline;overflow:visible;enable-background:accumulate"
     d="m 262.01937,557.66813 45.55146,-24.34995 1.76918,-0.26472 0.5319,1.36877 -44.60254,23.4959 z"
     inkscape:connector-curvature="0"
     sodipodi:nodetypes="cccccc" />
  <path
     id="path4002-27-7-4-8-1"
     style="color:#000000;fill:#5a1a08;fill-opacity:1;fill-rule:nonzero;stroke:#5a1a08;stroke-width:1px;stroke-linecap:butt;stroke-linejoin:miter;stroke-miterlimit:4;stroke-opacity:1;stroke-dasharray:none;stroke-dashoffset:0;marker:none;visibility:visible;display:inline;overflow:visible;enable-background:accumulate"
     d="m 271.14437,558.79313 39.87029,-21.27593 0.71152,1.86719 -37.33181,19.65874 z"
     inkscape:connector-curvature="0"
     sodipodi:nodetypes="ccccc" />
  <path
     id="path4002-27-7-4-8-1-3"
     style="color:#000000;fill:#5a1a08;fill-opacity:1;fill-rule:nonzero;stroke:#5a1a08;stroke-width:1px;stroke-linecap:butt;stroke-linejoin:miter;stroke-miterlimit:4;stroke-opacity:1;stroke-dasharray:none;stroke-dashoffset:0;marker:none;visibility:visible;display:inline;overflow:visible;enable-background:accumulate"
     d="m 280.39437,559.54313 32.43512,-17.32383 0.70078,1.84445 -29.8859,15.72938 z"
     inkscape:connector-curvature="0"
     sodipodi:nodetypes="ccccc" />
  <path
     id="path4002-27-7-4-8-1-3-3"
     style="color:#000000;fill:#5a1a08;fill-opacity:1;fill-rule:nonzero;stroke:#5a1a08;stroke-width:1px;stroke-linecap:butt;stroke-linejoin:miter;stroke-miterlimit:4;stroke-opacity:1;stroke-dasharray:none;stroke-dashoffset:0;marker:none;visibility:visible;display:inline;overflow:visible;enable-background:accumulate"
     d="m 289.64437,560.29313 24.93753,-13.31931 0.6303,1.82311 -22.31783,11.7462 z"
     inkscape:connector-curvature="0"
     sodipodi:nodetypes="ccccc" />
  <path
     style="fill:#313131;stroke:#313131;stroke-width:1px;stroke-linecap:butt;stroke-linejoin:round;stroke-opacity:1;color:#000000;fill-opacity:1;fill-rule:nonzero;stroke-miterlimit:4;stroke-dasharray:none;stroke-dashoffset:0;marker:none;visibility:visible;display:inline;overflow:visible;enable-background:accumulate"
     d="m 299.81328,561.6494 -66.46804,-6.71751 15.20279,12.72792 41.0122,-1.41421 z"
     id="path3939-9"
     inkscape:connector-curvature="0"
     sodipodi:nodetypes="cc" />
  <path
     style="fill:#0e0e0e;fill-opacity:1;stroke:#0e0e0e;stroke-width:1px;stroke-linecap:butt;stroke-linejoin:miter;stroke-opacity:1;color:#000000;fill-rule:nonzero;stroke-miterlimit:4;stroke-dasharray:none;stroke-dashoffset:0;marker:none;visibility:visible;display:inline;overflow:visible;enable-background:accumulate"
     d="m 1073.2617,557.01302 c 21.3948,-19.26864 44.5269,-37.59384 69.7383,-52.45052 l -52.0312,58.78125 z"
     id="path2989-0-1"
     inkscape:connector-curvature="0"
     sodipodi:nodetypes="cccc" />
  <path
     style="fill:#312b2b;stroke:#312b2b;stroke-width:1px;stroke-linecap:butt;stroke-linejoin:miter;stroke-opacity:1;fill-opacity:1;opacity:1;color:#000000;fill-rule:nonzero;stroke-miterlimit:4;stroke-dasharray:none;stroke-dashoffset:0;marker:none;visibility:visible;display:inline;overflow:visible;enable-background:accumulate"
     d="M 1151.125,495.5625 C 1105.061,523.28017 1058.3062,558.36541 1010,610 l 8.9688,0 C 1054.3209,573.92505 1094.8717,532.92372 1143,504.5625 l -52.0312,58.78125 6.75,2.53125 c 36.5631,-52.83261 58.4947,-68.50192 53.4062,-70.3125 z"
     id="path2989-0"
     inkscape:connector-curvature="0"
     sodipodi:nodetypes="ccccccc" />
  <path
     style="fill:#ebebeb;stroke:#ebebeb;stroke-width:1px;stroke-linecap:butt;stroke-linejoin:miter;stroke-opacity:1;color:#000000;fill-opacity:1;fill-rule:nonzero;stroke-miterlimit:4;stroke-dasharray:none;stroke-dashoffset:0;marker:none;visibility:visible;display:inline;overflow:visible;enable-background:accumulate;opacity:1"
     d="M 1151.125,495.5625 C 1105.061,523.28017 1058.3062,558.36541 1010,610 l -10,0 c -6.23001,-41.34374 -12.46832,-82.43984 -20,-85 69.606,-35.6887 147.5887,-30.72513 171.125,-29.4375 z"
     id="path2989"
     inkscape:connector-curvature="0"
     sodipodi:nodetypes="ccccc" />
  <path
     style="color:#000000;fill:#787272;fill-opacity:1;fill-rule:nonzero;stroke:#787272;stroke-width:1px;stroke-linecap:butt;stroke-linejoin:miter;stroke-miterlimit:4;stroke-opacity:1;stroke-dasharray:none;stroke-dashoffset:0;marker:none;visibility:visible;display:inline;overflow:visible;enable-background:accumulate"
     d="m 713.25,594.48744 12.5,0 0,-20.39369 -11.53125,1.15625 -0.75,2.25 z"
     id="path4054"
     inkscape:connector-curvature="0"
     sodipodi:nodetypes="cccccc" />
  <path
     style="fill:#dcbfaf;fill-opacity:1;fill-rule:evenodd;stroke:url(#radialGradient4609);stroke-width:1px;stroke-linecap:butt;stroke-linejoin:miter;stroke-opacity:1"
     d="m 212.13203,652.51263 1029.19397,0 0,-28.99155 -31.4661,-14.96016 -215.83934,2.00017 -61.70027,-16.73833 -406.23284,1.76777 -51.97235,-14.84924 -49.14392,0 -75.66043,-27.22361 -31.8198,0.7071 -27.57717,12.53859 -44.54773,1.60355 -0.35355,21.92031 -18.03122,0 0,24.04163 -14.84925,0 z"
     id="path4601"
     inkscape:connector-curvature="0"
     sodipodi:nodetypes="cccccccccccccccccc" />
  <path
     id="path3011-3-3-2"
     style="color:#000000;fill:#312b2b;fill-opacity:1;fill-rule:nonzero;stroke:#312b2b;stroke-width:1px;stroke-linecap:butt;stroke-linejoin:miter;stroke-miterlimit:4;stroke-opacity:1;stroke-dasharray:none;stroke-dashoffset:0;marker:none;visibility:visible;display:inline;overflow:visible;enable-background:accumulate"
     d="m 917.66044,504.52188 c 15.82039,-26.751 32.23842,-52.53947 48.43331,-75.05313 -9.9192,26.70699 -16.08817,53.39165 -22.56042,81.39871 l -3.88526,-1.02966 C 956.12953,455.71143 965.819,430.36834 955.70711,447 c -11.01457,19.78211 -22.0816,38.84549 -33.33537,58.31767 z"
     inkscape:connector-curvature="0"
     sodipodi:nodetypes="ccccccc" />
  <path
     style="color:#000000;fill:#f6f6f6;fill-opacity:1;fill-rule:nonzero;stroke:#f6f6f6;stroke-width:1px;stroke-linecap:butt;stroke-linejoin:miter;stroke-miterlimit:4;stroke-opacity:1;stroke-dasharray:none;stroke-dashoffset:0;marker:none;visibility:visible;display:inline;overflow:visible;enable-background:accumulate"
     d="m 922.5,592.875 c -13.83939,-32.84866 -26.68813,-63.55041 -40.5,-91.969 37.11787,1.49266 67.92319,10.49814 97.59375,23.9065 -15.63626,14.55391 -31.43206,33.41554 -47.8125,68.0625 z"
     id="path3011"
     inkscape:connector-curvature="0"
     sodipodi:nodetypes="ccccc" />
</svg>
