<!-- Created with Inkscape (http://www.inkscape.org/) -->
<svg xmlns:rdf="http://www.w3.org/1999/02/22-rdf-syntax-ns#" xmlns="http://www.w3.org/2000/svg" height="180" width="180" version="1.1" xmlns:cc="http://creativecommons.org/ns#" xmlns:xlink="http://www.w3.org/1999/xlink" xmlns:dc="http://purl.org/dc/elements/1.1/">
	<defs>
		<linearGradient id="linearGradient3852" y2="80" gradientUnits="userSpaceOnUse" x2="87.132" gradientTransform="translate(-230,169.99996)" y1="120" x1="87.132">
			<stop stop-color="#ef498b" offset="0"/>
			<stop stop-color="#ef498b" offset="0.45"/>
			<stop stop-color="#FFF" stop-opacity="0" offset="0.4501"/>
			<stop stop-color="#FFF" stop-opacity="0" offset="1"/>
		</linearGradient>
	</defs>
	<metadata>
		<rdf:RDF>
			<cc:Work rdf:about="">
				<dc:format>image/svg+xml</dc:format>
				<dc:type rdf:resource="http://purl.org/dc/dcmitype/StillImage"/>
				<dc:title/>
			</cc:Work>
		</rdf:RDF>
	</metadata>
	<path stroke-linejoin="miter" style="enable-background:accumulate;color:#000000;" d="m17,92,0-3,2,0,0,3-2,0" fill-rule="nonzero" stroke-dashoffset="0" stroke="#bc1e1e" stroke-linecap="butt" stroke-miterlimit="4" stroke-dasharray="none" stroke-width="1px" fill="#bc1e1e"/>
	<path stroke-linejoin="miter" style="enable-background:accumulate;color:#000000;" d="m30,160,0,15,2,0,8-15-10,0" fill-rule="evenodd" stroke-dashoffset="0" stroke="#000" stroke-linecap="butt" stroke-miterlimit="4" stroke-dasharray="none" stroke-width="1" fill="#b1b1b1"/>
	<path stroke-linejoin="miter" style="enable-background:accumulate;color:#000000;" d="m130,160,0,15-2,0-8-15,10,0" fill-rule="evenodd" stroke-dashoffset="0" stroke="#000" stroke-linecap="butt" stroke-miterlimit="4" stroke-dasharray="none" stroke-width="1" fill="#b1b1b1"/>
	<path stroke-linejoin="miter" style="enable-background:accumulate;color:#000000;" d="m98.017,101.72c0,4.5815-1.886,9.1348-5.1256,12.374-3.2396,3.2396-7.7929,5.1256-12.374,5.1256-4.5815,0-9.1348-1.886-12.374-5.1256-3.24-3.24-5.126-7.79-5.126-12.37,0-4.5815,1.886-9.1348,5.1256-12.374,3.2396-3.2396,7.7929-5.1256,12.374-5.1256,4.5815,0,9.1348,1.886,12.374,5.1256,3.24,3.239,5.126,7.793,5.126,12.374zm-68.017-56.72,0,115c10,10,90,10,100,0v-115h-100" fill-rule="evenodd" stroke-dashoffset="0" stroke="#000" stroke-linecap="butt" stroke-miterlimit="4" stroke-dasharray="none" stroke-width="1" fill="#CCC"/>
	<path stroke-linejoin="miter" style="color:#000000;enable-background:accumulate;" d="m98.017,101.72a17.5,17.5,0,0,1,-35,0,17.5,17.5,0,1,1,35,0z" fill-rule="evenodd" stroke-dashoffset="0" stroke="#000" stroke-linecap="butt" stroke-miterlimit="4" stroke-dasharray="none" stroke-width="1" fill="#6d6d6d"/>
	<path style="color:#000000;enable-background:accumulate;" d="m98.017,101.72a17.5,17.5,0,0,1,-35,0,17.5,17.5,0,1,1,35,0z" fill-rule="nonzero" stroke-miterlimit="4" fill="url(#linearGradient3852)"/>
	<path stroke-linejoin="miter" style="color:#000000;enable-background:accumulate;" d="m98.017,101.72a17.5,17.5,0,0,1,-35,0,17.5,17.5,0,1,1,35,0zm10,0a27.5,27.5,0,0,1,-55,0,27.5,27.5,0,1,1,55,0z" fill-rule="evenodd" stroke-dashoffset="0" stroke="#000" stroke-linecap="butt" stroke-dasharray="none" stroke-miterlimit="4" stroke-width="1" fill="#b1b1b1"/>
	<path stroke-linejoin="miter" style="enable-background:accumulate;color:#000000;" d="M35.25,35c9.75-20,79.75-20,89.75,0h-89.75z" fill-rule="evenodd" stroke-dashoffset="0" stroke="#000" stroke-linecap="butt" stroke-miterlimit="4" stroke-dasharray="none" stroke-width="1" fill="#b1b1b1"/>
	<path stroke-linejoin="miter" style="enable-background:accumulate;color:#000000;" d="m25,45,0-10,110,0,0,10z" fill-rule="evenodd" stroke-dashoffset="0" stroke="#000" stroke-linecap="butt" stroke-miterlimit="4" stroke-dasharray="none" stroke-width="1" fill="#CCC"/>
	<path stroke-linejoin="miter" style="color:#000000;enable-background:accumulate;" d="m82.249,82.215-3.4641,0-1.7321-3,1.7321-3,3.4641,0,1.7321,3z" fill-rule="nonzero" fill-opacity="0.29411765" stroke-dashoffset="0" stroke="#000" stroke-linecap="butt" stroke-dasharray="none" stroke-miterlimit="4" stroke-width="0.76851243000000002" fill="#c9c9c9"/>
	<path stroke-linejoin="miter" style="color:#000000;enable-background:accumulate;" d="m67.941,86.707-2.4495,2.4495-3.346-0.89655-0.89655-3.346,2.4495-2.4495,3.346,0.89655z" fill-rule="nonzero" fill-opacity="0.29411765" stroke-dashoffset="0" stroke="#000" stroke-linecap="butt" stroke-dasharray="none" stroke-miterlimit="4" stroke-width="0.76851243" fill="#c9c9c9"/>
	<path stroke-linejoin="miter" style="color:#000000;enable-background:accumulate;" d="m61,100,0,3.4641-3,1.732l-3-1.73v-3.46l3-1.732z" fill-rule="nonzero" fill-opacity="0.29411765" stroke-dashoffset="0" stroke="#000" stroke-linecap="butt" stroke-dasharray="none" stroke-miterlimit="4" stroke-width="0.76851243000000002" fill="#c9c9c9"/>
	<path stroke-linejoin="miter" style="color:#000000;enable-background:accumulate;" d="m65.492,114.31,2.4495,2.4495-0.89655,3.346-3.346,0.89656-2.4495-2.4495,0.89655-3.346z" fill-rule="nonzero" fill-opacity="0.29411765" stroke-dashoffset="0" stroke="#000" stroke-linecap="butt" stroke-dasharray="none" stroke-miterlimit="4" stroke-width="0.76851243000000002" fill="#c9c9c9"/>
	<path stroke-linejoin="miter" style="color:#000000;enable-background:accumulate;" d="m78.785,121.25,3.4641,0,1.7321,3-1.7321,3-3.4641,0-1.7321-3z" fill-rule="nonzero" fill-opacity="0.29411765" stroke-dashoffset="0" stroke="#000" stroke-linecap="butt" stroke-dasharray="none" stroke-miterlimit="4" stroke-width="0.76851243000000002" fill="#c9c9c9"/>
	<path stroke-linejoin="miter" style="color:#000000;enable-background:accumulate;" d="m93.093,116.76,2.4495-2.4495,3.346,0.89655,0.89655,3.346-2.4495,2.4495-3.346-0.89655z" fill-rule="nonzero" fill-opacity="0.29411765" stroke-dashoffset="0" stroke="#000" stroke-linecap="butt" stroke-dasharray="none" stroke-miterlimit="4" stroke-width="0.76851243000000002" fill="#c9c9c9"/>
	<path stroke-linejoin="miter" style="color:#000000;enable-background:accumulate;" d="m100.03,103.46,0-3.4641,3-1.7321,3,1.7321,0,3.4641-3,1.732z" fill-rule="nonzero" fill-opacity="0.29411765" stroke-dashoffset="0" stroke="#000" stroke-linecap="butt" stroke-dasharray="none" stroke-miterlimit="4" stroke-width="0.76851243000000002" fill="#c9c9c9"/>
	<path stroke-linejoin="miter" style="color:#000000;enable-background:accumulate;" d="m95.543,89.156-2.4495-2.4495,0.89655-3.346,3.346-0.89655,2.4495,2.4495-0.89655,3.346z" fill-rule="nonzero" fill-opacity="0.29411765" stroke-dashoffset="0" stroke="#000" stroke-linecap="butt" stroke-dasharray="none" stroke-miterlimit="4" stroke-width="0.76851243000000002" fill="#c9c9c9"/>
	<path stroke-linejoin="miter" d="m28,35,0-2,4,0,0,2-4,0" stroke="#000" stroke-linecap="butt" stroke-width="1px" fill="#787878"/>
	<path stroke-linejoin="miter" style="enable-background:accumulate;color:#000000;" d="m48,35,0-2,4,0,0,2-4,0" fill-rule="nonzero" stroke-dashoffset="0" stroke="#000" stroke-linecap="butt" stroke-miterlimit="4" stroke-dasharray="none" stroke-width="1px" fill="#787878"/>
	<path stroke-linejoin="miter" style="enable-background:accumulate;color:#000000;" d="m68,35,0-2,4,0,0,2-4,0" fill-rule="nonzero" stroke-dashoffset="0" stroke="#000" stroke-linecap="butt" stroke-miterlimit="4" stroke-dasharray="none" stroke-width="1px" fill="#787878"/>
	<path stroke-linejoin="miter" style="enable-background:accumulate;color:#000000;" d="m88,35,0-2,4,0,0,2-4,0" fill-rule="nonzero" stroke-dashoffset="0" stroke="#000" stroke-linecap="butt" stroke-miterlimit="4" stroke-dasharray="none" stroke-width="1px" fill="#787878"/>
	<path stroke-linejoin="miter" style="color:#000000;enable-background:accumulate;" d="m108,35,0-2,4,0,0,2-4,0" fill-rule="nonzero" stroke-dashoffset="0" stroke="#000" stroke-linecap="butt" stroke-dasharray="none" stroke-miterlimit="4" stroke-width="1px" fill="#787878"/>
	<path stroke-linejoin="miter" style="color:#000000;enable-background:accumulate;" d="m128,35,0-2,4,0,0,2-4,0" stroke-dashoffset="0" stroke="#000" stroke-linecap="butt" stroke-dasharray="none" stroke-miterlimit="4" stroke-width="1px" fill="none"/>
	<path stroke-linejoin="miter" style="color:#000000;enable-background:accumulate;" d="m128,35,0-2,4,0,0,2-4,0" fill-rule="nonzero" stroke-dashoffset="0" stroke="#000" stroke-linecap="butt" stroke-dasharray="none" stroke-miterlimit="4" stroke-width="1px" fill="#787878"/>
	<path stroke-linejoin="miter" style="enable-background:accumulate;color:#000000;" d="m75,20.106c3.4358-0.13869,6.8118-0.13361,10.008-0.0024l-0.008-5.104h-10z" fill-rule="evenodd" stroke-dashoffset="0" stroke="#000" stroke-linecap="butt" stroke-miterlimit="4" stroke-dasharray="none" stroke-width="1" fill="#878787"/>
	<path stroke-linejoin="miter" style="enable-background:accumulate;color:#000000;" d="M30.106,100c-0.138-3.436-0.133-6.812-0.002-10.008l-5.104,0.008v10z" fill-rule="evenodd" stroke-dashoffset="0" stroke="#000" stroke-linecap="butt" stroke-miterlimit="4" stroke-dasharray="none" stroke-width="1" fill="#878787"/>
	<path stroke-linejoin="miter" style="enable-background:accumulate;color:#000000;" d="m25,98-15,0,0-6,15,0,0,6" fill-rule="evenodd" stroke-dashoffset="0" stroke="#000" stroke-linecap="butt" stroke-miterlimit="4" stroke-dasharray="none" stroke-width="1" fill="#CCC"/>
	<path stroke-linejoin="miter" d="m13,89,0-1,10,0,0,1-10,0" stroke="#d52525" stroke-linecap="butt" stroke-width="1px" fill="#ff5252"/>
</svg>
