<!-- Created with Inkscape (http://www.inkscape.org/) -->
<svg xmlns:rdf="http://www.w3.org/1999/02/22-rdf-syntax-ns#" xmlns="http://www.w3.org/2000/svg" height="463" width="475.8" version="1.1" xmlns:cc="http://creativecommons.org/ns#" xmlns:dc="http://purl.org/dc/elements/1.1/">
	<metadata>
		<rdf:RDF>
			<cc:Work rdf:about="">
				<dc:format>image/svg+xml</dc:format>
				<dc:type rdf:resource="http://purl.org/dc/dcmitype/StillImage"/>
				<dc:title/>
			</cc:Work>
		</rdf:RDF>
	</metadata>
	<path fill="#000" d="m0,0c71.015,40,404.78,40,475.8,0l-7.1015,20c-63.913,30-397.68,30-461.59,0z"/>
	<path stroke-linejoin="miter" d="m19.529,23,5.3261,32.5c131.38,22.5,273.4,22.5,424.32,2.5l5.3261-35c-131.38,25-319.57,25-434.96,0z" stroke="#640000" stroke-linecap="butt" stroke-width="0.84270161px" fill="#A00"/>
	<path stroke-linejoin="miter" d="m92.32,393,21.304-315,24.855,2.5-12.428,315z" stroke="#640000" stroke-linecap="butt" stroke-width="0.84270161px" fill="#A00"/>
	<path stroke-linejoin="miter" d="m110.07,66.75-0.88768,11.25,33.732,2.5,0-11.25z" stroke="#e8c939" stroke-linecap="butt" stroke-width="0.84270161px" fill="#e8c939"/>
	<path d="m92.32,393-3.5507,5-3.5507,65,41.721,0,2.663-62.5-3.5507-5z" fill="#000"/>
	<path stroke-linejoin="miter" d="m33.732,108,62.138,2.5,0-7.5,15.978,2.5-2.663,37.5-75.453-7.5z" stroke="#640000" stroke-linecap="butt" stroke-width="0.84270161px" fill="#A00"/>
	<path stroke-linejoin="miter" d="m385.08,393-21.304-315-24.855,2.5,12.428,315z" stroke="#640000" stroke-linecap="butt" stroke-width="0.84270161px" fill="#A00"/>
	<path stroke-linejoin="miter" d="m367.32,66.75,0.88768,11.25-33.732,2.5,0-11.25z" stroke="#e8c939" stroke-linecap="butt" stroke-width="0.84270161px" fill="#e8c939"/>
	<path d="m385.08,393,3.5507,5,3.5507,65-41.721,0-2.663-62.5,3.5507-5z" fill="#000"/>
	<path stroke-linejoin="miter" d="m443.66,108-62.138,2.5,0-7.5-15.978,2.5,2.663,37.5,75.453-7.5z" stroke="#640000" stroke-linecap="butt" stroke-width="0.84270161px" fill="#A00"/>
	<path stroke-linejoin="miter" d="m341.58,143-1.7754-37.5-15.091-2.5,0,8.75-71.015,1.25,0-40h-30.004v40l-71.015-1.25v-8.75l-15.091,2.5-1.7754,37.5h205.76z" stroke="#640000" stroke-linecap="butt" stroke-width="0.84270161px" fill="#A00"/>
</svg>
